<svg id="Capa_1" data-name="Capa 1" xmlns="http://www.w3.org/2000/svg" viewBox="0 0 792 288.34"><defs><style>.cls-1{fill:#fec917;}.cls-2{fill:#271c65;}</style></defs><path class="cls-1" d="M114.07,185.53H73.5a1.93,1.93,0,0,1-1.93-1.94V170.15H68.13a1.93,1.93,0,0,1-1.36-3.29l25.65-25.64a1.92,1.92,0,0,1,2.73,0l25.37,25.36a1.9,1.9,0,0,1,.92,1.65,2,2,0,0,1-2,1.92H116v13.44A1.94,1.94,0,0,1,114.07,185.53Z"/><path class="cls-1" d="M145.87,158.05l-36.78-36.78a2.79,2.79,0,0,0-4,0l-9.47,9.48,4,4,7.5-7.5,30.43,30.43h-1a2.8,2.8,0,0,0-2.8,2.8v19.49H121.32v5.6h15.21a2.8,2.8,0,0,0,2.79-2.8V163.24h5a2.93,2.93,0,0,0,2.86-2.8A2.79,2.79,0,0,0,145.87,158.05Z"/><path class="cls-1" d="M54.15,186.15V155.29a4.42,4.42,0,0,0-4.43-4.42H48.09l48.2-48.18L112,118.44l6.27-6.27L99.42,93.29a4.42,4.42,0,0,0-6.26,0L34.27,152.16a4.44,4.44,0,0,0,3.13,7.57h7.89v30.85A4.43,4.43,0,0,0,49.72,195H71.4v-8.86Z"/><path class="cls-2" d="M332,191.42c-3.51,0-5.81-1.32-5.81-6.19v-1.82c0-4.87,2.3-6.18,5.81-6.18a19.43,19.43,0,0,1,3.42.37v2c-.89-.08-2.2-.17-3.26-.17-2.29,0-3.41.81-3.41,3.94v1.82c0,3.14,1.12,4,3.41,4,1.06,0,2.37-.1,3.26-.17v2A18.77,18.77,0,0,1,332,191.42Z"/><path class="cls-2" d="M343.13,191.13v-.68a5.89,5.89,0,0,1-3.26,1c-1.93,0-3-1-3-3v-.38c0-2.75,2-3.12,4.88-3.12H343v-.64c0-1.47-.31-1.76-2.15-1.76a31.08,31.08,0,0,0-3.24.2v-1.63a11.71,11.71,0,0,1,3.64-.57c3.31,0,4.17,1.12,4.17,3.76v6.82Zm-.13-4.69h-1.28c-1.78,0-2.53.2-2.53,1.56v.44c0,.95.59,1.2,1.45,1.2A5.24,5.24,0,0,0,343,189Z"/><path class="cls-2" d="M347.45,195.16A9.11,9.11,0,0,1,346,195v-1.73c.29,0,.65,0,1,0,.87,0,1-.29,1-1.34V180.81h2.43V192C350.42,194.39,349.62,195.16,347.45,195.16Zm.52-15.94v-2.33h2.49v2.33Z"/><path class="cls-2" d="M359,191.13v-.68a5.86,5.86,0,0,1-3.26,1c-1.92,0-3-1-3-3v-.38c0-2.75,2-3.12,4.87-3.12h1.23v-.64c0-1.47-.31-1.76-2.14-1.76a31.27,31.27,0,0,0-3.25.2v-1.63a11.73,11.73,0,0,1,3.65-.57c3.3,0,4.16,1.12,4.16,3.76v6.82Zm-.12-4.69h-1.29c-1.78,0-2.53.2-2.53,1.56v.44c0,.95.59,1.2,1.45,1.2a5.33,5.33,0,0,0,2.37-.62Z"/><path class="cls-2" d="M371.45,186.24c-.5,0-1,0-1.51,0v4.91h-2.49V177.51c1.3-.07,2.51-.09,3.83-.09,3.34,0,6,.64,6,4.27v.2C377.27,185.56,374.62,186.24,371.45,186.24Zm3.32-4.55c0-2.11-1.51-2.11-4.46-2.11h-.37v4.48h1.47c2.24,0,3.36-.38,3.36-2.18Z"/><path class="cls-2" d="M381.62,183.4v7.73h-2.4V180.81h2.28v.84a5.16,5.16,0,0,1,3.53-1.1v2.22A8.94,8.94,0,0,0,381.62,183.4Z"/><path class="cls-2" d="M390.63,191.41c-3,0-4.65-1.55-4.65-4.81v-1.26c0-3.25,1.65-4.79,4.65-4.79s4.66,1.54,4.66,4.79v1.26C395.29,189.86,393.64,191.41,390.63,191.41Zm2.25-6.07c0-2-.67-2.71-2.25-2.71s-2.25.73-2.25,2.71v1.26c0,2,.68,2.74,2.25,2.74s2.25-.76,2.25-2.74Z"/><path class="cls-2" d="M409.18,191.13v-6.76c0-1.14,0-1.8-1.3-1.8a5,5,0,0,0-2.14.62,9.64,9.64,0,0,1,.05,1.18v6.76h-2.42v-6.76c0-1.16,0-1.8-1.19-1.8a5.41,5.41,0,0,0-2.22.66v7.9h-2.4V180.81h2.31v.82a5.05,5.05,0,0,1,3.08-1.08,2.43,2.43,0,0,1,2.34,1.12,5.66,5.66,0,0,1,3.21-1.12c2.92,0,3.1,1.93,3.1,3.78v6.8Z"/><path class="cls-2" d="M418.47,191.41c-3,0-4.65-1.55-4.65-4.81v-1.26c0-3.25,1.65-4.79,4.65-4.79s4.66,1.54,4.66,4.79v1.26C423.13,189.86,421.47,191.41,418.47,191.41Zm2.26-6.07c0-2-.68-2.71-2.26-2.71s-2.25.73-2.25,2.71v1.26c0,2,.68,2.74,2.25,2.74s2.26-.76,2.26-2.74Z"/><path class="cls-2" d="M428.88,191.41c-2,0-2.84-.81-2.84-3v-5.69l-1.92-.16v-1.78H426v-2.62h2.42v2.62H431v1.94h-2.51v5.65c0,.95.07,1.14,1,1.14a15.38,15.38,0,0,0,1.56-.08v1.65A8.76,8.76,0,0,1,428.88,191.41Z"/><path class="cls-2" d="M436.83,191.41c-3,0-4.65-1.55-4.65-4.81v-1.26c0-3.25,1.65-4.79,4.65-4.79s4.66,1.54,4.66,4.79v1.26C441.49,189.86,439.84,191.41,436.83,191.41Zm2.26-6.07c0-2-.68-2.71-2.26-2.71s-2.25.73-2.25,2.71v1.26c0,2,.68,2.74,2.25,2.74s2.26-.76,2.26-2.74Z"/><path class="cls-2" d="M446.16,183.4v7.73h-2.4V180.81h2.3v.84a5.09,5.09,0,0,1,3.51-1.1v2.22A9,9,0,0,0,446.16,183.4Z"/><path class="cls-2" d="M456.72,191.13v-.68a5.89,5.89,0,0,1-3.26,1c-1.93,0-3-1-3-3v-.38c0-2.75,2-3.12,4.88-3.12h1.23v-.64c0-1.47-.32-1.76-2.15-1.76a31.25,31.25,0,0,0-3.24.2v-1.63a11.73,11.73,0,0,1,3.65-.57c3.29,0,4.16,1.12,4.16,3.76v6.82Zm-.13-4.69h-1.28c-1.78,0-2.53.2-2.53,1.56v.44c0,.95.59,1.2,1.45,1.2a5.28,5.28,0,0,0,2.36-.62Z"/><path class="cls-2" d="M471.44,191.13v-.53a5.45,5.45,0,0,1-2.9.81c-2.42,0-3.85-1.47-3.85-4.62v-1.47c0-3.63,1.81-4.77,4.45-4.77a12.26,12.26,0,0,1,2.15.2v-3.86h2.42v14.24Zm-.13-8.38a14,14,0,0,0-1.93-.18c-1.46,0-2.27.42-2.27,2.75v1.47c0,1.84.6,2.56,2.11,2.56a5.19,5.19,0,0,0,2.09-.46Z"/><path class="cls-2" d="M478.38,186.73v.18c0,1.51.22,2.48,2.75,2.48,1.08,0,2.36-.11,3.73-.24V191a16.93,16.93,0,0,1-3.84.44c-3.72,0-5-1.43-5-5.06v-.65c0-3.46,1.58-5.15,4.66-5.15,3.44,0,4.65,2.24,4.65,5.37v.81Zm4.49-1.74c0-1.19-.24-2.49-2.23-2.49s-2.24,1.32-2.24,2.49v.16h4.47Z"/><path class="cls-2" d="M498.16,191.13h-3.74l-4.11-13.62H493l2.81,9.44c.23.79.37,1.72.55,2.44h0c.15-.74.31-1.65.55-2.44l2.81-9.44h2.58Z"/><path class="cls-2" d="M504.21,179.22v-2.33h2.49v2.33Zm0,11.91V180.81h2.44v10.32Z"/><path class="cls-2" d="M515.07,191.13h-3.43l-3.2-10.32H511l1.7,5.88c.27,1,.49,1.93.73,2.81.21-.88.42-1.82.69-2.81l1.67-5.88h2.53Z"/><path class="cls-2" d="M520,179.22v-2.33h2.49v2.33Zm0,11.91V180.81h2.44v10.32Z"/><path class="cls-2" d="M527.24,186.73v.18c0,1.51.22,2.48,2.75,2.48,1.08,0,2.37-.11,3.72-.24V191a16.75,16.75,0,0,1-3.83.44c-3.72,0-5-1.43-5-5.06v-.65c0-3.46,1.58-5.15,4.66-5.15,3.44,0,4.65,2.24,4.65,5.37v.81Zm4.49-1.74c0-1.19-.23-2.49-2.23-2.49s-2.24,1.32-2.24,2.49v.16h4.47Z"/><path class="cls-2" d="M543,191.13v-6.54c0-1.49-.26-2-1.45-2a7.71,7.71,0,0,0-2.71.7v7.84h-2.41V180.81h2.31v.82a7,7,0,0,1,3.4-1.08c2.91,0,3.3,1.69,3.3,4v6.54Z"/><path class="cls-2" d="M554.35,191.13v-.53a5.42,5.42,0,0,1-2.9.81c-2.42,0-3.84-1.47-3.84-4.62v-1.47c0-3.63,1.81-4.77,4.44-4.77a12.36,12.36,0,0,1,2.15.2v-3.86h2.42v14.24Zm-.13-8.38a14,14,0,0,0-1.92-.18c-1.47,0-2.28.42-2.28,2.75v1.47c0,1.84.61,2.56,2.11,2.56a5.19,5.19,0,0,0,2.09-.46Z"/><path class="cls-2" d="M565.08,191.13v-.68a5.84,5.84,0,0,1-3.26,1c-1.92,0-3-1-3-3v-.38c0-2.75,2-3.12,4.88-3.12h1.22v-.64c0-1.47-.31-1.76-2.14-1.76a31.27,31.27,0,0,0-3.25.2v-1.63a11.73,11.73,0,0,1,3.65-.57c3.3,0,4.16,1.12,4.16,3.76v6.82Zm-.12-4.69h-1.28c-1.78,0-2.54.2-2.54,1.56v.44c0,.95.59,1.2,1.45,1.2A5.33,5.33,0,0,0,565,189Z"/><path class="cls-2" d="M583.85,191.13v-7.55c0-.86,0-1.49.09-2.35h0c-.29.68-.62,1.28-.94,1.89L581,187h-2l-2-3.83c-.3-.59-.58-1.25-.92-1.89h0c0,.86.07,1.47.07,2.35v7.55h-2.49V177.51h2.79l2.73,5.33c.28.54.57,1.16.83,1.73h0c.26-.59.55-1.21.84-1.76l2.77-5.3h2.79v13.62Z"/><path class="cls-2" d="M589.19,179.22v-2.33h2.49v2.33Zm0,11.91V180.81h2.43v10.32Z"/><path class="cls-2" d="M594.47,191.13V176.89h2.41v14.24Z"/><path class="cls-2" d="M599.69,179.22v-2.33h2.49v2.33Zm0,11.91V180.81h2.44v10.32Z"/><path class="cls-2" d="M608.74,191.41c-2,0-2.84-.81-2.84-3v-5.69l-1.93-.16v-1.78h1.93v-2.62h2.42v2.62h2.51v1.94h-2.51v5.65c0,.95.08,1.14.95,1.14a15.38,15.38,0,0,0,1.56-.08v1.65A8.85,8.85,0,0,1,608.74,191.41Z"/><path class="cls-2" d="M618.51,191.13v-.68a5.9,5.9,0,0,1-3.27,1c-1.92,0-3-1-3-3v-.38c0-2.75,2-3.12,4.88-3.12h1.23v-.64c0-1.47-.32-1.76-2.15-1.76a31.27,31.27,0,0,0-3.25.2v-1.63a11.88,11.88,0,0,1,3.66-.57c3.29,0,4.15,1.12,4.15,3.76v6.82Zm-.13-4.69H617.1c-1.78,0-2.53.2-2.53,1.56v.44c0,.95.58,1.2,1.44,1.2a5.29,5.29,0,0,0,2.37-.62Z"/><path class="cls-2" d="M625.7,183.4v7.73h-2.41V180.81h2.29v.84a5.13,5.13,0,0,1,3.52-1.1v2.22A8.93,8.93,0,0,0,625.7,183.4Z"/><path class="cls-2" d="M639.75,191.52c-.82,2.43-1.59,3.62-3.86,3.62a12.39,12.39,0,0,1-2.46-.22v-1.76c.84.06,1.3.08,1.94.08.88,0,1.15-.4,1.59-1.54l.24-.64-3.85-10.25H636l1.8,5.48c.29.92.46,1.74.75,2.75.22-1,.41-1.83.68-2.75l1.63-5.48h2.51Z"/><path class="cls-2" d="M655,191.13v-.53a5.45,5.45,0,0,1-2.9.81c-2.42,0-3.84-1.47-3.84-4.62v-1.47c0-3.63,1.81-4.77,4.45-4.77a12.24,12.24,0,0,1,2.14.2v-3.86h2.42v14.24Zm-.13-8.38a14,14,0,0,0-1.92-.18c-1.47,0-2.28.42-2.28,2.75v1.47c0,1.84.61,2.56,2.11,2.56a5.19,5.19,0,0,0,2.09-.46Z"/><path class="cls-2" d="M661.92,186.73v.18c0,1.51.23,2.48,2.76,2.48,1.08,0,2.36-.11,3.72-.24V191a16.77,16.77,0,0,1-3.84.44c-3.72,0-5-1.43-5-5.06v-.65c0-3.46,1.58-5.15,4.66-5.15,3.45,0,4.65,2.24,4.65,5.37v.81Zm4.5-1.74c0-1.19-.24-2.49-2.24-2.49s-2.24,1.32-2.24,2.49v.16h4.48Z"/><path class="cls-2" d="M678.77,186.24c-.5,0-1,0-1.51,0v4.91h-2.49V177.51c1.3-.07,2.51-.09,3.83-.09,3.34,0,6,.64,6,4.27v.2C684.6,185.56,681.94,186.24,678.77,186.24Zm3.31-4.55c0-2.11-1.5-2.11-4.45-2.11h-.37v4.48h1.47c2.24,0,3.35-.38,3.35-2.18Z"/><path class="cls-2" d="M690.43,191.41c-3,0-4.66-1.55-4.66-4.81v-1.26c0-3.25,1.65-4.79,4.66-4.79s4.65,1.54,4.65,4.79v1.26C695.08,189.86,693.43,191.41,690.43,191.41Zm2.25-6.07c0-2-.68-2.71-2.25-2.71s-2.26.73-2.26,2.71v1.26c0,2,.68,2.74,2.26,2.74s2.25-.76,2.25-2.74Z"/><path class="cls-2" d="M697.42,191.13V176.89h2.43v14.24Z"/><path class="cls-2" d="M702.65,179.22v-2.33h2.49v2.33Zm0,11.91V180.81h2.43v10.32Z"/><path class="cls-2" d="M711.79,191.41c-3,0-4.34-1.69-4.34-4.79v-1.3c0-3.15,1.38-4.77,4.34-4.77a11.49,11.49,0,0,1,3.19.39v1.83c-1.3-.11-2.2-.16-2.77-.16-1.5,0-2.34.47-2.34,2.71v1.3c0,2.22.84,2.73,2.34,2.73.57,0,1.47,0,2.77-.16V191A12.34,12.34,0,0,1,711.79,191.41Z"/><path class="cls-2" d="M718.92,179.65h-2.33l2.42-2.71h2.81Zm-1.79,11.48V180.81h2.43v10.32Z"/><path class="cls-2" d="M728.11,191.13v-.68a5.93,5.93,0,0,1-3.27,1c-1.92,0-3-1-3-3v-.38c0-2.75,2-3.12,4.88-3.12h1.23v-.64c0-1.47-.31-1.76-2.14-1.76a31.27,31.27,0,0,0-3.25.2v-1.63a11.79,11.79,0,0,1,3.65-.57c3.3,0,4.16,1.12,4.16,3.76v6.82Zm-.13-4.69h-1.29c-1.78,0-2.53.2-2.53,1.56v.44c0,.95.59,1.2,1.45,1.2A5.33,5.33,0,0,0,728,189Z"/><path class="cls-2" d="M207.66,167.21c-18,0-26.42-10.93-26.42-29.78v-10c0-19,8.4-29.65,26.42-29.65a69.76,69.76,0,0,1,18.85,2.28v8.16c-8-.84-13.82-1.2-17.29-1.2-10.57,0-17.17,4-17.17,20.41v10c0,16.45,6.6,20.54,17.17,20.54,3.47,0,9.24-.37,17.29-1.21v8.17A69.76,69.76,0,0,1,207.66,167.21Z"/><path class="cls-2" d="M275.61,165.53v-4.44a37,37,0,0,1-21,6.12c-12.37,0-19.69-5.52-19.69-18.73v-2.4c0-17.41,11.88-20.41,30.37-20.41h9.85v-4.8c0-11.41-2.28-13.93-15.49-13.93a165,165,0,0,0-20.41,1.44V100.7c1.92-.72,11-2.88,21.25-2.88,22,0,25.45,8,25.45,23.05v44.66Zm-.48-31.7h-9.85c-13.93,0-19.57,1.69-19.57,12.25v3.24c0,7.44,4.56,9.49,11,9.49a38.36,38.36,0,0,0,18.37-5.29Z"/><path class="cls-2" d="M294.1,191.82a40.71,40.71,0,0,1-8.88-1v-8.29h1.92c13.09,0,14.4-.23,14.4-9.84V97.09h10.93v75.64C312.47,185.82,308.15,191.82,294.1,191.82Z"/><path class="cls-2" d="M366.37,165.53v-4.44a37,37,0,0,1-21,6.12c-12.36,0-19.69-5.52-19.69-18.73v-2.4c0-17.41,11.89-20.41,30.38-20.41h9.84v-4.8c0-11.41-2.28-13.93-15.49-13.93a164.74,164.74,0,0,0-20.4,1.44V100.7c1.92-.72,11-2.88,21.24-2.88,22,0,25.45,8,25.45,23.05v44.66Zm-.48-31.7h-9.84c-13.93,0-19.57,1.69-19.57,12.25v3.24c0,7.44,4.56,9.49,11,9.49a38.36,38.36,0,0,0,18.37-5.29Z"/><path class="cls-2" d="M459.27,97a2.75,2.75,0,0,0-1.75-.66H443.3a1.66,1.66,0,0,0-1.81,1.43l-1.81,26h-29l1.76-25.22a1.91,1.91,0,0,0-.69-1.5,2.71,2.71,0,0,0-1.75-.66H395.79A1.68,1.68,0,0,0,394,97.75l-4.64,66.46a1.89,1.89,0,0,0,.69,1.49,2.68,2.68,0,0,0,1.75.66H406a1.67,1.67,0,0,0,1.82-1.42l1.95-27.48h29l-1.9,26.75a1.89,1.89,0,0,0,.69,1.49,2.68,2.68,0,0,0,1.75.66H453.5a1.65,1.65,0,0,0,1.81-1.43L460,98.48A1.91,1.91,0,0,0,459.27,97Z"/><path class="cls-2" d="M535.89,110.43a29.13,29.13,0,0,0-8.16-8.54,35.59,35.59,0,0,0-11.18-5,50.67,50.67,0,0,0-13.29-1.66c-7.33,0-13.73,1.26-19,3.83a32.33,32.33,0,0,0-12.46,10.21,34.79,34.79,0,0,0-6,14.55,49,49,0,0,0,.1,17,31.55,31.55,0,0,0,4.31,11.64,29.17,29.17,0,0,0,8.15,8.49A35.85,35.85,0,0,0,489.53,166a51.61,51.61,0,0,0,13.25,1.65c7.34,0,13.74-1.26,19.05-3.84a32.35,32.35,0,0,0,12.45-10.2,34.84,34.84,0,0,0,6-14.55,49,49,0,0,0-.09-17A31.69,31.69,0,0,0,535.89,110.43Zm-29.13,38.46a13.53,13.53,0,0,1-5.48,1,15.34,15.34,0,0,1-4.68-.63,8,8,0,0,1-3-1.66,10.16,10.16,0,0,1-2.25-2.94,14.68,14.68,0,0,1-1.38-4.27,38.1,38.1,0,0,1-.54-6.55,34,34,0,0,1,.65-6.5,26.58,26.58,0,0,1,1.86-5.88,16.38,16.38,0,0,1,3.08-4.61,12.76,12.76,0,0,1,4.27-3,13.5,13.5,0,0,1,5.48-1,15.41,15.41,0,0,1,4.62.62,8.26,8.26,0,0,1,3,1.68,10.33,10.33,0,0,1,2.28,2.93,14.23,14.23,0,0,1,1.37,4.19,37.5,37.5,0,0,1,.54,6.59,35.26,35.26,0,0,1-.6,6.56,24.23,24.23,0,0,1-1.85,5.83,17.35,17.35,0,0,1-3.13,4.64A12.82,12.82,0,0,1,506.76,148.89Z"/><path class="cls-2" d="M610.42,100.05a30.22,30.22,0,0,0-8.5-3.65,36.47,36.47,0,0,0-9.46-1.22,35.65,35.65,0,0,0-8,.88,33.69,33.69,0,0,0-6.75,2.31h0a28.28,28.28,0,0,0-5.49,3.37.39.39,0,0,0-.1.08l-.46-2.64a2.81,2.81,0,0,0-1.12-1.7,3.61,3.61,0,0,0-2.11-.7H552.74a2.22,2.22,0,0,0-2.43,1.91l-4.53,64.37a2.5,2.5,0,0,0,.92,2,3.58,3.58,0,0,0,2.34.88h18.4a2.24,2.24,0,0,0,2.43-1.91L572.11,132h0c.1-1.43.23-2.66.37-3.7h0c.15-1,.32-1.92.51-2.67h0a14.37,14.37,0,0,1,.66-2h0a16.27,16.27,0,0,1,.8-1.67h0a16.84,16.84,0,0,1,6.18-6.41,16.56,16.56,0,0,1,8.71-2.28,12.6,12.6,0,0,1,3.2.35,5.34,5.34,0,0,1,1.85.82,4.41,4.41,0,0,1,1.22,1.35,6.11,6.11,0,0,1,.77,2.18,15,15,0,0,1,.18,2.43h0c0,1,0,2.23-.1,3.56h0l-2.73,39.17a2.53,2.53,0,0,0,.92,2,3.59,3.59,0,0,0,2.33.88h18.41a2.23,2.23,0,0,0,2.42-1.9l2.7-38v0c.13-2,.21-4,.22-6.08a32.42,32.42,0,0,0-.43-5.82,18.84,18.84,0,0,0-3.39-8.07A23.63,23.63,0,0,0,610.42,100.05Z"/><path class="cls-2" d="M701.7,122a31.69,31.69,0,0,0-4.31-11.6,29.13,29.13,0,0,0-8.16-8.54,35.64,35.64,0,0,0-11.17-5,50.8,50.8,0,0,0-13.3-1.66c-7.34,0-13.73,1.26-19,3.83a32.33,32.33,0,0,0-12.46,10.21,34.79,34.79,0,0,0-6,14.55,48.77,48.77,0,0,0,.1,17,31.55,31.55,0,0,0,4.31,11.64,28.91,28.91,0,0,0,8.15,8.49A35.8,35.8,0,0,0,651,166a51.5,51.5,0,0,0,13.25,1.65c7.32,0,13.73-1.26,19-3.84a32.38,32.38,0,0,0,12.46-10.2,35,35,0,0,0,6-14.55A49.25,49.25,0,0,0,701.7,122Zm-33.45,26.86a13.48,13.48,0,0,1-5.47,1,15.41,15.41,0,0,1-4.69-.63,8,8,0,0,1-3-1.66,10.18,10.18,0,0,1-2.26-2.94,14.68,14.68,0,0,1-1.38-4.27,37.12,37.12,0,0,1-.54-6.55,33.25,33.25,0,0,1,.65-6.5,26.58,26.58,0,0,1,1.86-5.88,16.6,16.6,0,0,1,3.08-4.61,12.76,12.76,0,0,1,4.27-3,13.48,13.48,0,0,1,5.47-1,15.43,15.43,0,0,1,4.63.62,8.39,8.39,0,0,1,3,1.68,10.3,10.3,0,0,1,2.27,2.93,14.23,14.23,0,0,1,1.37,4.19,37.5,37.5,0,0,1,.54,6.59,35.26,35.26,0,0,1-.6,6.56,24.67,24.67,0,0,1-1.84,5.83,17.38,17.38,0,0,1-3.14,4.64A12.86,12.86,0,0,1,668.25,148.89Z"/><path class="cls-2" d="M759.65,96.61a3.61,3.61,0,0,0-2.07-1,50.85,50.85,0,0,0-6.49-.43A29.83,29.83,0,0,0,737.44,98a27.18,27.18,0,0,0-5.41,3.62l-.44-2.48a2.75,2.75,0,0,0-1.11-1.7,3.61,3.61,0,0,0-2.11-.7H712.7a2.22,2.22,0,0,0-2.43,1.91l-4.52,64.37a2.49,2.49,0,0,0,.91,2,3.6,3.6,0,0,0,2.34.88h18.4a2.23,2.23,0,0,0,2.43-1.91l2.27-32.35a35.86,35.86,0,0,1,.67-5.21,18.32,18.32,0,0,1,1-3.07h0a12.94,12.94,0,0,1,2.91-4.25,15.75,15.75,0,0,1,4-2.76,19,19,0,0,1,4.66-1.52,26.71,26.71,0,0,1,5-.47,31.23,31.23,0,0,1,5.94.6,3,3,0,0,0,2.1-.32,1.92,1.92,0,0,0,1-1.53l1-14.68A2.44,2.44,0,0,0,759.65,96.61Z"/><rect class="cls-2" x="165.22" y="91.82" width="1.34" height="102.77"/></svg>