<svg id="Capa_1" data-name="Capa 1" xmlns="http://www.w3.org/2000/svg" viewBox="0 0 283.46 283.46"><defs><style>.cls-1{fill:#ffff;}.cls-2{font-size:24px;font-family:Flama-SemiboldItalic, Flama;font-weight:600;font-style:italic;letter-spacing:-0.01em;}</style></defs><path class="cls-1" d="M202.24,137.71a1.8,1.8,0,0,0-1.42,2.12,60.86,60.86,0,0,1-59.63,72.58,60.73,60.73,0,0,1-60.77-60.77v0s0,0,0,0a1.81,1.81,0,0,0-1.81-1.81H69L84.5,132.55,100,149.77H89.62a1.81,1.81,0,0,0-1.81,1.81v0a53.38,53.38,0,1,0,106.76,0c0-1.73-.08-3.48-.25-5.19a1.81,1.81,0,1,0-3.6.35c.15,1.6.23,3.23.23,4.84a49.76,49.76,0,0,1-99.49,1.76H104.1a1.82,1.82,0,0,0,1.35-3l-19.6-21.72a1.81,1.81,0,0,0-2.69,0l-19.6,21.72a1.82,1.82,0,0,0,1.35,3H76.82a63.87,63.87,0,0,0,4.8,22.73,64.54,64.54,0,0,0,21,27.07,64.4,64.4,0,0,0,103-51.55,64.54,64.54,0,0,0-1.21-12.51A1.8,1.8,0,0,0,202.24,137.71Z"/><path class="cls-1" d="M88.59,117.67a1.81,1.81,0,0,0,2.52-.47A61.07,61.07,0,0,1,104.77,103a60.78,60.78,0,0,1,80.62,6.94,1.81,1.81,0,1,0,2.63-2.48,64.39,64.39,0,0,0-85.43-7.35,64.42,64.42,0,0,0-14.46,15.06A1.81,1.81,0,0,0,88.59,117.67Z"/><path class="cls-1" d="M177.68,117.79a1.81,1.81,0,1,0,2.65-2.46,53.39,53.39,0,0,0-83.51,6.61,1.81,1.81,0,0,0,.5,2.51,1.78,1.78,0,0,0,1,.31,1.81,1.81,0,0,0,1.51-.8,49.77,49.77,0,0,1,77.85-6.17Z"/><path class="cls-1" d="M125.49,140.43a1.8,1.8,0,0,0-2.56,0l-11.44,11.15a1.83,1.83,0,0,0-.55,1.28,1.79,1.79,0,0,0,.51,1.28l29.31,30.07a1.79,1.79,0,0,0,1.29.54,1.77,1.77,0,0,0,1.22-.47l62.21-56.93a1.81,1.81,0,0,0,.11-2.56L194.8,113a1.77,1.77,0,0,0-1.25-.59,1.8,1.8,0,0,0-1.3.47l-49.49,45.3Zm67.86-23.69,8.35,9.12-59.58,54.52-26.81-27.51,8.85-8.62,16,16.41a3.61,3.61,0,0,0,5,.15Z"/></svg>