<svg id="Capa_1" data-name="Capa 1" xmlns="http://www.w3.org/2000/svg" viewBox="0 0 283.46 283.46"><defs><style>.cls-1{fill:#ffff;stroke:#000;stroke-miterlimit:10;stroke-width:3px;}.cls-2{font-size:24px;font-family:Flama-SemiboldItalic, Flama;font-weight:600;font-style:italic;letter-spacing:-0.02em;}.cls-3{letter-spacing:-0.01em;}.cls-4{letter-spacing:-0.03em;}</style></defs><path class="cls-1" d="M170.2,215.26H122a2.28,2.28,0,0,1-2.29-2.29V197h-4.08A2.29,2.29,0,0,1,114,193.1l30.46-30.45a2.28,2.28,0,0,1,3.24,0l30.11,30.12a2.24,2.24,0,0,1,1.1,2,2.39,2.39,0,0,1-2.34,2.28h-4.12v16A2.29,2.29,0,0,1,170.2,215.26Z"/><path class="cls-1" d="M208,182.64,164.29,139a3.33,3.33,0,0,0-4.69,0l-11.25,11.25,4.69,4.7L162,146l36.13,36.13h-1.22a3.31,3.31,0,0,0-3.32,3.31v23.15H178.8v6.64h18.06a3.32,3.32,0,0,0,3.32-3.32V188.8h6a3.47,3.47,0,0,0,3.39-3.33A3.34,3.34,0,0,0,208,182.64Z"/><path class="cls-1" d="M99.05,216V179.37a5.26,5.26,0,0,0-5.25-5.26H91.87l57.21-57.19,18.7,18.69,7.44-7.44L152.8,105.76a5.24,5.24,0,0,0-7.43,0L75.45,175.65a5.26,5.26,0,0,0,3.72,9h9.37v36.63a5.26,5.26,0,0,0,5.26,5.26h25.74V216Z"/></svg>