<svg id="Capa_1" data-name="Capa 1" xmlns="http://www.w3.org/2000/svg" viewBox="0 0 283.46 283.46"><defs><style>.cls-1{fill:#ffff;}.cls-2{font-size:24px;font-family:Flama-SemiboldItalic, Flama;font-weight:600;font-style:italic;letter-spacing:-0.01em;}.cls-3{letter-spacing:-0.02em;}</style></defs><path class="cls-1" d="M218.73,194.36H212v-10a22.63,22.63,0,0,0-22.62-22.61H169.93a22.63,22.63,0,0,0-22.62,22.61v10H110.62l-.89,0H90.27l-.89,0H64.74a1.81,1.81,0,0,0-1.81,1.81V208.9a1.81,1.81,0,0,0,1.81,1.81h3.79a22.56,22.56,0,0,0-.88,6.24v13.74a1.81,1.81,0,0,0,1.81,1.81h61.07a1.81,1.81,0,0,0,1.81-1.81V217a22.56,22.56,0,0,0-.88-6.24h87.27a1.81,1.81,0,0,0,1.81-1.81V196.17A1.81,1.81,0,0,0,218.73,194.36Zm-67.8-10a19,19,0,0,1,19-19h19.45a19,19,0,0,1,19,19v10h-8.62l0-4.32a1.81,1.81,0,0,0-3.62,0l0,4.3h-33l0-3a1.8,1.8,0,0,0-1.79-1.82h0a1.81,1.81,0,0,0-1.81,1.79l0,3h-8.62ZM128.72,217v11.93h-8.61l0-6.25a1.81,1.81,0,1,0-3.62,0l0,6.23h-33l0-4.89a1.79,1.79,0,0,0-1.79-1.82h0A1.81,1.81,0,0,0,79.91,224l0,4.92H71.27V217a19,19,0,0,1,18.11-19h21.24A19,19,0,0,1,128.72,217Zm-62.17-9.86V198H78a22.74,22.74,0,0,0-8.06,9.11Zm150.37,0H130.41a1.73,1.73,0,0,0-.32,0A22.8,22.8,0,0,0,122,198h94.91Z"/><path class="cls-1" d="M179.94,154.32a16.11,16.11,0,1,0-16.11-16.1A16.12,16.12,0,0,0,179.94,154.32Zm0-28.59a12.49,12.49,0,1,1-12.48,12.49A12.5,12.5,0,0,1,179.94,125.73Z"/><path class="cls-1" d="M100.28,186.91a16.11,16.11,0,1,0-16.1-16.11A16.12,16.12,0,0,0,100.28,186.91Zm0-28.59A12.49,12.49,0,1,1,87.8,170.8,12.5,12.5,0,0,1,100.28,158.32Z"/><path class="cls-1" d="M101.67,146.82h24l20.71,13.7a1.8,1.8,0,0,0,1,.3,1.83,1.83,0,0,0,1.81-1.81V146.82h.71a10,10,0,0,0,10-10V103.12a10,10,0,0,0-10-10H101.67a10,10,0,0,0-10,10V136.8A10,10,0,0,0,101.67,146.82Zm-6.4-43.7a6.41,6.41,0,0,1,6.4-6.4h48.27a6.41,6.41,0,0,1,6.4,6.4V136.8a6.41,6.41,0,0,1-6.4,6.4h-2.52a1.81,1.81,0,0,0-1.81,1.81v10.63L127.25,143.5a1.78,1.78,0,0,0-1-.3H101.67a6.41,6.41,0,0,1-6.4-6.4Z"/><path class="cls-1" d="M107.51,108.49h34.85a1.81,1.81,0,1,0,0-3.62H107.51a1.81,1.81,0,0,0,0,3.62Z"/><path class="cls-1" d="M107.51,121.39h34.85a1.81,1.81,0,0,0,0-3.62H107.51a1.81,1.81,0,0,0,0,3.62Z"/><path class="cls-1" d="M107.51,134.29h34.85a1.81,1.81,0,0,0,0-3.62H107.51a1.81,1.81,0,0,0,0,3.62Z"/></svg>