<svg id="Capa_1" data-name="Capa 1" xmlns="http://www.w3.org/2000/svg" viewBox="0 0 283.46 283.46"><defs><style>.cls-1{fill:#ffff;}.cls-2{font-size:24px;font-family:Flama-SemiboldItalic, Flama;font-weight:600;font-style:italic;letter-spacing:-0.01em;}.cls-3{letter-spacing:-0.03em;}</style></defs><path class="cls-1" d="M208.3,171.91a1.69,1.69,0,0,0,0-.33v-49.7A12.91,12.91,0,0,0,195.44,109h-5.26V104a1.81,1.81,0,0,0-3.62,0V109H164.11V104a1.81,1.81,0,0,0-3.62,0V109H138V104a1.81,1.81,0,1,0-3.62,0V109H112V104a1.81,1.81,0,1,0-3.62,0V109H85.9V104a1.81,1.81,0,1,0-3.62,0V109H75.76a12.92,12.92,0,0,0-12.9,12.9v80.83a12.91,12.91,0,0,0,12.9,12.9h82.83a33.54,33.54,0,1,0,49.71-43.7ZM75.76,112.6h6.52v7.48a1.81,1.81,0,1,0,3.62,0V112.6h22.45v7.48a1.81,1.81,0,1,0,3.62,0V112.6h22.45v7.48a1.81,1.81,0,1,0,3.62,0V112.6h22.45v7.48a1.81,1.81,0,0,0,3.62,0V112.6h22.45v7.48a1.81,1.81,0,0,0,3.62,0V112.6h5.26a9.28,9.28,0,0,1,9.27,9.28v16H66.48v-16A9.29,9.29,0,0,1,75.76,112.6Zm0,99.39a9.29,9.29,0,0,1-9.28-9.28V141.49H204.71v27.86A33.53,33.53,0,0,0,156.63,212Zm111.29,15.8A29.93,29.93,0,1,1,217,197.86,30,30,0,0,1,187.05,227.79Z"/><path class="cls-1" d="M187.09,173.22a1.81,1.81,0,0,0-1.81,1.81v21.85L171.47,206a1.81,1.81,0,0,0,1,3.32,1.85,1.85,0,0,0,1-.3l14.62-9.63a1.79,1.79,0,0,0,.81-1.51V175A1.81,1.81,0,0,0,187.09,173.22Z"/><path class="cls-1" d="M92.11,165.37H105.2a1.81,1.81,0,0,0,1.81-1.81V150.47a1.81,1.81,0,0,0-1.81-1.81H92.11a1.81,1.81,0,0,0-1.81,1.81v13.09A1.81,1.81,0,0,0,92.11,165.37Zm1.81-13.09h9.47v9.47H93.92Z"/><path class="cls-1" d="M126.73,148.66H113.64a1.81,1.81,0,0,0-1.81,1.81v13.09a1.81,1.81,0,0,0,1.81,1.81h13.09a1.81,1.81,0,0,0,1.81-1.81V150.47A1.81,1.81,0,0,0,126.73,148.66Zm-1.81,13.09h-9.47v-9.47h9.47Z"/><path class="cls-1" d="M148.26,148.66H135.18a1.82,1.82,0,0,0-1.82,1.81v13.09a1.82,1.82,0,0,0,1.82,1.81h13.08a1.81,1.81,0,0,0,1.81-1.81V150.47A1.81,1.81,0,0,0,148.26,148.66Zm-1.81,13.09H137v-9.47h9.46Z"/><path class="cls-1" d="M156.71,165.37h13.08a1.81,1.81,0,0,0,1.81-1.81V150.47a1.81,1.81,0,0,0-1.81-1.81H156.71a1.81,1.81,0,0,0-1.81,1.81v13.09A1.81,1.81,0,0,0,156.71,165.37Zm1.81-13.09H168v9.47h-9.46Z"/><path class="cls-1" d="M105.34,169.77H92.25a1.81,1.81,0,0,0-1.81,1.81v13.09a1.81,1.81,0,0,0,1.81,1.81h13.09a1.81,1.81,0,0,0,1.81-1.81V171.58A1.81,1.81,0,0,0,105.34,169.77Zm-1.81,13.09H94.06v-9.47h9.47Z"/><path class="cls-1" d="M126.59,169.77H113.5a1.81,1.81,0,0,0-1.81,1.81v13.09a1.81,1.81,0,0,0,1.81,1.81h13.09a1.81,1.81,0,0,0,1.81-1.81V171.58A1.81,1.81,0,0,0,126.59,169.77Zm-1.81,13.09h-9.47v-9.47h9.47Z"/><path class="cls-1" d="M147.84,169.77H134.75a1.81,1.81,0,0,0-1.81,1.81v13.09a1.81,1.81,0,0,0,1.81,1.81h13.09a1.81,1.81,0,0,0,1.81-1.81V171.58A1.81,1.81,0,0,0,147.84,169.77ZM146,182.86h-9.47v-9.47H146Z"/><path class="cls-1" d="M84.09,169.77H71a1.81,1.81,0,0,0-1.81,1.81v13.09A1.81,1.81,0,0,0,71,186.48H84.09a1.81,1.81,0,0,0,1.81-1.81V171.58A1.81,1.81,0,0,0,84.09,169.77Zm-1.81,13.09H72.82v-9.47h9.46Z"/></svg>