<svg id="Capa_1" data-name="Capa 1" xmlns="http://www.w3.org/2000/svg" viewBox="0 0 283.46 283.46"><defs><style>.cls-1{fill:#ffff;}.cls-2{font-size:24px;font-family:Flama-SemiboldItalic, Flama;font-weight:600;font-style:italic;letter-spacing:-0.01em;}</style></defs><path class="cls-1" d="M190.37,117.6A60.76,60.76,0,1,0,202.49,154,60.78,60.78,0,0,0,190.37,117.6Zm-48.64,93.55A57.21,57.21,0,0,1,84.59,154a57.11,57.11,0,0,1,57-57.13A1.81,1.81,0,0,0,140,98.67v9.61a1.81,1.81,0,0,0,3.62,0V98.67a1.8,1.8,0,0,0-1.6-1.79,56.86,56.86,0,0,1,28.07,7.51,1.8,1.8,0,0,0-2.22.78l-4.8,8.32a1.8,1.8,0,0,0,.66,2.47,1.84,1.84,0,0,0,.9.24,1.8,1.8,0,0,0,1.57-.9L171,107a1.81,1.81,0,0,0-.46-2.32,57.22,57.22,0,0,1,17,15.11,58.1,58.1,0,0,1,3.7,5.59,1.8,1.8,0,0,0-2.45-.63l-8.33,4.8a1.81,1.81,0,0,0,.91,3.38,1.88,1.88,0,0,0,.91-.24l8.32-4.81a1.81,1.81,0,0,0,.67-2.45,56.6,56.6,0,0,1,7.66,28.6A57.2,57.2,0,0,1,141.73,211.15Z"/><path class="cls-1" d="M141.78,197.75a1.81,1.81,0,0,0-1.81,1.81v9.61a1.81,1.81,0,0,0,3.62,0v-9.61A1.81,1.81,0,0,0,141.78,197.75Z"/><path class="cls-1" d="M98,153.92a1.81,1.81,0,0,0-1.81-1.81h-9.6a1.81,1.81,0,0,0,0,3.62h9.6A1.81,1.81,0,0,0,98,153.92Z"/><path class="cls-1" d="M197,152.11h-9.61a1.81,1.81,0,1,0,0,3.62H197a1.81,1.81,0,1,0,0-3.62Z"/><path class="cls-1" d="M117.4,115.3a1.8,1.8,0,0,0,1.57.9,1.87,1.87,0,0,0,.9-.24,1.8,1.8,0,0,0,.66-2.47l-4.8-8.32a1.81,1.81,0,1,0-3.14,1.81Z"/><path class="cls-1" d="M166.17,192.54a1.81,1.81,0,0,0-3.13,1.81l4.8,8.32a1.82,1.82,0,0,0,1.57.91,1.72,1.72,0,0,0,.9-.25,1.81,1.81,0,0,0,.67-2.47Z"/><path class="cls-1" d="M101.35,175.17,93,180a1.81,1.81,0,0,0,1.81,3.14l8.32-4.8a1.81,1.81,0,1,0-1.81-3.14Z"/><path class="cls-1" d="M103.16,129.53l-8.32-4.8A1.81,1.81,0,1,0,93,127.86l8.32,4.81a1.88,1.88,0,0,0,.91.24,1.83,1.83,0,0,0,1.57-.91A1.81,1.81,0,0,0,103.16,129.53Z"/><path class="cls-1" d="M190.54,180l-8.32-4.8a1.81,1.81,0,1,0-1.82,3.14l8.33,4.8a1.81,1.81,0,0,0,1.81-3.14Z"/><path class="cls-1" d="M119.87,191.88a1.8,1.8,0,0,0-2.47.66l-4.81,8.32a1.8,1.8,0,0,0,.67,2.47,1.72,1.72,0,0,0,.9.25,1.83,1.83,0,0,0,1.57-.91l4.8-8.32A1.8,1.8,0,0,0,119.87,191.88Z"/><path class="cls-1" d="M161.75,121.59a1.81,1.81,0,0,0-2.49.59l-18.07,29.25-21.1-12.66a1.81,1.81,0,0,0-1.86,3.11l22.63,13.58a1.84,1.84,0,0,0,.93.26,1.81,1.81,0,0,0,1.54-.86l19-30.78A1.8,1.8,0,0,0,161.75,121.59Z"/></svg>