<svg id="Capa_1" data-name="Capa 1" xmlns="http://www.w3.org/2000/svg" viewBox="0 0 283.46 283.46"><defs><style>.cls-1{fill:#ffff;}.cls-2{font-size:24px;font-family:Flama-SemiboldItalic, Flama;font-weight:600;font-style:italic;letter-spacing:-0.01em;}.cls-3{letter-spacing:-0.03em;}.cls-4{letter-spacing:-0.01em;}.cls-5{letter-spacing:-0.03em;}</style></defs><path class="cls-1" d="M138.74,119.46a14.62,14.62,0,0,0-14.61,14.61v5.33a14.61,14.61,0,1,0,29.22,0v-5.33A14.62,14.62,0,0,0,138.74,119.46Zm11,19.94a11,11,0,1,1-22,0v-5.33a11,11,0,1,1,22,0Z"/><path class="cls-1" d="M138.82,108.14a45.27,45.27,0,0,1,28.23,9.76,1.81,1.81,0,0,0,2.24-2.85,48.83,48.83,0,0,0-30.47-10.53,49.59,49.59,0,0,0-44.63,28.29,1.81,1.81,0,1,0,3.27,1.55A46,46,0,0,1,138.82,108.14Z"/><path class="cls-1" d="M93.11,153.86a1.81,1.81,0,0,0-3.62,0,49.15,49.15,0,0,0,8,26.91,1.82,1.82,0,0,0,1.52.82,1.75,1.75,0,0,0,1-.29,1.81,1.81,0,0,0,.53-2.51A45.56,45.56,0,0,1,93.11,153.86Z"/><path class="cls-1" d="M203.67,234.44l-19.42-24.6a3.62,3.62,0,0,0-3.49-1.32l-7.65-9.69a56.37,56.37,0,1,0-3,2.11l7.84,9.93a3.61,3.61,0,0,0,.57,3.46L198,238.93a3.62,3.62,0,1,0,5.68-4.49ZM85.87,153.86A53,53,0,1,1,169,197.38V176.85a20.62,20.62,0,0,0-20.59-20.59H129.12a20.62,20.62,0,0,0-20.59,20.59v20.42A52.94,52.94,0,0,1,85.87,153.86Zm37.52,50.66V179.78a1.81,1.81,0,0,0-3.62,0v23.49a53,53,0,0,1-7.62-3.68V176.85a17,17,0,0,1,17-17h19.24a17,17,0,0,1,17,17v22.84a53.86,53.86,0,0,1-7.62,3.64V179.78a1.81,1.81,0,0,0-3.62,0v24.79a53.15,53.15,0,0,1-30.7,0Z"/></svg>