<?xml version="1.0" encoding="utf-8"?>
<!-- Generator: Adobe Illustrator 26.3.1, SVG Export Plug-In . SVG Version: 6.00 Build 0)  -->
<svg version="1.1" id="Capa_1" xmlns="http://www.w3.org/2000/svg" xmlns:xlink="http://www.w3.org/1999/xlink" x="0px" y="0px"
	 viewBox="0 0 283.46 283.46" style="enable-background:new 0 0 283.46 283.46;" xml:space="preserve">
<style type="text/css">
	.st0{opacity:0.8;}
	.st1{display:none;}
	.st2{display:inline;}
	.st3{fill:#FFFFFF;}
</style>
<g class="st1">
	<g class="st2">
		<path d="M179.07,133.67c0.01-0.06,0.02-0.13,0.02-0.19c0-9.54,0-19.08,0-28.63c0-4.09-3.33-7.43-7.43-7.43c-1.21,0-1.82,0-3.03,0
			c0-1.14,0-1.71,0-2.85c0-0.58-0.47-1.04-1.04-1.04c-0.58,0-1.04,0.47-1.04,1.04c0,1.14,0,1.71,0,2.85c-5.17,0-7.76,0-12.93,0
			c0-1.14,0-1.71,0-2.85c0-0.58-0.47-1.04-1.04-1.04c-0.58,0-1.04,0.47-1.04,1.04c0,1.14,0,1.71,0,2.85c-5.17,0-7.76,0-12.93,0
			c0-1.14,0-1.71,0-2.85c0-0.58-0.47-1.04-1.04-1.04s-1.04,0.47-1.04,1.04c0,1.14,0,1.71,0,2.85c-5.17,0-7.76,0-12.93,0
			c0-1.14,0-1.71,0-2.85c0-0.58-0.47-1.04-1.04-1.04c-0.58,0-1.04,0.47-1.04,1.04c0,1.14,0,1.71,0,2.85c-5.17,0-7.76,0-12.93,0
			c0-1.14,0-1.71,0-2.85c0-0.58-0.47-1.04-1.04-1.04c-0.58,0-1.04,0.47-1.04,1.04c0,1.14,0,1.71,0,2.85c-1.5,0-2.25,0-3.76,0
			c-4.09,0-7.43,3.33-7.43,7.43c0,15.52,0,31.04,0,46.55c0,4.1,3.33,7.43,7.43,7.43c15.9,0,31.8,0,47.7,0
			c3.42,5.46,9.53,9.15,16.39,9.1c10.57-0.07,19.25-8.75,19.32-19.32C186.19,142.64,183.39,137.21,179.07,133.67z M102.74,99.51
			c1.5,0,2.25,0,3.76,0c0,1.72,0,2.58,0,4.31c0,0.58,0.47,1.04,1.04,1.04c0.58,0,1.04-0.47,1.04-1.04c0-1.72,0-2.58,0-4.31
			c5.17,0,7.76,0,12.93,0c0,1.72,0,2.58,0,4.31c0,0.58,0.47,1.04,1.04,1.04c0.58,0,1.04-0.47,1.04-1.04c0-1.72,0-2.58,0-4.31
			c5.17,0,7.76,0,12.93,0c0,1.72,0,2.58,0,4.31c0,0.58,0.47,1.04,1.04,1.04s1.04-0.47,1.04-1.04c0-1.72,0-2.58,0-4.31
			c5.17,0,7.76,0,12.93,0c0,1.72,0,2.58,0,4.31c0,0.58,0.47,1.04,1.04,1.04c0.58,0,1.04-0.47,1.04-1.04c0-1.72,0-2.58,0-4.31
			c5.17,0,7.76,0,12.93,0c0,1.72,0,2.58,0,4.31c0,0.58,0.47,1.04,1.04,1.04c0.58,0,1.04-0.47,1.04-1.04c0-1.72,0-2.58,0-4.31
			c1.21,0,1.82,0,3.03,0c2.95,0,5.34,2.4,5.34,5.34c0,3.69,0,5.53,0,9.21c-26.53,0-53.07,0-79.6,0c0-3.69,0-5.53,0-9.21
			C97.4,101.9,99.79,99.51,102.74,99.51z M102.74,156.74c-2.95,0-5.34-2.4-5.34-5.34c0-11.75,0-23.5,0-35.26c26.53,0,53.07,0,79.6,0
			c0,6.42,0,9.62,0,16.04c-2.96-1.84-6.47-2.93-10.17-2.9c-10.57,0.07-19.25,8.75-19.32,19.32c-0.02,2.89,0.65,5.66,1.8,8.14
			C133.79,156.74,118.26,156.74,102.74,156.74z M166.83,165.84c-9.51,0-17.24-7.73-17.24-17.24c0-9.5,7.73-17.24,17.24-17.24
			c9.51,0,17.24,7.73,17.24,17.24C184.07,158.11,176.33,165.84,166.83,165.84z"/>
		<path d="M166.86,134.42c-0.58,0-1.04,0.47-1.04,1.04c0,5.03,0,7.55,0,12.58c-3.18,2.09-4.77,3.14-7.95,5.24
			c-0.48,0.32-0.61,0.96-0.3,1.44c0.2,0.3,0.53,0.47,0.87,0.47c0.2,0,0.4-0.06,0.57-0.17c3.37-2.22,5.05-3.33,8.42-5.55
			c0.29-0.19,0.47-0.52,0.47-0.87c0-5.26,0-7.89,0-13.15C167.9,134.89,167.43,134.42,166.86,134.42z"/>
		<path d="M112.16,129.9c3.01,0,4.52,0,7.54,0c0.58,0,1.04-0.47,1.04-1.04c0-3.01,0-4.52,0-7.54c0-0.58-0.47-1.04-1.04-1.04
			c-3.01,0-4.52,0-7.54,0c-0.58,0-1.04,0.47-1.04,1.04c0,3.01,0,4.52,0,7.54C111.11,129.43,111.58,129.9,112.16,129.9z
			 M113.2,122.36c2.18,0,3.27,0,5.45,0c0,2.18,0,3.27,0,5.45c-2.18,0-3.27,0-5.45,0C113.2,125.63,113.2,124.54,113.2,122.36z"/>
		<path d="M132.09,120.28c-3.01,0-4.52,0-7.54,0c-0.58,0-1.04,0.47-1.04,1.04c0,3.01,0,4.52,0,7.54c0,0.58,0.47,1.04,1.04,1.04
			c3.01,0,4.52,0,7.54,0c0.58,0,1.04-0.47,1.04-1.04c0-3.01,0-4.52,0-7.54C133.14,120.74,132.67,120.28,132.09,120.28z
			 M131.05,127.81c-2.18,0-3.27,0-5.45,0c0-2.18,0-3.27,0-5.45c2.18,0,3.27,0,5.45,0C131.05,124.54,131.05,125.63,131.05,127.81z"/>
		<path d="M144.49,120.28c-3.01,0-4.52,0-7.54,0c-0.58,0-1.04,0.47-1.04,1.04c0,3.01,0,4.52,0,7.54c0,0.58,0.47,1.04,1.04,1.04
			c3.01,0,4.52,0,7.54,0c0.58,0,1.04-0.47,1.04-1.04c0-3.01,0-4.52,0-7.54C145.54,120.74,145.07,120.28,144.49,120.28z
			 M143.45,127.81c-2.18,0-3.27,0-5.45,0c0-2.18,0-3.27,0-5.45c2.18,0,3.27,0,5.45,0C143.45,124.54,143.45,125.63,143.45,127.81z"/>
		<path d="M149.36,129.9c3.01,0,4.52,0,7.54,0c0.58,0,1.04-0.47,1.04-1.04c0-3.01,0-4.52,0-7.54c0-0.58-0.47-1.04-1.04-1.04
			c-3.01,0-4.52,0-7.54,0c-0.58,0-1.04,0.47-1.04,1.04c0,3.01,0,4.52,0,7.54C148.31,129.43,148.78,129.9,149.36,129.9z
			 M150.4,122.36c2.18,0,3.27,0,5.45,0c0,2.18,0,3.27,0,5.45c-2.18,0-3.27,0-5.45,0C150.4,125.63,150.4,124.54,150.4,122.36z"/>
		<path d="M119.78,132.43c-3.01,0-4.52,0-7.54,0c-0.58,0-1.04,0.47-1.04,1.04c0,3.01,0,4.52,0,7.54c0,0.58,0.47,1.04,1.04,1.04
			c3.01,0,4.52,0,7.54,0c0.58,0,1.04-0.47,1.04-1.04c0-3.01,0-4.52,0-7.54C120.82,132.9,120.35,132.43,119.78,132.43z
			 M118.73,139.97c-2.18,0-3.27,0-5.45,0c0-2.18,0-3.27,0-5.45c2.18,0,3.27,0,5.45,0C118.73,136.7,118.73,137.79,118.73,139.97z"/>
		<path d="M132.01,132.43c-3.01,0-4.52,0-7.54,0c-0.58,0-1.04,0.47-1.04,1.04c0,3.01,0,4.52,0,7.54c0,0.58,0.47,1.04,1.04,1.04
			c3.01,0,4.52,0,7.54,0c0.58,0,1.04-0.47,1.04-1.04c0-3.01,0-4.52,0-7.54C133.05,132.9,132.59,132.43,132.01,132.43z
			 M130.97,139.97c-2.18,0-3.27,0-5.45,0c0-2.18,0-3.27,0-5.45c2.18,0,3.27,0,5.45,0C130.97,136.7,130.97,137.79,130.97,139.97z"/>
		<path d="M144.25,132.43c-3.01,0-4.52,0-7.54,0c-0.58,0-1.04,0.47-1.04,1.04c0,3.01,0,4.52,0,7.54c0,0.58,0.47,1.04,1.04,1.04
			c3.01,0,4.52,0,7.54,0c0.58,0,1.04-0.47,1.04-1.04c0-3.01,0-4.52,0-7.54C145.29,132.9,144.83,132.43,144.25,132.43z
			 M143.21,139.97c-2.18,0-3.27,0-5.45,0c0-2.18,0-3.27,0-5.45c2.18,0,3.27,0,5.45,0C143.21,136.7,143.21,137.79,143.21,139.97z"/>
		<path d="M107.54,132.43c-3.01,0-4.52,0-7.54,0c-0.58,0-1.04,0.47-1.04,1.04c0,3.01,0,4.52,0,7.54c0,0.58,0.47,1.04,1.04,1.04
			c3.01,0,4.52,0,7.54,0c0.58,0,1.04-0.47,1.04-1.04c0-3.01,0-4.52,0-7.54C108.58,132.9,108.11,132.43,107.54,132.43z M106.5,139.97
			c-2.18,0-3.27,0-5.45,0c0-2.18,0-3.27,0-5.45c2.18,0,3.27,0,5.45,0C106.5,136.7,106.5,137.79,106.5,139.97z"/>
	</g>
</g>
<g>
	<path d="M160.81,115.68c-20.1,0-38.32,11.89-46.42,30.3c-0.36,0.82,0.01,1.78,0.83,2.14c0.82,0.36,1.78-0.01,2.14-0.83
		c7.58-17.23,24.63-28.36,43.44-28.36c26.16,0,47.43,21.28,47.43,47.43c0,10.35-3.27,20.18-9.46,28.43
		c-5.15,6.87-12.04,12.21-19.94,15.45c-5.72,2.36-11.78,3.55-18.03,3.55c-0.01,0-0.02,0-0.02,0c-0.01,0-0.02,0-0.02,0
		c-0.9,0-1.62,0.73-1.62,1.62v7.09l-12.98-11.71l12.98-11.71v7.7c0,0.9,0.73,1.62,1.62,1.62c0.01,0,0.01,0,0.02,0s0.01,0,0.02,0
		c23.19,0,42.05-18.86,42.05-42.05s-18.86-42.05-42.05-42.05c-9.13,0-17.82,2.88-25.12,8.32c-6.73,5.02-11.89,12.08-14.63,19.98
		l-11.34,0c-0.9,0-1.62,0.73-1.62,1.62c0,0.9,0.73,1.62,1.62,1.62c0,0,0,0,0,0l12.28,0c0.03,0,0.05-0.01,0.08-0.01
		c0.74,0.07,1.46-0.39,1.69-1.13c5.1-16.25,19.98-27.16,37.03-27.16c21.4,0,38.8,17.41,38.8,38.8c0,20.87-16.56,37.94-37.22,38.77
		v-9.7c0-0.64-0.38-1.22-0.96-1.48c-0.59-0.26-1.27-0.15-1.75,0.28l-17.03,15.36c-0.34,0.31-0.54,0.75-0.54,1.21
		c0,0.46,0.19,0.9,0.54,1.21l17.03,15.36c0.3,0.27,0.69,0.42,1.09,0.42c0.22,0,0.45-0.05,0.66-0.14c0.59-0.26,0.96-0.84,0.96-1.48
		v-9.14c6.12-0.19,12.06-1.45,17.69-3.77c8.44-3.47,15.81-9.17,21.3-16.51c6.61-8.82,10.11-19.32,10.11-30.38
		C211.49,138.42,188.75,115.68,160.81,115.68z"/>
	<path d="M133.93,205.46c-4.26-2.93-7.99-6.52-11.1-10.66c-1.78-2.37-3.34-4.93-4.65-7.58c-0.01-0.02-0.02-0.03-0.03-0.05
		c-0.04-0.07-0.08-0.14-0.12-0.2c-0.02-0.03-0.04-0.05-0.07-0.08c-0.05-0.05-0.09-0.11-0.14-0.15c-0.03-0.03-0.06-0.05-0.09-0.07
		c-0.05-0.04-0.11-0.08-0.16-0.12c-0.03-0.02-0.07-0.04-0.1-0.05c-0.06-0.03-0.12-0.06-0.18-0.08c-0.04-0.01-0.08-0.02-0.11-0.04
		c-0.06-0.02-0.12-0.03-0.18-0.04c-0.05-0.01-0.1-0.01-0.15-0.02c-0.04,0-0.08-0.01-0.12-0.01l-32.17,0c-0.9,0-1.62,0.73-1.62,1.62
		c0,0.9,0.73,1.62,1.62,1.62l31.17,0c1.3,2.51,2.81,4.93,4.51,7.19c3.32,4.42,7.31,8.25,11.86,11.39c0.28,0.19,0.6,0.29,0.92,0.29
		c0.52,0,1.02-0.25,1.34-0.7C134.86,206.97,134.67,205.96,133.93,205.46z"/>
	<path d="M139.22,198.62c-7.02-4.71-12.39-11.68-15.13-19.64c-0.24-0.69-0.9-1.12-1.6-1.09c-0.03,0-0.05-0.01-0.08-0.01l-26.08,0
		c-0.9,0-1.62,0.73-1.62,1.62c0,0.9,0.73,1.62,1.62,1.62l25.1,0c3.07,8.17,8.71,15.31,15.99,20.19c0.28,0.19,0.59,0.28,0.9,0.28
		c0.52,0,1.04-0.25,1.35-0.72C140.17,200.13,139.97,199.12,139.22,198.62z"/>
	<path d="M148.5,171.3c0.31,0.47,0.83,0.72,1.35,0.72c0.31,0,0.62-0.09,0.9-0.27l11.01-7.36c0.45-0.3,0.72-0.81,0.72-1.35
		l-0.01-21.37c0-0.9-0.73-1.62-1.62-1.62c0,0,0,0,0,0c-0.9,0-1.62,0.73-1.62,1.62l0.01,20.51l-10.29,6.88
		C148.2,169.54,148,170.55,148.5,171.3z"/>
	<path d="M104.04,171.08c0-0.9-0.73-1.62-1.62-1.62l-28.82,0c-0.9,0-1.62,0.73-1.62,1.62c0,0.9,0.73,1.62,1.62,1.62l28.82,0
		C103.31,172.7,104.04,171.98,104.04,171.08z"/>
	<path d="M107.29,171.08c0,0.9,0.73,1.62,1.62,1.62l15.12,0c0.9,0,1.62-0.73,1.62-1.62s-0.73-1.62-1.62-1.62l-15.13,0
		C108.01,169.46,107.29,170.19,107.29,171.08z"/>
	<path d="M84.15,181.23l6.2,0c0.9,0,1.62-0.73,1.62-1.62c0-0.9-0.73-1.62-1.62-1.62l-6.2,0c-0.9,0-1.62,0.73-1.62,1.62
		C82.53,180.5,83.26,181.23,84.15,181.23z"/>
	<path d="M74.82,164.18l6.2,0c0.9,0,1.62-0.73,1.62-1.62c0-0.9-0.73-1.62-1.62-1.62l-6.2,0c-0.9,0-1.62,0.73-1.62,1.62
		C73.19,163.46,73.92,164.18,74.82,164.18z"/>
	<path d="M113.78,161.03l-26.38,0c-0.9,0-1.62,0.73-1.62,1.62c0,0.9,0.73,1.62,1.62,1.62l26.38,0c0.9,0,1.62-0.73,1.62-1.62
		C115.4,161.76,114.68,161.03,113.78,161.03z"/>
	<path d="M78.88,155.86C78.88,155.86,78.88,155.86,78.88,155.86l25.68-0.01c0.9,0,1.62-0.73,1.62-1.62c0-0.9-0.73-1.62-1.62-1.62
		c0,0,0,0,0,0l-25.68,0.01c-0.9,0-1.62,0.73-1.62,1.62C77.25,155.14,77.98,155.86,78.88,155.86z"/>
</g>
<g>

</g>
</svg>
