<?xml version="1.0" encoding="utf-8"?>
<!-- Generator: Adobe Illustrator 26.3.1, SVG Export Plug-In . SVG Version: 6.00 Build 0)  -->
<svg version="1.1" id="Capa_1" xmlns="http://www.w3.org/2000/svg" xmlns:xlink="http://www.w3.org/1999/xlink" x="0px" y="0px"
	 viewBox="0 0 283.46 283.46" style="enable-background:new 0 0 283.46 283.46;" xml:space="preserve">
<style type="text/css">
	.st0{opacity:0.8;}
	.st1{display:none;}
	.st2{display:inline;}
	.st3{fill:#FFFFFF;}
</style>
<g class="st0">
	<g>
		<path d="M159.74,151.32c-0.62-0.62-1.62-0.62-2.24,0c-1.96,1.96-2.94,2.94-4.91,4.91c-0.62,0.62-0.62,1.62,0,2.24
			c5.65,5.65,8.47,8.47,14.12,14.12c0.31,0.31,0.72,0.46,1.12,0.46c0.41,0,0.81-0.15,1.12-0.46c11.35-11.35,17.02-17.02,28.37-28.37
			c0.62-0.62,0.62-1.62,0-2.24c-1.96-1.96-2.94-2.94-4.91-4.91c-0.62-0.62-1.62-0.62-2.24,0c-8.94,8.94-13.4,13.4-22.34,22.34
			C164.6,156.18,162.98,154.56,159.74,151.32z M191.3,140.44c1.07,1.07,1.6,1.6,2.66,2.66c-10.45,10.45-15.67,15.68-26.12,26.13
			c-4.75-4.75-7.13-7.13-11.88-11.88c1.07-1.07,1.6-1.6,2.66-2.66c3.24,3.24,4.86,4.86,8.1,8.1c0.62,0.62,1.62,0.62,2.24,0
			C177.89,153.85,182.36,149.38,191.3,140.44z"/>
		<path d="M146.79,156.49c0.88,0,1.6-0.73,1.59-1.59c-0.23-13.7,13.57-27.49,27.26-27.26c0.86,0.01,1.59-0.71,1.59-1.59
			c0-0.88-0.72-1.59-1.59-1.59c-16.65,0.12-30.32,13.79-30.44,30.44C145.2,155.78,145.92,156.49,146.79,156.49z"/>
		<path d="M149.42,162.39c-0.24-0.84-1.12-1.33-1.96-1.09c-0.84,0.24-1.33,1.12-1.09,1.96c1.52,5.32,4.47,10.14,8.55,13.93
			c0.31,0.28,0.69,0.43,1.08,0.43c0.43,0,0.85-0.17,1.16-0.51c0.6-0.64,0.56-1.65-0.08-2.24
			C153.42,171.48,150.78,167.16,149.42,162.39z"/>
		<path d="M108.94,168.58c4.97,0,9.01-4.04,9.01-9.01c0-4.97-4.04-9.01-9.01-9.01c-4.97,0-9.01,4.04-9.01,9.01
			C99.93,164.54,103.97,168.58,108.94,168.58z M108.94,153.73c3.22,0,5.84,2.62,5.84,5.84c0,3.22-2.62,5.84-5.84,5.84
			c-3.22,0-5.84-2.62-5.84-5.84C103.1,156.35,105.72,153.73,108.94,153.73z"/>
		<path d="M114.91,169.11c-4.78,0-7.17,0-11.94,0c-6,0-10.88,4.88-10.88,10.88c0,4.23,0,6.34,0,10.56c0,0.88,0.71,1.59,1.59,1.59
			c0.88,0,1.59-0.71,1.59-1.59c0-4.23,0-6.34,0-10.56c0-4.25,3.46-7.7,7.7-7.7c4.78,0,7.17,0,11.94,0c4.25,0,7.7,3.46,7.7,7.7
			c0,4.23,0,6.34,0,10.56c0,0.88,0.71,1.59,1.59,1.59c0.88,0,1.59-0.71,1.59-1.59c0-4.23,0-6.34,0-10.56
			C125.79,173.99,120.91,169.11,114.91,169.11z"/>
		<path d="M101.61,179.88c-0.88,0-1.59,0.71-1.59,1.59c0,3.64,0,5.46,0,9.09c0,0.88,0.71,1.59,1.59,1.59c0.88,0,1.59-0.71,1.59-1.59
			c0-3.64,0-5.46,0-9.09C103.2,180.59,102.49,179.88,101.61,179.88z"/>
		<path d="M116.27,179.88c-0.88,0-1.59,0.71-1.59,1.59c0,3.64,0,5.46,0,9.09c0,0.88,0.71,1.59,1.59,1.59c0.88,0,1.59-0.71,1.59-1.59
			c0-3.64,0-5.46,0-9.09C117.86,180.59,117.14,179.88,116.27,179.88z"/>
		<path d="M198.47,207.41c-1.52,0-2.28,0-3.79,0c0-8.86,0-13.28,0-22.14c10.09-6.35,16.9-17.67,16.81-30.36
			c-0.14-19.61-16.24-35.71-35.84-35.84c-11.39-0.08-21.7,5.42-28.27,13.83c-24.2,0-48.39,0-72.59,0c-0.88,0-1.59,0.71-1.59,1.59
			c0,24.31,0,48.62,0,72.93c-1.52,0-2.27,0-3.79,0c-3.39,0-6.16,2.73-6.2,6.1c-0.03,2.92,1.1,5.67,3.16,7.74
			c2.04,2.04,4.75,3.16,7.64,3.16c39.95,0,79.89,0,119.84,0c5.96,0,10.81-4.85,10.81-10.8c0-1.66-0.65-3.21-1.82-4.38
			C201.68,208.05,200.12,207.41,198.47,207.41z M175.64,122.24c17.74,0,32.67,14.93,32.67,32.67c0,17.74-14.93,32.67-32.67,32.67
			c-17.74,0-32.67-14.93-32.67-32.67C142.97,137.16,157.9,122.24,175.64,122.24z M185.74,189.3c0,4.94,0,7.41,0,12.34
			c-34.54,0-69.07,0-103.61,0c0-19.94,0-39.88,0-59.82c20.04,0,40.09,0,60.13,0c-1.59,4.05-2.5,8.5-2.47,13.08
			c0.14,19.61,16.24,35.71,35.84,35.84C179.12,190.78,182.54,190.24,185.74,189.3z M76.37,136.06c22.93,0,45.86,0,68.79,0
			c-0.52,0.84-1.01,1.7-1.46,2.59c-21.05,0-42.1,0-63.15,0c-0.88,0-1.59,0.71-1.59,1.59c0,21,0,42,0,62.99
			c0,0.88,0.71,1.59,1.59,1.59c35.59,0,71.19,0,106.78,0c0.88,0,1.59-0.71,1.59-1.59c0-6.01,0-9.02,0-15.03
			c0.88-0.35,1.74-0.74,2.59-1.16c0,8.14,0,12.22,0,20.36c-14.83,0-29.67,0-44.5,0c-1.53,0-2.8,1.19-2.92,2.69
			c-8.11,0-12.17,0-20.28,0c-0.11-1.32-1.09-2.39-2.36-2.63c-0.18-0.04-0.37-0.05-0.56-0.05c-14.84,0-29.67,0-44.51,0
			C76.37,183.63,76.37,159.84,76.37,136.06z M193.86,221.23c-39.95,0-79.89,0-119.84,0c-2.04,0-3.96-0.79-5.4-2.23
			c-1.46-1.46-2.26-3.41-2.24-5.47c0.01-1.63,1.37-2.95,3.02-2.95c2.15,0,3.23,0,5.38,0c15.29,0,30.57,0,45.86,0
			c0.12,1.5,1.39,2.69,2.92,2.69c8.3,0,12.44,0,20.74,0c1.53,0,2.8-1.19,2.92-2.69c15.29,0,30.57,0,45.86,0c2.15,0,3.23,0,5.38,0
			c0.81,0,1.57,0.31,2.14,0.88c0.57,0.57,0.89,1.33,0.89,2.14C201.49,217.81,198.07,221.23,193.86,221.23z"/>
	</g>
</g>

</svg>
