<?xml version="1.0" encoding="utf-8"?>
<!-- Generator: Adobe Illustrator 26.3.1, SVG Export Plug-In . SVG Version: 6.00 Build 0)  -->
<svg version="1.1" id="Capa_1" xmlns="http://www.w3.org/2000/svg" xmlns:xlink="http://www.w3.org/1999/xlink" x="0px" y="0px"
	 viewBox="0 0 283.46 283.46" style="enable-background:new 0 0 283.46 283.46;" xml:space="preserve">
<style type="text/css">
	.st0{opacity:0.8;}
	.st1{display:none;}
	.st2{display:inline;}
	.st3{fill:#FEC917;}
</style>
<g>
	<g>
		<g>
			<path d="M182.54,118.53c-2.81,0-4.21,0-7.01,0c0-0.56,0-0.83,0-1.39c0-2.16-1.76-3.92-3.92-3.92c-1.28,0-1.93,0-3.21,0
				c-2.16,0-3.92,1.76-3.92,3.92c0,0.56,0,0.83,0,1.39c-5.32,0-7.98,0-13.3,0c0-0.56,0-0.83,0-1.39c0-2.16-1.76-3.92-3.92-3.92
				c-1.28,0-1.93,0-3.21,0c-2.16,0-3.92,1.76-3.92,3.92c0,0.56,0,0.83,0,1.39c-5.32,0-7.98,0-13.3,0c0-0.56,0-0.83,0-1.39
				c0-2.16-1.76-3.92-3.92-3.92c-1.28,0-1.93,0-3.21,0c-2.16,0-3.92,1.76-3.92,3.92c0,0.56,0,0.83,0,1.39c-5.32,0-7.98,0-13.3,0
				c0-0.56,0-0.83,0-1.39c0-2.16-1.76-3.92-3.92-3.92c-1.28,0-1.93,0-3.21,0c-2.16,0-3.92,1.76-3.92,3.92c0,0.56,0,0.83,0,1.39
				c-2.81,0-4.21,0-7.01,0c-4.4,0-7.97,3.58-7.97,7.97c0,26.88,0,53.76,0,80.64c0,4.4,3.58,7.97,7.97,7.97c27.85,0,55.7,0,83.55,0
				l0,0c0.11,0,0.21-0.01,0.32-0.03c0.06-0.01,0.12-0.03,0.17-0.05c0.04-0.01,0.09-0.02,0.13-0.04c0.06-0.03,0.12-0.06,0.18-0.1
				c0.03-0.02,0.07-0.03,0.1-0.05c0.08-0.06,0.16-0.12,0.23-0.19c0,0,0.01-0.01,0.01-0.01c8.37-8.37,12.55-12.55,20.91-20.91
				c0.07-0.07,0.13-0.14,0.18-0.22c0.02-0.02,0.03-0.05,0.05-0.07c0.04-0.06,0.07-0.12,0.1-0.18c0.01-0.03,0.03-0.06,0.04-0.09
				c0.03-0.08,0.06-0.16,0.07-0.24c0-0.01,0.01-0.02,0.01-0.04c0.02-0.09,0.03-0.19,0.03-0.29c0-0.01,0-0.02,0-0.03
				c0-22.02,0-44.05,0-66.07C190.51,122.11,186.93,118.53,182.54,118.53z M167.72,117.14c0-0.37,0.3-0.67,0.67-0.67
				c1.28,0,1.93,0,3.21,0c0.37,0,0.67,0.3,0.67,0.67c0,3.41,0,5.11,0,8.52c0,0.37-0.3,0.67-0.67,0.67c-1.28,0-1.93,0-3.21,0
				c-0.37,0-0.67-0.3-0.67-0.67C167.72,122.25,167.72,120.55,167.72,117.14z M143.37,117.14c0-0.37,0.3-0.67,0.67-0.67
				c1.29,0,1.93,0,3.21,0c0.37,0,0.67,0.3,0.67,0.67c0,3.41,0,5.11,0,8.52c0,0.37-0.3,0.67-0.67,0.67c-1.28,0-1.93,0-3.21,0
				c-0.37,0-0.67-0.3-0.67-0.67C143.37,122.25,143.37,120.55,143.37,117.14z M119.02,117.14c0-0.37,0.3-0.67,0.67-0.67
				c1.28,0,1.93,0,3.21,0c0.37,0,0.67,0.3,0.67,0.67c0,3.41,0,5.11,0,8.52c0,0.37-0.3,0.67-0.67,0.67c-1.28,0-1.93,0-3.21,0
				c-0.37,0-0.67-0.3-0.67-0.67C119.02,122.25,119.02,120.55,119.02,117.14z M94.67,117.14c0-0.37,0.3-0.67,0.67-0.67
				c1.28,0,1.93,0,3.21,0c0.37,0,0.67,0.3,0.67,0.67c0,3.41,0,5.11,0,8.52c0,0.37-0.3,0.67-0.67,0.67c-1.28,0-1.93,0-3.21,0
				c-0.37,0-0.67-0.3-0.67-0.67C94.67,122.25,94.67,120.55,94.67,117.14z M84.42,121.77c2.81,0,4.21,0,7.01,0c0,1.55,0,2.33,0,3.89
				c0,2.16,1.76,3.92,3.92,3.92c1.28,0,1.93,0,3.21,0c2.16,0,3.92-1.76,3.92-3.92c0-1.55,0-2.33,0-3.89c5.32,0,7.98,0,13.3,0
				c0,1.55,0,2.33,0,3.89c0,2.16,1.76,3.92,3.92,3.92c1.28,0,1.93,0,3.21,0c2.16,0,3.92-1.76,3.92-3.92c0-1.55,0-2.33,0-3.89
				c5.32,0,7.98,0,13.3,0c0,1.55,0,2.33,0,3.89c0,2.16,1.76,3.92,3.92,3.92c1.28,0,1.93,0,3.21,0c2.16,0,3.92-1.76,3.92-3.92
				c0-1.55,0-2.33,0-3.89c5.32,0,7.98,0,13.3,0c0,1.55,0,2.33,0,3.89c0,2.16,1.76,3.92,3.92,3.92c1.28,0,1.93,0,3.21,0
				c2.16,0,3.92-1.76,3.92-3.92c0-1.55,0-2.33,0-3.89c2.81,0,4.21,0,7.01,0c2.61,0,4.73,2.12,4.73,4.73c0,4.99,0,7.49,0,12.48
				c-35.86,0-71.72,0-107.57,0c0-4.99,0-7.49,0-12.48C79.69,123.89,81.81,121.77,84.42,121.77z M79.69,207.14
				c0-21.64,0-43.28,0-64.91c35.86,0,71.72,0,107.57,0c0,16.24,0,32.48,0,48.73c-7.72,0-11.58,0-19.29,0c-0.9,0-1.62,0.73-1.62,1.62
				c0,7.72,0,11.58,0,19.29c-27.31,0-54.62,0-81.93,0C81.81,211.87,79.69,209.75,79.69,207.14z M169.59,209.57
				c0-6.15,0-9.23,0-15.38c6.15,0,9.23,0,15.38,0C178.82,200.35,175.74,203.42,169.59,209.57z"/>
			<path d="M105.17,164.51h11.61c0.89,0,1.61-0.72,1.61-1.61v-11.67c0-0.89-0.72-1.61-1.61-1.61h-11.61c-0.89,0-1.61,0.72-1.61,1.61
				v11.67C103.57,163.79,104.29,164.51,105.17,164.51z M106.78,152.84h8.4v8.44h-8.4V152.84z"/>
			<path d="M135.89,149.61h-11.61c-0.89,0-1.61,0.72-1.61,1.61v11.67c0,0.89,0.72,1.61,1.61,1.61h11.61c0.89,0,1.61-0.72,1.61-1.61
				v-11.67C137.49,150.33,136.77,149.61,135.89,149.61z M134.28,161.28h-8.4v-8.44h8.4V161.28z"/>
			<path d="M154.99,149.61h-11.61c-0.89,0-1.61,0.72-1.61,1.61v11.67c0,0.89,0.72,1.61,1.61,1.61h11.61c0.89,0,1.61-0.72,1.61-1.61
				v-11.67C156.6,150.33,155.88,149.61,154.99,149.61z M153.38,161.28h-8.4v-8.44h8.4V161.28z"/>
			<path d="M162.48,164.51h11.61c0.89,0,1.61-0.72,1.61-1.61v-11.67c0-0.89-0.72-1.61-1.61-1.61h-11.61c-0.89,0-1.61,0.72-1.61,1.61
				v11.67C160.88,163.79,161.59,164.51,162.48,164.51z M164.09,152.84h8.4v8.44h-8.4V152.84z"/>
			<path d="M116.91,168.43H105.3c-0.89,0-1.61,0.72-1.61,1.61v11.67c0,0.89,0.72,1.61,1.61,1.61h11.61c0.89,0,1.61-0.72,1.61-1.61
				v-11.67C118.51,169.16,117.8,168.43,116.91,168.43z M115.3,180.1h-8.4v-8.44h8.4V180.1z"/>
			<path d="M135.76,168.43h-11.61c-0.89,0-1.61,0.72-1.61,1.61v11.67c0,0.89,0.72,1.61,1.61,1.61h11.61c0.89,0,1.61-0.72,1.61-1.61
				v-11.67C137.37,169.16,136.65,168.43,135.76,168.43z M134.16,180.1h-8.4v-8.44h8.4V180.1z"/>
			<path d="M98.06,168.43H86.44c-0.89,0-1.61,0.72-1.61,1.61v11.67c0,0.89,0.72,1.61,1.61,1.61h11.61c0.89,0,1.61-0.72,1.61-1.61
				v-11.67C99.66,169.16,98.94,168.43,98.06,168.43z M96.45,180.1h-8.4v-8.44h8.4V180.1z"/>
		</g>
	</g>
	<g>
		<path class="st3" d="M204.39,199.64c-3.01-6.7-7.51-11.75-7.7-11.96c-0.02-0.02-0.04-0.04-0.06-0.06l-11.91-11.91
			c-1.24-1.24-2.88-1.92-4.63-1.92c-1.75,0-3.39,0.68-4.63,1.92c-0.99,0.99-1.61,2.23-1.83,3.59c-0.9-0.45-1.89-0.69-2.92-0.69
			c-1.75,0-3.39,0.68-4.63,1.92c-1.01,1.01-1.61,2.27-1.83,3.59c-0.9-0.45-1.89-0.69-2.92-0.69c-1.75,0-3.39,0.68-4.63,1.92
			c-0.91,0.91-1.48,2.01-1.75,3.18l-6.22-6.22c-1.24-1.24-2.88-1.92-4.63-1.92c-1.75,0-3.39,0.68-4.63,1.92
			c-1.24,1.24-1.92,2.88-1.92,4.63c0,1.75,0.68,3.39,1.92,4.63l19.43,19.43h-5.94c-1.85,0-3.62,0.79-4.86,2.17
			c-1.24,1.38-1.84,3.22-1.64,5.06c0.32,3.07,2.79,5.52,5.86,5.83c8.42,0.83,14.64,1.86,17.07,2.83l0.49,0.2
			c2.76,1.11,7.86,3.17,13.91,3.17c5.7,0,12.24-1.83,18.42-8.02C207.77,216.66,208.52,208.85,204.39,199.64z"/>
		<g>
			<path d="M204.39,199.64c-3.01-6.7-7.51-11.75-7.7-11.96c-0.02-0.02-0.04-0.04-0.06-0.06l-11.91-11.91
				c-1.24-1.24-2.88-1.92-4.63-1.92s-3.39,0.68-4.63,1.92c-0.99,0.99-1.61,2.23-1.83,3.59c-0.9-0.45-1.89-0.69-2.92-0.69
				c-1.75,0-3.39,0.68-4.63,1.92c-1.01,1.01-1.61,2.27-1.83,3.59c-0.9-0.45-1.89-0.69-2.92-0.69c-1.75,0-3.39,0.68-4.63,1.92
				c-0.91,0.91-1.48,2.01-1.75,3.18l-6.22-6.22c-1.24-1.24-2.88-1.92-4.63-1.92c-1.75,0-3.39,0.68-4.63,1.92
				c-1.24,1.24-1.92,2.88-1.92,4.63c0,1.75,0.68,3.39,1.92,4.63l19.43,19.43h-5.94c-1.85,0-3.62,0.79-4.86,2.17
				c-1.24,1.38-1.84,3.22-1.64,5.06c0.32,3.07,2.79,5.52,5.86,5.83c8.42,0.83,14.64,1.86,17.07,2.83l0.49,0.2
				c2.76,1.11,7.86,3.17,13.91,3.17c5.7,0,12.24-1.83,18.42-8.02C207.77,216.66,208.52,208.85,204.39,199.64z M200.03,220.06
				c-11.32,11.32-23.72,6.31-29.02,4.17l-0.5-0.2c-3.49-1.39-11.66-2.42-17.91-3.03c-1.63-0.16-2.94-1.46-3.11-3.1
				c-0.1-0.99,0.21-1.95,0.87-2.69c0.67-0.74,1.59-1.15,2.58-1.15h9.64c0.62,0,1.18-0.37,1.42-0.95c0.24-0.57,0.11-1.23-0.33-1.67
				l-22.05-22.05c-0.66-0.66-1.02-1.53-1.02-2.46c0-0.93,0.36-1.81,1.02-2.46c0.66-0.66,1.53-1.02,2.46-1.02
				c0.93,0,1.81,0.36,2.46,1.02l13.62,13.62l4.38,4.38c0.3,0.3,0.69,0.45,1.08,0.45c0.39,0,0.78-0.15,1.08-0.45
				c0.6-0.6,0.6-1.57,0-2.17l-0.51-0.51c0,0,0,0,0,0l-7.35-7.35c-1.36-1.36-1.36-3.57,0-4.93c0.66-0.66,1.53-1.02,2.46-1.02
				s1.81,0.36,2.46,1.02c0.28,0.28,0.63,0.42,1,0.44c0.31,0.67,0.74,1.29,1.29,1.84l7.35,7.35c0.3,0.3,0.69,0.45,1.08,0.45
				s0.78-0.15,1.08-0.45c0.6-0.6,0.6-1.57,0-2.17l-7.35-7.35c-1.36-1.36-1.36-3.57,0-4.93c1.36-1.36,3.57-1.36,4.93,0
				c0.28,0.28,0.63,0.42,0.99,0.44c0.32,0.67,0.75,1.3,1.29,1.84l7.1,7.1c0.6,0.6,1.57,0.6,2.17,0c0.6-0.6,0.6-1.57,0-2.17l-7.1-7.1
				c-0.66-0.66-1.02-1.53-1.02-2.46c0-0.93,0.36-1.81,1.02-2.46c0.66-0.66,1.53-1.02,2.46-1.02c0.93,0,1.81,0.36,2.46,1.02
				l11.88,11.88C195.15,190.57,211.08,209.01,200.03,220.06z"/>
		</g>
	</g>
</g>
<g>
	<path d="M67.49,42.45h3.67l3.1,17.11h-3.7l-0.53-3.46h-6.36l-1.78,3.46h-3.65L67.49,42.45z M69.6,53.15l-1.01-6.7h-0.1l-3.38,6.7
		H69.6z"/>
	<path d="M75.84,54.95c0-0.38,0.05-0.77,0.12-1.13c0.31-1.8,0.62-3.58,0.94-5.38c0.72-3.98,4.18-6.29,8.09-6.29
		c2.78,0,5.81,1.2,5.81,4.44c0,0.53-0.1,1.06-0.19,1.56h-3.41c0.05-0.26,0.1-0.53,0.1-0.77c0-1.61-1.42-2.18-2.78-2.18
		c-1.92,0-3.55,1.13-3.91,3.1c-0.34,1.8-0.65,3.58-0.96,5.38c-0.02,0.22-0.05,0.41-0.05,0.6c0,1.7,1.42,2.5,2.95,2.5
		c1.92,0,3.29-0.98,3.65-2.88l0.07-0.43h-3.94l0.5-2.98h7.42c-0.19,1.25-0.43,2.5-0.65,3.74c-0.67,3.7-4.1,5.62-7.63,5.62
		C78.91,59.85,75.84,58.43,75.84,54.95z"/>
	<path d="M94.25,42.45h12.17l-0.53,3.07h-8.52l-0.67,3.82h7.34l-0.53,3.07h-7.37l-0.72,4.08h8.59l-0.55,3.07H91.22L94.25,42.45z"/>
	<path d="M109.18,42.45h3.43l5.18,10.99h0.05l1.92-10.99h3.43l-3.02,17.11h-3.34l-5.21-11.16h-0.07l-1.94,11.16h-3.46L109.18,42.45z
		"/>
	<path d="M126.22,42.45h6.87c3.07,0,5.86,1.66,5.86,5.04c0,0.38-0.05,0.79-0.12,1.18c-0.26,1.58-0.6,3.48-0.89,5.06
		c-0.7,3.86-3.98,5.83-7.82,5.83h-6.91L126.22,42.45z M130.47,56.49c1.9,0,3.48-0.98,3.82-2.93c0.22-1.22,0.67-3.77,0.89-5.02
		c0.02-0.17,0.07-0.36,0.07-0.55c0-1.68-1.46-2.47-2.98-2.47h-2.93l-1.94,10.97H130.47z"/>
	<path d="M146.98,42.45h3.67l3.1,17.11h-3.7l-0.53-3.46h-6.36l-1.78,3.46h-3.65L146.98,42.45z M149.09,53.15l-1.01-6.7h-0.1
		l-3.38,6.7H149.09z"/>
	<path d="M158.4,42.45h6.72c2.83,0,5.45,1.34,5.45,4.82c0,2.74-1.78,4.9-4.34,5.5l2.71,6.79H165l-2.28-6.24h-2.57l-1.1,6.24h-3.67
		L158.4,42.45z M163.61,50.44c1.87,0,3.34-0.89,3.34-2.86c0-1.7-1.18-2.18-2.47-2.18h-2.93l-0.89,5.04H163.61z"/>
	<path d="M176.09,54.95c0-0.38,0.05-0.74,0.12-1.13c0.22-1.37,0.67-4.01,0.94-5.38c0.7-3.98,4.18-6.29,8.09-6.29
		c2.86,0,5.78,1.34,5.78,4.58c0,0.55-0.07,1.13-0.19,1.68h-3.43c0.05-0.29,0.1-0.58,0.1-0.84c0-1.58-1.34-2.33-2.76-2.33
		c-1.92,0-3.55,1.13-3.91,3.1c-0.24,1.37-0.72,3.96-0.94,5.33c-0.02,0.19-0.05,0.41-0.05,0.6c0,1.7,1.44,2.47,2.95,2.47
		c1.85,0,3.29-1.1,3.65-2.9c0-0.05,0.05-0.22,0.05-0.26h3.43l-0.12,0.65c-0.7,3.7-4.03,5.62-7.58,5.62
		C179.14,59.85,176.09,58.43,176.09,54.95z"/>
	<path d="M194.38,42.45h3.67l-3.02,17.11h-3.67L194.38,42.45z"/>
	<path d="M204.38,45.47h-4.87l0.53-3.02h13.42l-0.53,3.02h-4.9l-2.47,14.09h-3.65L204.38,45.47z"/>
	<path d="M218.45,42.45h3.67l3.1,17.11h-3.7l-0.53-3.46h-6.36l-1.78,3.46h-3.65L218.45,42.45z M220.56,53.15l-1.01-6.7h-0.1
		l-3.38,6.7H220.56z"/>
</g>
</svg>
