<?xml version="1.0" encoding="utf-8"?>
<!-- Generator: Adobe Illustrator 26.3.1, SVG Export Plug-In . SVG Version: 6.00 Build 0)  -->
<svg version="1.1" id="Capa_1" xmlns="http://www.w3.org/2000/svg" xmlns:xlink="http://www.w3.org/1999/xlink" x="0px" y="0px"
	 viewBox="0 0 283.46 283.46" style="enable-background:new 0 0 283.46 283.46;" xml:space="preserve">
<style type="text/css">
	.st0{opacity:0.8;}
	.st1{display:none;}
	.st2{display:inline;}
	.st3{fill:#FEC917;}
</style>
<g>
	<g>
		<g>
			<path d="M186.85,115.03c-2.92,0-4.38,0-7.3,0c0-0.58,0-0.87,0-1.45c0-2.25-1.83-4.08-4.08-4.08c-1.34,0-2.01,0-3.34,0
				c-2.25,0-4.08,1.83-4.08,4.08c0,0.58,0,0.87,0,1.45c-5.54,0-8.3,0-13.84,0c0-0.58,0-0.87,0-1.45c0-2.25-1.83-4.08-4.08-4.08
				c-1.34,0-2.01,0-3.34,0c-2.25,0-4.08,1.83-4.08,4.08c0,0.58,0,0.87,0,1.45c-5.54,0-8.31,0-13.84,0c0-0.58,0-0.87,0-1.45
				c0-2.25-1.83-4.08-4.08-4.08c-1.34,0-2.01,0-3.34,0c-2.25,0-4.08,1.83-4.08,4.08c0,0.58,0,0.87,0,1.45c-5.54,0-8.31,0-13.84,0
				c0-0.58,0-0.87,0-1.45c0-2.25-1.83-4.08-4.08-4.08c-1.34,0-2.01,0-3.34,0c-2.25,0-4.08,1.83-4.08,4.08c0,0.58,0,0.87,0,1.45
				c-2.92,0-4.38,0-7.3,0c-4.57,0-8.3,3.72-8.3,8.3c0,27.97,0,55.95,0,83.92c0,4.57,3.72,8.3,8.3,8.3c28.98,0,57.97,0,86.95,0l0,0
				c0.11,0,0.22-0.01,0.33-0.03c0.06-0.01,0.12-0.03,0.18-0.05c0.05-0.01,0.09-0.02,0.14-0.04c0.07-0.03,0.13-0.06,0.19-0.1
				c0.03-0.02,0.07-0.03,0.1-0.06c0.09-0.06,0.17-0.12,0.24-0.2c0,0,0.01-0.01,0.01-0.01c8.71-8.71,13.06-13.06,21.77-21.77
				c0.07-0.07,0.13-0.15,0.19-0.23c0.02-0.02,0.03-0.05,0.05-0.07c0.04-0.06,0.07-0.12,0.1-0.19c0.01-0.03,0.03-0.06,0.04-0.09
				c0.03-0.08,0.06-0.16,0.08-0.25c0-0.01,0.01-0.03,0.01-0.04c0.02-0.1,0.03-0.2,0.03-0.3c0-0.01,0-0.02,0-0.03
				c0-22.92,0-45.84,0-68.76C195.15,118.75,191.43,115.03,186.85,115.03z M171.43,113.59c0-0.39,0.31-0.7,0.7-0.7
				c1.34,0,2.01,0,3.34,0c0.39,0,0.7,0.31,0.7,0.7c0,3.55,0,5.32,0,8.87c0,0.39-0.31,0.7-0.7,0.7c-1.34,0-2.01,0-3.34,0
				c-0.39,0-0.7-0.31-0.7-0.7C171.43,118.91,171.43,117.13,171.43,113.59z M146.1,113.59c0-0.39,0.31-0.7,0.7-0.7
				c1.34,0,2.01,0,3.34,0c0.39,0,0.7,0.31,0.7,0.7c0,3.55,0,5.32,0,8.87c0,0.39-0.31,0.7-0.7,0.7c-1.34,0-2.01,0-3.34,0
				c-0.39,0-0.7-0.31-0.7-0.7C146.1,118.91,146.1,117.13,146.1,113.59z M120.76,113.59c0-0.39,0.31-0.7,0.7-0.7
				c1.34,0,2.01,0,3.34,0c0.39,0,0.7,0.31,0.7,0.7c0,3.55,0,5.32,0,8.87c0,0.39-0.31,0.7-0.7,0.7c-1.34,0-2.01,0-3.34,0
				c-0.39,0-0.7-0.31-0.7-0.7C120.76,118.91,120.76,117.13,120.76,113.59z M95.42,113.59c0-0.39,0.31-0.7,0.7-0.7
				c1.34,0,2.01,0,3.34,0c0.39,0,0.7,0.31,0.7,0.7c0,3.55,0,5.32,0,8.87c0,0.39-0.31,0.7-0.7,0.7c-1.34,0-2.01,0-3.34,0
				c-0.39,0-0.7-0.31-0.7-0.7C95.42,118.91,95.42,117.13,95.42,113.59z M84.74,118.41c2.92,0,4.38,0,7.3,0c0,1.62,0,2.43,0,4.04
				c0,2.25,1.83,4.08,4.08,4.08c1.34,0,2.01,0,3.34,0c2.25,0,4.08-1.83,4.08-4.08c0-1.62,0-2.43,0-4.04c5.54,0,8.31,0,13.84,0
				c0,1.62,0,2.43,0,4.04c0,2.25,1.83,4.08,4.08,4.08c1.34,0,2.01,0,3.34,0c2.25,0,4.08-1.83,4.08-4.08c0-1.62,0-2.43,0-4.04
				c5.54,0,8.3,0,13.84,0c0,1.62,0,2.43,0,4.04c0,2.25,1.83,4.08,4.08,4.08c1.34,0,2.01,0,3.34,0c2.25,0,4.08-1.83,4.08-4.08
				c0-1.62,0-2.43,0-4.04c5.54,0,8.3,0,13.84,0c0,1.62,0,2.43,0,4.04c0,2.25,1.83,4.08,4.08,4.08c1.34,0,2.01,0,3.34,0
				c2.25,0,4.08-1.83,4.08-4.08c0-1.62,0-2.43,0-4.04c2.92,0,4.38,0,7.3,0c2.71,0,4.92,2.21,4.92,4.92c0,5.2,0,7.79,0,12.99
				c-37.32,0-74.63,0-111.95,0c0-5.2,0-7.79,0-12.99C79.82,120.62,82.03,118.41,84.74,118.41z M79.82,207.25
				c0-22.52,0-45.04,0-67.55c37.32,0,74.63,0,111.95,0c0,16.9,0,33.81,0,50.71c-8.03,0-12.05,0-20.08,0c-0.93,0-1.69,0.76-1.69,1.69
				c0,8.03,0,12.05,0,20.08c-28.42,0-56.84,0-85.27,0C82.03,212.17,79.82,209.96,79.82,207.25z M173.38,209.78c0-6.4,0-9.6,0-16
				c6.4,0,9.6,0,16,0C182.99,200.18,179.78,203.38,173.38,209.78z"/>
			<path d="M106.34,162.88h12.08c0.92,0,1.67-0.75,1.67-1.68v-12.15c0-0.93-0.75-1.68-1.67-1.68h-12.08c-0.92,0-1.67,0.75-1.67,1.68
				v12.15C104.67,162.13,105.42,162.88,106.34,162.88z M108.01,150.74h8.74v8.79h-8.74V150.74z"/>
			<path d="M138.31,147.38h-12.08c-0.92,0-1.67,0.75-1.67,1.68v12.15c0,0.93,0.75,1.68,1.67,1.68h12.08c0.92,0,1.67-0.75,1.67-1.68
				v-12.15C139.98,148.13,139.23,147.38,138.31,147.38z M136.63,159.52h-8.74v-8.79h8.74V159.52z"/>
			<path d="M158.19,147.38H146.1c-0.92,0-1.67,0.75-1.67,1.68v12.15c0,0.93,0.75,1.68,1.67,1.68h12.08c0.92,0,1.67-0.75,1.67-1.68
				v-12.15C159.86,148.13,159.11,147.38,158.19,147.38z M156.51,159.52h-8.74v-8.79h8.74V159.52z"/>
			<path d="M165.98,162.88h12.08c0.92,0,1.67-0.75,1.67-1.68v-12.15c0-0.93-0.75-1.68-1.67-1.68h-12.08c-0.92,0-1.67,0.75-1.67,1.68
				v12.15C164.31,162.13,165.06,162.88,165.98,162.88z M167.65,150.74h8.74v8.79h-8.74V150.74z"/>
			<path d="M118.56,166.97h-12.08c-0.92,0-1.67,0.75-1.67,1.68v12.15c0,0.93,0.75,1.68,1.67,1.68h12.08c0.92,0,1.67-0.75,1.67-1.68
				v-12.15C120.23,167.72,119.48,166.97,118.56,166.97z M116.88,179.11h-8.74v-8.79h8.74V179.11z"/>
			<path d="M138.18,166.97h-12.08c-0.92,0-1.67,0.75-1.67,1.68v12.15c0,0.93,0.75,1.68,1.67,1.68h12.08c0.92,0,1.67-0.75,1.67-1.68
				v-12.15C139.85,167.72,139.1,166.97,138.18,166.97z M136.5,179.11h-8.74v-8.79h8.74V179.11z"/>
			<path d="M98.93,166.97H86.85c-0.92,0-1.67,0.75-1.67,1.68v12.15c0,0.93,0.75,1.68,1.67,1.68h12.08c0.92,0,1.67-0.75,1.67-1.68
				v-12.15C100.61,167.72,99.86,166.97,98.93,166.97z M97.26,179.11h-8.74v-8.79h8.74V179.11z"/>
		</g>
	</g>
	<g>
		<path class="st3" d="M200.25,179.69c-3.68-4.91-8.61-8.73-14.26-11.05c-4.09-1.69-8.43-2.54-12.9-2.54
			c-4.47,0-8.81,0.86-12.9,2.54c-5.65,2.32-10.58,6.14-14.26,11.05c-4.43,5.9-6.77,12.94-6.77,20.34
			c0,18.71,15.22,33.93,33.93,33.93c18.71,0,33.93-15.22,33.93-33.93C207.02,192.62,204.68,185.59,200.25,179.69z"/>
		<g>
			<path d="M200.25,179.69c-3.68-4.91-8.61-8.73-14.26-11.05c-4.09-1.69-8.43-2.54-12.9-2.54c-4.47,0-8.81,0.86-12.9,2.54
				c-5.65,2.32-10.58,6.14-14.26,11.05c-4.43,5.9-6.77,12.94-6.77,20.34c0,18.71,15.22,33.93,33.93,33.93
				c18.71,0,33.93-15.22,33.93-33.93C207.02,192.62,204.68,185.59,200.25,179.69z M173.09,230.74c-16.94,0-30.72-13.78-30.72-30.72
				c0-6.7,2.12-13.07,6.13-18.41c3.33-4.45,7.8-7.91,12.91-10.01c3.68-1.52,7.58-2.29,11.6-2.3c-0.49,0.05-0.87,0.46-0.87,0.96v5.17
				c0,0.54,0.44,0.97,0.97,0.97c0.54,0,0.97-0.44,0.97-0.97v-5.17c0-0.5-0.38-0.91-0.86-0.96c4,0.02,7.88,0.79,11.54,2.3
				c1.22,0.5,2.41,1.09,3.55,1.74c-0.44-0.17-0.95-0.01-1.2,0.42l-2.58,4.47c-0.27,0.47-0.11,1.06,0.36,1.33
				c0.15,0.09,0.32,0.13,0.49,0.13c0.34,0,0.66-0.17,0.84-0.49l2.58-4.47c0.25-0.42,0.13-0.95-0.24-1.25
				c3.53,2.06,6.63,4.82,9.11,8.13c0.73,0.97,1.39,1.97,1.99,3.01c-0.27-0.45-0.86-0.61-1.32-0.34l-4.47,2.58
				c-0.47,0.27-0.63,0.86-0.36,1.33c0.18,0.31,0.51,0.49,0.84,0.49c0.17,0,0.33-0.04,0.49-0.13l4.47-2.58
				c0.46-0.27,0.62-0.86,0.36-1.32c2.7,4.65,4.12,9.9,4.12,15.38C203.8,216.96,190.02,230.74,173.09,230.74z"/>
			<path d="M173.12,224.45c-0.56,0-1.01,0.45-1.01,1.01v5.37c0,0.56,0.45,1.01,1.01,1.01c0.56,0,1.01-0.45,1.01-1.01v-5.37
				C174.13,224.9,173.67,224.45,173.12,224.45z"/>
			<path d="M148.64,199.97c0-0.56-0.45-1.01-1.01-1.01h-5.37c-0.56,0-1.01,0.45-1.01,1.01c0,0.56,0.45,1.01,1.01,1.01h5.37
				C148.19,200.98,148.64,200.53,148.64,199.97z"/>
			<path d="M203.97,198.96h-5.37c-0.56,0-1.01,0.45-1.01,1.01c0,0.56,0.45,1.01,1.01,1.01h5.37c0.56,0,1.01-0.45,1.01-1.01
				C204.98,199.41,204.53,198.96,203.97,198.96z"/>
			<path d="M159.5,178.4c0.19,0.32,0.53,0.51,0.88,0.51c0.17,0,0.35-0.04,0.5-0.14c0.48-0.28,0.65-0.9,0.37-1.38l-2.68-4.65
				c-0.28-0.48-0.9-0.65-1.38-0.37c-0.48,0.28-0.65,0.9-0.37,1.38L159.5,178.4z"/>
			<path d="M186.73,221.54c-0.28-0.48-0.9-0.65-1.38-0.37c-0.48,0.28-0.65,0.9-0.37,1.38l2.68,4.65c0.19,0.32,0.53,0.51,0.88,0.51
				c0.17,0,0.35-0.04,0.5-0.14c0.48-0.28,0.65-0.9,0.37-1.38L186.73,221.54z"/>
			<path d="M150.54,211.84l-4.65,2.68c-0.48,0.28-0.65,0.9-0.37,1.38c0.19,0.32,0.53,0.51,0.88,0.51c0.17,0,0.35-0.04,0.5-0.14
				l4.65-2.68c0.48-0.28,0.65-0.9,0.37-1.38C151.64,211.73,151.02,211.56,150.54,211.84z"/>
			<path d="M151.55,186.35l-4.65-2.68c-0.48-0.28-1.1-0.11-1.38,0.37c-0.28,0.48-0.11,1.1,0.37,1.38l4.65,2.68
				c0.16,0.09,0.33,0.14,0.5,0.14c0.35,0,0.69-0.18,0.88-0.51C152.2,187.25,152.03,186.63,151.55,186.35z"/>
			<path d="M200.34,214.52l-4.65-2.68c-0.48-0.28-1.1-0.11-1.38,0.37c-0.28,0.48-0.11,1.1,0.37,1.38l4.65,2.68
				c0.16,0.09,0.33,0.14,0.5,0.14c0.35,0,0.69-0.18,0.88-0.51C200.99,215.42,200.82,214.8,200.34,214.52z"/>
			<path d="M160.88,221.17c-0.48-0.28-1.1-0.11-1.38,0.37l-2.68,4.65c-0.28,0.48-0.11,1.1,0.37,1.38c0.16,0.09,0.33,0.14,0.5,0.14
				c0.35,0,0.69-0.18,0.88-0.51l2.68-4.65C161.53,222.07,161.36,221.45,160.88,221.17z"/>
			<path d="M184.27,181.92c-0.48-0.29-1.1-0.15-1.39,0.33l-10.09,16.34L161,191.52c-0.48-0.29-1.1-0.13-1.39,0.35
				c-0.29,0.48-0.13,1.1,0.35,1.39l12.64,7.58c0.16,0.1,0.34,0.14,0.52,0.14c0.34,0,0.67-0.17,0.86-0.48l10.62-17.19
				C184.89,182.83,184.74,182.21,184.27,181.92z"/>
		</g>
	</g>
</g>
<g>
	<path d="M35.45,54.95c0-0.38,0.05-0.74,0.12-1.13c0.22-1.37,0.67-4.01,0.94-5.38c0.7-3.98,4.18-6.29,8.09-6.29
		c2.86,0,5.78,1.34,5.78,4.58c0,0.55-0.07,1.13-0.19,1.68h-3.43c0.05-0.29,0.1-0.58,0.1-0.84c0-1.58-1.34-2.33-2.76-2.33
		c-1.92,0-3.55,1.13-3.91,3.1c-0.24,1.37-0.72,3.96-0.94,5.33c-0.02,0.19-0.05,0.41-0.05,0.6c0,1.7,1.44,2.47,2.95,2.47
		c1.85,0,3.29-1.1,3.65-2.9c0-0.05,0.05-0.22,0.05-0.26h3.43l-0.12,0.65c-0.7,3.7-4.03,5.62-7.58,5.62
		C38.5,59.85,35.45,58.43,35.45,54.95z"/>
	<path d="M53.74,42.45h3.67l-3.02,17.11h-3.67L53.74,42.45z"/>
	<path d="M63.74,45.47h-4.87l0.53-3.02h13.42l-0.53,3.02h-4.9l-2.47,14.09h-3.65L63.74,45.47z"/>
	<path d="M77.81,42.45h3.67l3.1,17.11h-3.7l-0.53-3.46h-6.36l-1.78,3.46h-3.65L77.81,42.45z M79.92,53.15l-1.01-6.7h-0.1l-3.38,6.7
		H79.92z"/>
	<path d="M85.58,56.3l2.81-1.82c0.82,1.61,2.64,2.38,4.3,2.38c1.22,0,3.05-0.38,3.05-1.87c0-1.27-1.39-1.9-2.93-2.5
		c-2.3-0.86-4.9-1.87-4.9-4.82c0-3.55,2.83-5.5,6.46-5.5c2.42,0,4.99,0.72,6.24,3.22l-2.62,1.58c-0.72-1.18-2.16-1.85-3.53-1.85
		c-1.34,0-2.93,0.43-2.93,1.92c0,1.37,2.09,1.85,3.84,2.62c1.85,0.77,4.03,2.04,4.03,4.56c0,3.98-3.48,5.62-6.86,5.62
		C89.78,59.83,87.1,59.03,85.58,56.3z"/>
	<path d="M113.54,42.45h3.67l3.1,17.11h-3.7l-0.53-3.46h-6.36l-1.78,3.46h-3.65L113.54,42.45z M115.66,53.15l-1.01-6.7h-0.1
		l-3.38,6.7H115.66z"/>
	<path d="M121.9,54.95c0-0.38,0.05-0.77,0.12-1.13c0.31-1.8,0.62-3.58,0.94-5.38c0.72-3.98,4.18-6.29,8.09-6.29
		c2.78,0,5.81,1.2,5.81,4.44c0,0.53-0.1,1.06-0.19,1.56h-3.41c0.05-0.26,0.1-0.53,0.1-0.77c0-1.61-1.42-2.18-2.78-2.18
		c-1.92,0-3.55,1.13-3.91,3.1c-0.34,1.8-0.65,3.58-0.96,5.38c-0.02,0.22-0.05,0.41-0.05,0.6c0,1.7,1.42,2.5,2.95,2.5
		c1.92,0,3.29-0.98,3.65-2.88l0.07-0.43h-3.94l0.5-2.98h7.42c-0.19,1.25-0.43,2.5-0.65,3.74c-0.67,3.7-4.1,5.62-7.63,5.62
		C124.97,59.85,121.9,58.43,121.9,54.95z"/>
	<path d="M140.3,42.45h12.17l-0.53,3.07h-8.52l-0.67,3.82h7.34l-0.53,3.07h-7.37l-0.72,4.08h8.59l-0.55,3.07h-12.24L140.3,42.45z"/>
	<path d="M155.23,42.45h3.43l5.18,10.99h0.05l1.92-10.99h3.43l-3.02,17.11h-3.34l-5.21-11.16h-0.07l-1.94,11.16h-3.46L155.23,42.45z
		"/>
	<path d="M172.27,42.45h6.87c3.07,0,5.86,1.66,5.86,5.04c0,0.38-0.05,0.79-0.12,1.18c-0.26,1.58-0.6,3.48-0.89,5.06
		c-0.7,3.86-3.98,5.83-7.82,5.83h-6.91L172.27,42.45z M176.52,56.49c1.9,0,3.48-0.98,3.82-2.93c0.22-1.22,0.67-3.77,0.89-5.02
		c0.02-0.17,0.07-0.36,0.07-0.55c0-1.68-1.46-2.47-2.98-2.47h-2.93l-1.94,10.97H176.52z"/>
	<path d="M193.03,42.45h3.67l3.1,17.11h-3.7l-0.53-3.46h-6.36l-1.78,3.46h-3.65L193.03,42.45z M195.14,53.15l-1.01-6.7h-0.1
		l-3.38,6.7H195.14z"/>
	<path d="M204.46,42.45h6.87c3.07,0,5.86,1.66,5.86,5.04c0,0.38-0.05,0.79-0.12,1.18c-0.26,1.58-0.6,3.48-0.89,5.06
		c-0.7,3.86-3.98,5.83-7.82,5.83h-6.91L204.46,42.45z M208.7,56.49c1.9,0,3.48-0.98,3.82-2.93c0.22-1.22,0.67-3.77,0.89-5.02
		c0.02-0.17,0.07-0.36,0.07-0.55c0-1.68-1.46-2.47-2.98-2.47h-2.93l-1.94,10.97H208.7z"/>
	<path d="M225.22,42.45h3.67l3.1,17.11h-3.7l-0.53-3.46h-6.36l-1.78,3.46h-3.65L225.22,42.45z M227.33,53.15l-1.01-6.7h-0.1
		l-3.38,6.7H227.33z"/>
	<path d="M232.99,56.3l2.81-1.82c0.82,1.61,2.64,2.38,4.3,2.38c1.22,0,3.05-0.38,3.05-1.87c0-1.27-1.39-1.9-2.93-2.5
		c-2.3-0.86-4.9-1.87-4.9-4.82c0-3.55,2.83-5.5,6.46-5.5c2.42,0,4.99,0.72,6.24,3.22l-2.62,1.58c-0.72-1.18-2.16-1.85-3.53-1.85
		c-1.34,0-2.93,0.43-2.93,1.92c0,1.37,2.09,1.85,3.84,2.62c1.85,0.77,4.03,2.04,4.03,4.56c0,3.98-3.48,5.62-6.86,5.62
		C237.19,59.83,234.5,59.03,232.99,56.3z"/>
</g>
</svg>
