<svg id="Capa_1" data-name="Capa 1" xmlns="http://www.w3.org/2000/svg" viewBox="0 0 283.46 283.46"><defs><style>.cls-1{fill:#1d1d1b;}.cls-2{fill:#d31d20;}.cls-3{fill:#67b5e5;}.cls-4{fill:#1f4b9a;}.cls-5{fill:#3e9239;}.cls-6{fill:#fff;}</style></defs><path class="cls-1" d="M178.45,253.8h-1v-6.43h1Zm0-7.44h-1V245.2h1Zm-3.29,4.24a4,4,0,0,0-.38-1.8,1.35,1.35,0,0,0-1.24-.84,1.54,1.54,0,0,0-1,.44,1.45,1.45,0,0,0-.55,1.14v1.16a3.37,3.37,0,0,0,.4,1.79,1.42,1.42,0,0,0,1.26.61,1.24,1.24,0,0,0,1.14-.78A3.51,3.51,0,0,0,175.16,250.6Zm1-.17a4.38,4.38,0,0,1-.61,2.37,2,2,0,0,1-1.73,1.08,2.35,2.35,0,0,1-.91-.15,2.11,2.11,0,0,1-1.11-.93l-.27,1H171v-8.6h.93v3.24a2.92,2.92,0,0,1,.77-.91,2,2,0,0,1,1.08-.36,2.09,2.09,0,0,1,1.77,1A3.86,3.86,0,0,1,176.18,250.43Zm-6.58,3.37h-1v-4.35a1.23,1.23,0,0,0-.34-.94,1.07,1.07,0,0,0-.82-.35,1.16,1.16,0,0,0-.95.46,2.23,2.23,0,0,0-.48,1.52v3.66h-.91v-4.16a1.41,1.41,0,0,0-.38-1.06,1.06,1.06,0,0,0-.86-.37,1.22,1.22,0,0,0-1,.44,1.94,1.94,0,0,0-.46,1.4v3.75h-1v-6.43h.93v1.28a2.14,2.14,0,0,1,.77-1,1.72,1.72,0,0,1,1-.38,1.51,1.51,0,0,1,1,.4,2.26,2.26,0,0,1,.68,1.08,2.19,2.19,0,0,1,.81-1.08,2.11,2.11,0,0,1,1.17-.4,1.65,1.65,0,0,1,1.25.56,2.7,2.7,0,0,1,.56,1.81Zm-10.45-3.37a2.9,2.9,0,0,0-.33-1.47,1.38,1.38,0,0,0-2.49-.2,2.84,2.84,0,0,0-.49,1.67,3.27,3.27,0,0,0,.6,2.14,1.4,1.4,0,0,0,1.06.53,1.35,1.35,0,0,0,1.34-.85A4.08,4.08,0,0,0,159.15,250.43Zm1,0a5,5,0,0,1-.52,2.35,2.22,2.22,0,0,1-2.06,1.22,2.41,2.41,0,0,1-2.25-1.34,4.42,4.42,0,0,1-.07-4.1,2.38,2.38,0,0,1,2.21-1.39,2.49,2.49,0,0,1,1.5.48A3.13,3.13,0,0,1,160.19,250.43Zm-6.76,3.37h-1v-8.6h1Zm-3.32-3.37a3.25,3.25,0,0,0-.33-1.47,1.38,1.38,0,0,0-1.32-.89,1.41,1.41,0,0,0-1.18.69,2.91,2.91,0,0,0-.48,1.67,3.27,3.27,0,0,0,.6,2.14,1.36,1.36,0,0,0,1.06.53,1.38,1.38,0,0,0,1.34-.85A4.39,4.39,0,0,0,150.11,250.43Zm1,0a4.78,4.78,0,0,1-.51,2.35,2.18,2.18,0,0,1-2.05,1.22,2.37,2.37,0,0,1-2.23-1.34,4.07,4.07,0,0,1-.56-2.14,4.14,4.14,0,0,1,.47-2,2.38,2.38,0,0,1,2.22-1.39,2.56,2.56,0,0,1,1.51.48A3.16,3.16,0,0,1,151.12,250.43Zm-6.07.62a3.63,3.63,0,0,1-1.58,2.48,3.5,3.5,0,0,1-1.74.35,2.58,2.58,0,0,1-2.3-1.4,5.84,5.84,0,0,1-.78-3.07,5.43,5.43,0,0,1,.86-3,2.81,2.81,0,0,1,2.4-1.39,3,3,0,0,1,2,.74,2.77,2.77,0,0,1,1,1.93l-.93.2a2.41,2.41,0,0,0-1-1.69,2.07,2.07,0,0,0-1.11-.3A1.78,1.78,0,0,0,140.3,247a5,5,0,0,0-.5,2.33,5.06,5.06,0,0,0,.59,2.57,2,2,0,0,0,1.77,1.06,1.46,1.46,0,0,0,1.08-.43A2.91,2.91,0,0,0,144,251Zm-11.85-.53a7.56,7.56,0,0,0-2.07.21c-.78.22-1.18.66-1.18,1.31a1,1,0,0,0,.35.74,1.2,1.2,0,0,0,.88.32,1.94,1.94,0,0,0,1.29-.41A2.73,2.73,0,0,0,133.2,250.52Zm1,3.28h-.92l-.19-1.09a1.9,1.9,0,0,1-.89.92,2.33,2.33,0,0,1-1.09.24,2.16,2.16,0,0,1-1.73-.69,1.79,1.79,0,0,1-.46-1.17,1.82,1.82,0,0,1,1-1.77,5.77,5.77,0,0,1,2.55-.45h.4a1.17,1.17,0,0,1,.3.05,1.81,1.81,0,0,0-.6-1.61,2.26,2.26,0,0,0-1.24-.27,1.38,1.38,0,0,0-.94.41,1.49,1.49,0,0,0-.47.79l-.9-.2a2.38,2.38,0,0,1,.85-1.3,3.09,3.09,0,0,1,1.84-.49,2.46,2.46,0,0,1,1.74.55,2,2,0,0,1,.56,1.52v3.56a2.79,2.79,0,0,0,.05.47C134.13,253.44,134.17,253.62,134.22,253.8Zm-5.8-5.64-.26,0a1.52,1.52,0,0,0-1.34.79,2.47,2.47,0,0,0-.44,1.4v3.47h-.93v-6.43h.85v1.49a3.77,3.77,0,0,1,.46-1.05,1.4,1.4,0,0,1,1.22-.7,3.2,3.2,0,0,1,.44.06Zm-5.19,2.36a7.56,7.56,0,0,0-2.07.21c-.78.22-1.17.66-1.17,1.31a1,1,0,0,0,.33.74,1.24,1.24,0,0,0,.88.32,1.88,1.88,0,0,0,1.29-.41A2.7,2.7,0,0,0,123.23,250.52Zm1,3.28h-.93l-.19-1.09a1.72,1.72,0,0,1-.88.92,2.34,2.34,0,0,1-1.1.24,2.15,2.15,0,0,1-1.72-.69A1.77,1.77,0,0,1,119,252a1.86,1.86,0,0,1,1-1.77,5.58,5.58,0,0,1,2.53-.45h.41a1.17,1.17,0,0,1,.3.05,1.84,1.84,0,0,0-.6-1.61,2.25,2.25,0,0,0-1.25-.27,1.43,1.43,0,0,0-.94.41,1.4,1.4,0,0,0-.45.79l-.92-.2a2.25,2.25,0,0,1,.86-1.3,3.07,3.07,0,0,1,1.84-.49,2.4,2.4,0,0,1,1.72.55,2,2,0,0,1,.58,1.52v3.56a4.26,4.26,0,0,0,0,.47C124.15,253.44,124.19,253.62,124.25,253.8Zm-7.38-3.28a3.55,3.55,0,0,0-.4-1.78,1.17,1.17,0,0,0-1.07-.67,1.43,1.43,0,0,0-1,.46,1.65,1.65,0,0,0-.59,1.2v1.4a2,2,0,0,0,.5,1.35,1.25,1.25,0,0,0,1,.51,1.32,1.32,0,0,0,1.06-.4A3.29,3.29,0,0,0,116.87,250.52Zm1.07.07a4.37,4.37,0,0,1-.55,2.31,2,2,0,0,1-1.78,1.06,1.94,1.94,0,0,1-1-.26,2.09,2.09,0,0,1-.79-.8v3h-.93v-8.5h.83v1.19a2.36,2.36,0,0,1,.89-1.13,2.09,2.09,0,0,1,1.08-.28,1.89,1.89,0,0,1,1.69,1.08A4.76,4.76,0,0,1,117.94,250.59ZM224,239.91l-.94,1.76h-.55l.75-1.66h-.67v-1.49H224ZM221.13,238a1.9,1.9,0,0,1-.68,1.45,2.46,2.46,0,0,1-1.64.59,3.78,3.78,0,0,1-2-.47,1.91,1.91,0,0,1-.88-1.42l.82-.19a1.66,1.66,0,0,0,.83,1,3,3,0,0,0,1.21.18,1.47,1.47,0,0,0,.92-.32.94.94,0,0,0,.43-.68c0-.42-.32-.71-1-.89l-2-.54a1.57,1.57,0,0,1-1-1.51,2,2,0,0,1,.45-1.26,2.09,2.09,0,0,1,1.71-.72,3,3,0,0,1,1.63.39,2.49,2.49,0,0,1,.86,1.19L220,235a2,2,0,0,0-.67-.78,1.48,1.48,0,0,0-.62-.2,2,2,0,0,0-1.13.3.76.76,0,0,0-.44.68c0,.52.32.83,1,1l1.93.39A1.52,1.52,0,0,1,221.13,238Zm-7-1.32a8.26,8.26,0,0,0-2.07.18c-.8.24-1.16.67-1.16,1.31a.93.93,0,0,0,.32.74,1.16,1.16,0,0,0,.87.31,2,2,0,0,0,1.3-.39A2.7,2.7,0,0,0,214.09,236.65Zm1,3.26h-.92L214,238.8a2.05,2.05,0,0,1-.9,1A2.65,2.65,0,0,1,212,240a2.14,2.14,0,0,1-1.72-.7,1.78,1.78,0,0,1-.48-1.16,1.83,1.83,0,0,1,1.06-1.77,5.42,5.42,0,0,1,2.52-.44h.4a1,1,0,0,1,.31,0,1.76,1.76,0,0,0-.6-1.59,2.09,2.09,0,0,0-1.25-.3,1.35,1.35,0,0,0-.94.42,1.25,1.25,0,0,0-.44.78L210,235a2.14,2.14,0,0,1,.84-1.28,3.14,3.14,0,0,1,1.84-.49,2.46,2.46,0,0,1,1.73.54,2,2,0,0,1,.56,1.53v3.58a2,2,0,0,0,.06.44C215,239.54,215.06,239.71,215.1,239.91Zm-7.64-2.49v-1.68a1.64,1.64,0,0,0-.48-1.19,1.6,1.6,0,0,0-1.09-.49,1.32,1.32,0,0,0-1.2.81,4.07,4.07,0,0,0-.39,1.86,3.63,3.63,0,0,0,.39,1.71,1.18,1.18,0,0,0,1.11.76,1.48,1.48,0,0,0,1.1-.46A2.12,2.12,0,0,0,207.46,237.42Zm.93,2.49h-.84V238.8a2.4,2.4,0,0,1-.82.86,2.29,2.29,0,0,1-1.2.35,1.89,1.89,0,0,1-1.65-1,4.66,4.66,0,0,1-.55-2.28,4.2,4.2,0,0,1,.63-2.34,2.07,2.07,0,0,1,1.84-1.09,1.73,1.73,0,0,1,.9.24,2.17,2.17,0,0,1,.76.75v-3h.93Zm-6.83-3.26a8.39,8.39,0,0,0-2.09.18c-.78.24-1.16.67-1.16,1.31a.91.91,0,0,0,.33.74,1.19,1.19,0,0,0,.88.31,1.92,1.92,0,0,0,1.28-.39A2.7,2.7,0,0,0,201.56,236.65Zm1,3.26h-.91l-.2-1.11a2,2,0,0,1-.89,1,2.62,2.62,0,0,1-1.11.22,2.07,2.07,0,0,1-1.7-.7,1.69,1.69,0,0,1-.48-1.16,1.83,1.83,0,0,1,1-1.77,5.44,5.44,0,0,1,2.53-.44h.39a1.16,1.16,0,0,1,.33,0,1.79,1.79,0,0,0-.62-1.59,2.08,2.08,0,0,0-1.24-.3,1.39,1.39,0,0,0-.95.42,1.25,1.25,0,0,0-.44.78l-.92-.22a2.34,2.34,0,0,1,.84-1.28,3.19,3.19,0,0,1,1.85-.49,2.44,2.44,0,0,1,1.73.54,2,2,0,0,1,.58,1.53v3.58a1.83,1.83,0,0,0,0,.44C202.46,239.54,202.51,239.71,202.56,239.91Zm-6.55,0h-1v-4.37a1.24,1.24,0,0,0-.34-.92,1.1,1.1,0,0,0-.83-.36,1.24,1.24,0,0,0-1,.48,2.33,2.33,0,0,0-.46,1.51v3.66h-.91v-4.17a1.48,1.48,0,0,0-.36-1.06,1.22,1.22,0,0,0-.89-.37,1.27,1.27,0,0,0-1,.43,2.05,2.05,0,0,0-.47,1.41v3.76h-1v-6.44h.94v1.29a2.61,2.61,0,0,1,.76-1,1.81,1.81,0,0,1,1-.37,1.75,1.75,0,0,1,1,.38,2.24,2.24,0,0,1,.66,1.09,2.13,2.13,0,0,1,2-1.47,1.59,1.59,0,0,1,1.25.57,2.64,2.64,0,0,1,.55,1.79Zm-8.87-5.65h-.23a1.53,1.53,0,0,0-1.35.79,2.31,2.31,0,0,0-.44,1.37v3.5h-.93v-6.44H185V235a4.12,4.12,0,0,1,.47-1,1.4,1.4,0,0,1,1.21-.72,2.07,2.07,0,0,1,.44.06Zm-5.9,2.26L180,232.58l-1.2,3.94Zm2.11,3.39h-1l-.8-2.49h-3l-.75,2.49H177l2.58-8.61h1.13ZM172.82,238a1.91,1.91,0,0,1-.66,1.45,2.46,2.46,0,0,1-1.66.59,3.78,3.78,0,0,1-2-.47,2,2,0,0,1-.88-1.42l.84-.19a1.71,1.71,0,0,0,.81,1,3.11,3.11,0,0,0,1.22.18,1.51,1.51,0,0,0,.92-.32.94.94,0,0,0,.43-.68c0-.42-.32-.71-1-.89l-1.94-.54a1.56,1.56,0,0,1-1-1.51,2,2,0,0,1,.44-1.26,2.13,2.13,0,0,1,1.73-.72,2.86,2.86,0,0,1,1.61.39,2.46,2.46,0,0,1,.88,1.19l-.81.28a2,2,0,0,0-.69-.78,1.4,1.4,0,0,0-.62-.2,2,2,0,0,0-1.13.3.8.8,0,0,0-.44.68c0,.52.33.83,1,1l2,.39A1.51,1.51,0,0,1,172.82,238Zm-7-1.32a8.3,8.3,0,0,0-2.08.18c-.76.24-1.16.67-1.16,1.31a1,1,0,0,0,.34.74,1.17,1.17,0,0,0,.88.31,1.94,1.94,0,0,0,1.28-.39A2.63,2.63,0,0,0,165.78,236.65Zm1,3.26h-.92l-.2-1.11a2,2,0,0,1-.9,1,2.5,2.5,0,0,1-1.11.22,2.11,2.11,0,0,1-1.71-.7,1.73,1.73,0,0,1-.48-1.16,1.89,1.89,0,0,1,1-1.77,5.59,5.59,0,0,1,2.55-.44h.39a.89.89,0,0,1,.3,0,1.76,1.76,0,0,0-.6-1.59,2,2,0,0,0-1.23-.3,1.35,1.35,0,0,0-.95.42,1.28,1.28,0,0,0-.46.78l-.9-.22a2.25,2.25,0,0,1,.85-1.28,3.09,3.09,0,0,1,1.84-.49,2.41,2.41,0,0,1,1.72.54,2,2,0,0,1,.57,1.53v3.58a2,2,0,0,0,.06.44A4.45,4.45,0,0,0,166.82,239.91Zm-6,0h-4.42V239l3.14-4.64h-3v-.89h4.24v.69L157.59,239h3.22Zm-4.7-5.65h-.24a1.52,1.52,0,0,0-1.35.79,2.31,2.31,0,0,0-.44,1.37v3.5h-.93v-6.44H154V235a4.08,4.08,0,0,1,.48-1,1.4,1.4,0,0,1,1.2-.72,2.07,2.07,0,0,1,.45.06Zm-5.33,1.79a2,2,0,0,0-.51-1.43,1.42,1.42,0,0,0-1.08-.47,1.52,1.52,0,0,0-1.11.47,2.23,2.23,0,0,0-.65,1.43Zm1,.68h-4.33a2.81,2.81,0,0,0,.58,1.87,1.59,1.59,0,0,0,1.27.64,1.61,1.61,0,0,0,.91-.31,1.9,1.9,0,0,0,.65-.91l.83.2a2.77,2.77,0,0,1-1.34,1.64,3,3,0,0,1-1.32.24,2.27,2.27,0,0,1-1.93-1,3.64,3.64,0,0,1-.7-2.24,4.15,4.15,0,0,1,.67-2.34,2.13,2.13,0,0,1,1.85-1.11,2.56,2.56,0,0,1,2.12.92A3.68,3.68,0,0,1,151.76,236.73Zm-6.45,3.18h-.91v-1.19a2,2,0,0,1-.72,1,2.08,2.08,0,0,1-1.19.36,1.79,1.79,0,0,1-1.37-.57,2.69,2.69,0,0,1-.6-1.88v-4.15h.93v3.75a2.59,2.59,0,0,0,.36,1.52.94.94,0,0,0,.84.46,1.46,1.46,0,0,0,1.13-.6,2.15,2.15,0,0,0,.52-1.45v-3.68h1Zm-5.07-7.71h-4v2.65h3.23v.89h-3.23v4.17h-1V231.3h5Zm-10,5.77a1.91,1.91,0,0,1-.66,1.45A2.46,2.46,0,0,1,128,240a3.77,3.77,0,0,1-2-.47,1.91,1.91,0,0,1-.88-1.42l.82-.19a1.73,1.73,0,0,0,.83,1,3,3,0,0,0,1.21.18,1.49,1.49,0,0,0,.92-.32,1,1,0,0,0,.44-.68c0-.42-.33-.71-1-.89l-1.94-.54a1.61,1.61,0,0,1-1.06-1.51,1.9,1.9,0,0,1,.47-1.26,2.08,2.08,0,0,1,1.72-.72,2.93,2.93,0,0,1,1.61.39,2.46,2.46,0,0,1,.88,1.19l-.83.28a1.74,1.74,0,0,0-.69-.78,1.25,1.25,0,0,0-.6-.2,2,2,0,0,0-1.13.3.79.79,0,0,0-.43.68c0,.52.32.83,1,1l2,.39A1.51,1.51,0,0,1,130.26,238Zm-7-1.32a8.26,8.26,0,0,0-2.07.18c-.78.24-1.17.67-1.17,1.31a1,1,0,0,0,.33.74,1.19,1.19,0,0,0,.88.31,1.93,1.93,0,0,0,1.29-.39A2.66,2.66,0,0,0,123.23,236.65Zm1,3.26h-.93l-.19-1.11a1.84,1.84,0,0,1-.88,1,2.6,2.6,0,0,1-1.1.22,2.12,2.12,0,0,1-1.72-.7,1.69,1.69,0,0,1-.48-1.16,1.86,1.86,0,0,1,1-1.77,5.47,5.47,0,0,1,2.53-.44h.41a.89.89,0,0,1,.3,0,1.78,1.78,0,0,0-.6-1.59,2.07,2.07,0,0,0-1.25-.3,1.4,1.4,0,0,0-.94.42,1.31,1.31,0,0,0-.45.78l-.92-.22a2.26,2.26,0,0,1,.86-1.28,3.14,3.14,0,0,1,1.84-.49,2.45,2.45,0,0,1,1.72.54,2,2,0,0,1,.58,1.53v3.58a4.2,4.2,0,0,0,0,.44C124.15,239.54,124.19,239.71,124.25,239.91Zm-5.81-5.65h-.24a1.57,1.57,0,0,0-1.36.79,2.38,2.38,0,0,0-.44,1.37v3.5h-.91v-6.44h.84V235a3.85,3.85,0,0,1,.45-1,1.44,1.44,0,0,1,1.21-.72,2.07,2.07,0,0,1,.45.06Zm-3.7,5.75a5.19,5.19,0,0,1-1,.13,1.51,1.51,0,0,1-1.33-.6,2.74,2.74,0,0,1-.37-1.61v-3.67h-1v-.79h1V231.8h1v1.67h1.29v.79h-1.29v3.46a2.92,2.92,0,0,0,.15,1.1.76.76,0,0,0,.74.42,2.74,2.74,0,0,0,.78-.14Zm-4.24-2a2,2,0,0,1-.66,1.45,2.52,2.52,0,0,1-1.65.59,3.71,3.71,0,0,1-2-.47,1.92,1.92,0,0,1-.89-1.42l.83-.19a1.66,1.66,0,0,0,.83,1,2.91,2.91,0,0,0,1.2.18,1.49,1.49,0,0,0,.92-.32,1,1,0,0,0,.43-.68c0-.42-.33-.71-1-.89l-2-.54a1.58,1.58,0,0,1-1-1.51,2.1,2.1,0,0,1,.44-1.26,2.2,2.2,0,0,1,1.72-.72,2.89,2.89,0,0,1,1.63.39,2.22,2.22,0,0,1,.87,1.19l-.82.28a2,2,0,0,0-.67-.78,1.32,1.32,0,0,0-.62-.2,1.9,1.9,0,0,0-1.12.3.79.79,0,0,0-.45.68c0,.52.33.83,1,1l2,.39A1.52,1.52,0,0,1,110.5,238Zm-7.2-1.92a2,2,0,0,0-.49-1.43,1.41,1.41,0,0,0-1.08-.47,1.6,1.6,0,0,0-1.14.47,2.2,2.2,0,0,0-.62,1.43Zm1,.68H100a2.71,2.71,0,0,0,.58,1.87,1.57,1.57,0,0,0,1.25.64,1.59,1.59,0,0,0,.92-.31,1.78,1.78,0,0,0,.65-.91l.85.2a2.53,2.53,0,0,1-2.69,1.88,2.3,2.3,0,0,1-1.93-1,3.76,3.76,0,0,1-.68-2.24,4.14,4.14,0,0,1,.66-2.34,2.16,2.16,0,0,1,1.87-1.11,2.5,2.5,0,0,1,2.09.92A3.69,3.69,0,0,1,104.29,236.73Zm-6.46,3.18h-.9v-1.19a1.93,1.93,0,0,1-.71,1,2.14,2.14,0,0,1-1.2.36,1.77,1.77,0,0,1-1.36-.57,2.64,2.64,0,0,1-.61-1.88v-4.15H94v3.75a2.84,2.84,0,0,0,.36,1.52,1,1,0,0,0,.86.46,1.43,1.43,0,0,0,1.13-.6,2.11,2.11,0,0,0,.53-1.45v-3.68h1Zm-6.17,0h-.92v-4.46a1.08,1.08,0,0,0-.35-.9,1.29,1.29,0,0,0-.85-.32,1.54,1.54,0,0,0-1.18.54,2.51,2.51,0,0,0-.56,1.75v3.39h-.92v-6.44h.92v1.08a3,3,0,0,1,.9-1,2,2,0,0,1,1.08-.32,1.72,1.72,0,0,1,1.33.61,2.43,2.43,0,0,1,.55,1.66Zm-9.06-5.65h-.25A1.55,1.55,0,0,0,81,235a2.39,2.39,0,0,0-.45,1.37v3.5h-.93v-6.44h.85V235a3.75,3.75,0,0,1,.48-1,1.37,1.37,0,0,1,1.19-.72,2.07,2.07,0,0,1,.45.06Zm-5.28,2.26A3.48,3.48,0,0,0,77,235a1.42,1.42,0,0,0-1.31-.88,1.4,1.4,0,0,0-1.18.7,2.8,2.8,0,0,0-.49,1.66,3.22,3.22,0,0,0,.59,2.14,1.39,1.39,0,0,0,1.08.54,1.35,1.35,0,0,0,1.33-.85A4.27,4.27,0,0,0,77.32,236.52Zm1,0a4.73,4.73,0,0,1-.51,2.35,2.19,2.19,0,0,1-2.07,1.23,2.39,2.39,0,0,1-2.23-1.34,4.17,4.17,0,0,1-.55-2.11,4.42,4.42,0,0,1,.47-2,2.34,2.34,0,0,1,2.23-1.39,2.52,2.52,0,0,1,1.49.48A3.17,3.17,0,0,1,78.35,236.52Zm-7-2.59a1.73,1.73,0,0,0-.43-1.18,1.67,1.67,0,0,0-1.32-.55H67.91v3.34h1.86a1.39,1.39,0,0,0,1.14-.47A1.58,1.58,0,0,0,71.34,233.93Zm1-.09a2.73,2.73,0,0,1-.63,1.78,2.36,2.36,0,0,1-1.86.79h-2v3.5H66.82V231.3h3.07a2.34,2.34,0,0,1,1.86.78A2.6,2.6,0,0,1,72.38,233.84Z"/><path class="cls-1" d="M224,253.8h-1.31v-1.49H224Zm-3.81-3.28a7.54,7.54,0,0,0-2.08.21c-.77.22-1.16.66-1.16,1.31a1,1,0,0,0,.33.74,1.3,1.3,0,0,0,.89.32,1.89,1.89,0,0,0,1.28-.41A2.73,2.73,0,0,0,220.18,250.52Zm1,3.28h-.93l-.19-1.09a1.86,1.86,0,0,1-.89.92,2.34,2.34,0,0,1-1.12.24,2.15,2.15,0,0,1-1.71-.69,1.84,1.84,0,0,1-.46-1.17,1.87,1.87,0,0,1,1-1.77,5.63,5.63,0,0,1,2.54-.45h.41a1.16,1.16,0,0,1,.29.05,1.86,1.86,0,0,0-.6-1.61,2.28,2.28,0,0,0-1.24-.27,1.38,1.38,0,0,0-.94.41,1.42,1.42,0,0,0-.46.79l-.9-.2a2.16,2.16,0,0,1,.86-1.3,3,3,0,0,1,1.82-.49,2.38,2.38,0,0,1,1.73.55,2,2,0,0,1,.58,1.52v3.56c0,.14,0,.3,0,.47S221.15,253.62,221.21,253.8Zm-5.83-5.64-.23,0a1.55,1.55,0,0,0-1.35.79,2.47,2.47,0,0,0-.44,1.4v3.47h-.93v-6.43h.84v1.49a4.87,4.87,0,0,1,.47-1.05,1.39,1.39,0,0,1,1.2-.7,2.69,2.69,0,0,1,.44.06Zm-5.32,1.78a2.11,2.11,0,0,0-.49-1.43,1.5,1.5,0,0,0-1.09-.47,1.65,1.65,0,0,0-1.14.47,2.36,2.36,0,0,0-.62,1.43Zm1,.68h-4.34a2.86,2.86,0,0,0,.56,1.87,1.59,1.59,0,0,0,1.29.64,1.57,1.57,0,0,0,.9-.3,2,2,0,0,0,.64-.92l.84.2a2.83,2.83,0,0,1-1.34,1.64,2.9,2.9,0,0,1-1.32.25,2.33,2.33,0,0,1-1.94-1,3.84,3.84,0,0,1-.68-2.25,4.12,4.12,0,0,1,.67-2.34,2.14,2.14,0,0,1,1.85-1.12,2.6,2.6,0,0,1,2.11.92A3.74,3.74,0,0,1,211.06,250.62Zm-5.64,3.26a4.11,4.11,0,0,1-1,.16,1.56,1.56,0,0,1-1.34-.6,2.82,2.82,0,0,1-.37-1.61v-3.67h-1v-.79h1v-1.69h1v1.69h1.3v.79h-1.3v3.47a2.91,2.91,0,0,0,.15,1.08.76.76,0,0,0,.75.42,2.14,2.14,0,0,0,.77-.14ZM201,253.8h-.9v-4.45a1.17,1.17,0,0,0-.36-.91,1.21,1.21,0,0,0-.87-.33,1.52,1.52,0,0,0-1.16.57,2.49,2.49,0,0,0-.58,1.75v3.37h-.92v-6.43h.92v1.07a2.71,2.71,0,0,1,.92-.95,2,2,0,0,1,1.06-.34,1.76,1.76,0,0,1,1.35.62,2.49,2.49,0,0,1,.54,1.68Zm-7.18-3.86a2,2,0,0,0-.49-1.43,1.44,1.44,0,0,0-1.08-.47,1.67,1.67,0,0,0-1.14.47,2.42,2.42,0,0,0-.62,1.43Zm1,.68h-4.32a2.92,2.92,0,0,0,.57,1.87,1.59,1.59,0,0,0,1.27.64,1.46,1.46,0,0,0,.9-.3,1.86,1.86,0,0,0,.66-.92l.84.2a2.9,2.9,0,0,1-1.34,1.64A3,3,0,0,1,192,254a2.28,2.28,0,0,1-1.92-1,3.64,3.64,0,0,1-.69-2.25,4.11,4.11,0,0,1,.66-2.34,2.15,2.15,0,0,1,1.86-1.12,2.58,2.58,0,0,1,2.1.92A3.79,3.79,0,0,1,194.79,250.62Zm-10.63-.1a7.61,7.61,0,0,0-2.07.21c-.78.22-1.15.66-1.15,1.31a.91.91,0,0,0,.34.74,1.15,1.15,0,0,0,.86.32,2,2,0,0,0,1.3-.41A2.73,2.73,0,0,0,184.16,250.52Zm1,3.28h-.93l-.17-1.09a1.89,1.89,0,0,1-.91.92,2.25,2.25,0,0,1-1.09.24,2.19,2.19,0,0,1-1.74-.69,2,2,0,0,1-.46-1.17,1.83,1.83,0,0,1,1.05-1.77,5.53,5.53,0,0,1,2.52-.45h.41a1.08,1.08,0,0,1,.29.05,1.81,1.81,0,0,0-.59-1.61,2.3,2.3,0,0,0-1.25-.27,1.41,1.41,0,0,0-.94.41,1.33,1.33,0,0,0-.44.79L180,249a2.32,2.32,0,0,1,.84-1.3,3.07,3.07,0,0,1,1.84-.49,2.38,2.38,0,0,1,1.73.55,2,2,0,0,1,.57,1.52v3.56a2,2,0,0,0,.05.47C185.1,253.44,185.14,253.62,185.19,253.8Z"/><rect class="cls-2" x="59.48" y="27.6" width="82.25" height="76.51"/><rect class="cls-3" x="59.48" y="104.1" width="82.25" height="76.52"/><rect class="cls-4" x="141.73" y="27.6" width="82.25" height="76.51"/><rect class="cls-5" x="141.73" y="104.1" width="82.25" height="76.52"/><polygon class="cls-6" points="95.62 91.17 67.33 89.73 67.88 77.31 96.06 80.95 88.66 52.52 99.3 49.51 105.7 77.96 128.54 62.59 133.87 71.84 111.02 87.21 131.61 105.7 124.57 114.98 104.17 95.05 94.86 124.25 84.45 119.53 95.62 91.17"/><polygon class="cls-6" points="131.14 145.34 109.39 164.97 102.04 155.39 125.1 137.5 101.91 121.93 107.88 111.91 130.34 128.25 137.61 100.21 147.29 103.14 140.04 131.19 166.76 129.77 167.38 141.77 139.87 141.99 151.21 170.31 140.6 174.44 131.14 145.34"/><polygon class="cls-6" points="151.96 78.22 129.24 96.49 122.38 86.49 146.33 70.01 124 53.07 130.47 43.43 152.05 61.11 160.75 33.55 170.26 37.05 161.58 64.62 188.31 64.81 188.31 76.83 160.87 75.38 170.73 104.34 159.91 107.82 151.96 78.22"/><polygon class="cls-6" points="179.89 123.51 151.56 124.27 151.3 111.84 179.65 113.28 170.4 85.5 180.8 81.67 189.07 109.56 210.82 92.44 216.74 101.26 194.97 118.38 216.73 135.19 210.34 145.03 188.66 126.71 181.31 156.57 170.63 152.68 179.89 123.51"/><path class="cls-1" d="M223.05,200.59h-.83V189.65h.83Zm-3.73-3.06v-1.09a5.37,5.37,0,0,1-1.27.25,9.36,9.36,0,0,0-1.29.13,2.17,2.17,0,0,0-1.1.52,1.51,1.51,0,0,0-.53,1.13,1.35,1.35,0,0,0,.51,1.14,1.8,1.8,0,0,0,1.13.38,2.71,2.71,0,0,0,1.82-.62A2.28,2.28,0,0,0,219.32,197.53Zm1.68,3.06a5.2,5.2,0,0,1-.61.07c-.7,0-1-.41-1-1.21a3.47,3.47,0,0,1-2.68,1.33,2.51,2.51,0,0,1-1.69-.57,2.19,2.19,0,0,1-.72-1.73,2.06,2.06,0,0,1,.64-1.63,2.82,2.82,0,0,1,1.47-.59L218,196a2.29,2.29,0,0,0,.91-.24c.24-.11.36-.38.36-.79a1.7,1.7,0,0,0-.47-1.36,2.18,2.18,0,0,0-1.33-.36c-1.32,0-2,.59-2.08,1.76h-.8a2.44,2.44,0,0,1,.88-2,3.12,3.12,0,0,1,2-.61c1.77,0,2.66.8,2.66,2.39v4.29a1.27,1.27,0,0,0,.1.59.42.42,0,0,0,.37.15H221Zm-8.34,0h-.84v-7.92h.84Zm0-9.59h-.84v-1.35h.84Zm-2.07,2.42c-1.55,0-2.31.93-2.31,2.77v4.4h-.84v-7.92h.8v1.39a2.35,2.35,0,0,1,2.35-1.59Zm-6,4.11v-1.09a5.27,5.27,0,0,1-1.27.25,9,9,0,0,0-1.29.13,2.09,2.09,0,0,0-1.1.52,1.51,1.51,0,0,0-.53,1.13,1.42,1.42,0,0,0,.5,1.14,1.86,1.86,0,0,0,1.14.38,2.69,2.69,0,0,0,1.82-.62A2.41,2.41,0,0,0,204.62,197.53Zm1.66,3.06a4.82,4.82,0,0,1-.6.07c-.69,0-1-.41-1-1.21a3.47,3.47,0,0,1-2.68,1.33,2.52,2.52,0,0,1-1.71-.57,2.18,2.18,0,0,1-.71-1.73,2.06,2.06,0,0,1,.64-1.63,2.86,2.86,0,0,1,1.49-.59l1.66-.23a2.17,2.17,0,0,0,.9-.24.8.8,0,0,0,.37-.79,1.77,1.77,0,0,0-.47-1.36,2.13,2.13,0,0,0-1.33-.36c-1.33,0-2,.59-2.07,1.76h-.8a2.4,2.4,0,0,1,.86-2,3.13,3.13,0,0,1,2-.61c1.77,0,2.64.8,2.64,2.39v4.29a1.27,1.27,0,0,0,.1.59.49.49,0,0,0,.39.15h.34Zm-7.95-2.06a1.94,1.94,0,0,1-.9,1.74,3.36,3.36,0,0,1-1.89.52,2.81,2.81,0,0,1-1.95-.67,2.63,2.63,0,0,1-.86-2h.87a1.82,1.82,0,0,0,.55,1.36,2,2,0,0,0,1.36.52,2.5,2.5,0,0,0,1.3-.31,1.28,1.28,0,0,0,.66-1.17c0-.6-.41-1-1.2-1.29l-2.2-.66a1.84,1.84,0,0,1-1.17-1.8,2.12,2.12,0,0,1,.77-1.72,2.67,2.67,0,0,1,1.71-.57,2.87,2.87,0,0,1,1.93.65,2.5,2.5,0,0,1,.82,1.87h-.86a1.7,1.7,0,0,0-.59-1.3,2.05,2.05,0,0,0-1.31-.41,1.9,1.9,0,0,0-1.1.32,1.18,1.18,0,0,0-.52,1c0,.65.4,1.11,1.18,1.36l2.21.64A1.91,1.91,0,0,1,198.33,198.53Zm-7.66-2.46a3.48,3.48,0,0,0-.6-1.93,1.9,1.9,0,0,0-1.65-.86,2,2,0,0,0-1.67.82,3.51,3.51,0,0,0-.65,2Zm.86.75H186.1v0a3.87,3.87,0,0,0,.58,2.17,2,2,0,0,0,1.78,1,2.13,2.13,0,0,0,1.42-.49,2.06,2.06,0,0,0,.71-1.36h.83a2.83,2.83,0,0,1-1,2,3,3,0,0,1-2,.67,2.72,2.72,0,0,1-2.42-1.24,5,5,0,0,1-.74-2.88,5.21,5.21,0,0,1,.74-2.93,2.76,2.76,0,0,1,2.46-1.27C190.51,192.47,191.53,193.93,191.53,196.82Zm-7.07-3.4c-1.54,0-2.32.93-2.32,2.77v4.4h-.83v-7.92h.81v1.39a2.33,2.33,0,0,1,2.34-1.59ZM179,196.64a4.33,4.33,0,0,0-.55-2.34,2.32,2.32,0,0,0-3.84,0,4.51,4.51,0,0,0-.52,2.34,4.57,4.57,0,0,0,.53,2.33,2.15,2.15,0,0,0,1.91,1,2.13,2.13,0,0,0,1.92-1A4.25,4.25,0,0,0,179,196.64Zm.88,0a4.9,4.9,0,0,1-.79,2.91,2.83,2.83,0,0,1-2.49,1.24,2.68,2.68,0,0,1-2.5-1.58v4.56h-.81v-11.1h.81v1.43a2.73,2.73,0,0,1,2.56-1.63,2.79,2.79,0,0,1,2.46,1.27A5.08,5.08,0,0,1,179.83,196.64Zm-8.47,4h-.85v-5.44a2.42,2.42,0,0,0-.32-1.4,1.45,1.45,0,0,0-1.21-.47,2,2,0,0,0-1.53.66,2.31,2.31,0,0,0-.59,1.69v5H166v-5.35c0-1.3-.5-2-1.51-2a1.92,1.92,0,0,0-1.55.69,2.45,2.45,0,0,0-.6,1.73v4.89h-.84v-7.92h.78V194a2.45,2.45,0,0,1,2.32-1.52,1.91,1.91,0,0,1,2.07,1.57,2.45,2.45,0,0,1,2.35-1.57c1.55,0,2.34.87,2.34,2.6Zm-11.39,0h-6.76V189.65h6.59v.89h-5.67v4h5.2v.9h-5.2v4.27H160Zm-11.71-7.92-3.21,9.45a3.21,3.21,0,0,1-.71,1.25,1.77,1.77,0,0,1-1.26.46,1.67,1.67,0,0,1-.57-.08v-.84l.56.11a1.28,1.28,0,0,0,1.11-.86c.16-.5.32-1,.5-1.48l-2.83-8h.9l2.34,6.74,2.3-6.74Zm-11.17,7.92h-.83V189.65h.83Zm-3.73-3.06,0-1.09a5.07,5.07,0,0,1-1.27.25,9.16,9.16,0,0,0-1.29.13,2,2,0,0,0-1.08.52,1.5,1.5,0,0,0-.55,1.13,1.41,1.41,0,0,0,.52,1.14,1.83,1.83,0,0,0,1.14.38,2.61,2.61,0,0,0,1.79-.62A2.26,2.26,0,0,0,133.36,197.53Zm1.67,3.06a4.76,4.76,0,0,1-.61.07c-.7,0-1-.41-1-1.21a3.45,3.45,0,0,1-2.67,1.33,2.59,2.59,0,0,1-1.72-.57,2.2,2.2,0,0,1-.69-1.73,2,2,0,0,1,.64-1.63,2.82,2.82,0,0,1,1.48-.59l1.65-.23a2,2,0,0,0,.9-.24c.24-.11.37-.38.37-.79a1.77,1.77,0,0,0-.46-1.36,2.18,2.18,0,0,0-1.35-.36c-1.31,0-2,.59-2.05,1.76h-.82a2.41,2.41,0,0,1,.88-2,3.15,3.15,0,0,1,2-.61c1.79,0,2.68.8,2.68,2.39v4.29a1.34,1.34,0,0,0,.08.59.49.49,0,0,0,.39.15H135Zm-8.34,0h-.83v-7.92h.83Zm0-9.59h-.83v-1.35h.83Zm-2.32,6.84a3.07,3.07,0,0,1-.93,2.15,2.87,2.87,0,0,1-2.08.79,2.78,2.78,0,0,1-2.42-1.23,4.83,4.83,0,0,1-.77-2.86,5.1,5.1,0,0,1,.77-2.94,2.75,2.75,0,0,1,2.46-1.28,2.81,2.81,0,0,1,2,.75,2.74,2.74,0,0,1,.88,2h-.81a2.17,2.17,0,0,0-.68-1.39,2,2,0,0,0-1.39-.53,2,2,0,0,0-1.83,1.05,5.1,5.1,0,0,0,0,4.57,2,2,0,0,0,1.85,1.09,1.94,1.94,0,0,0,1.42-.59,2.71,2.71,0,0,0,.69-1.56Zm-8.2-1.2a4.53,4.53,0,0,0-.53-2.34,2.23,2.23,0,0,0-2-1,2.18,2.18,0,0,0-1.92,1,5.15,5.15,0,0,0,0,4.67,2.18,2.18,0,0,0,1.92,1,2.23,2.23,0,0,0,2-1A4.54,4.54,0,0,0,116.17,196.64Zm.88,0a4.84,4.84,0,0,1-.8,2.94,3.31,3.31,0,0,1-5.1,0,4.91,4.91,0,0,1-.78-2.94,5,5,0,0,1,.78-3,3,3,0,0,1,2.54-1.21,3,3,0,0,1,2.56,1.2A5,5,0,0,1,117.05,196.64Zm-7.9,1.06a2.94,2.94,0,0,1-1,2.43,3.69,3.69,0,0,1-2.42.75A4,4,0,0,1,103,200a3.52,3.52,0,0,1-1-2.74h.95a2.67,2.67,0,0,0,.8,2.05,3,3,0,0,0,2,.66,2.85,2.85,0,0,0,1.74-.49,2,2,0,0,0,.77-1.68,2.15,2.15,0,0,0-1.57-2.1c-1-.29-1.93-.58-2.9-.89a2.56,2.56,0,0,1-1.57-2.55,2.7,2.7,0,0,1,1-2.23,3.66,3.66,0,0,1,2.28-.7,3.52,3.52,0,0,1,2.43.82,3.42,3.42,0,0,1,1,2.5h-1a2.47,2.47,0,0,0-.7-1.86,2.53,2.53,0,0,0-1.77-.57,2.62,2.62,0,0,0-1.62.47,1.92,1.92,0,0,0-.69,1.6c0,.87.52,1.48,1.57,1.84s1.92.65,2.89.94A2.67,2.67,0,0,1,109.15,197.7Zm-13-1.06a4.33,4.33,0,0,0-.55-2.34,2.17,2.17,0,0,0-1.93-1,2.14,2.14,0,0,0-1.91,1,5.15,5.15,0,0,0,0,4.67,2.14,2.14,0,0,0,1.91,1,2.17,2.17,0,0,0,1.93-1A4.34,4.34,0,0,0,96.15,196.64Zm.88,0a4.71,4.71,0,0,1-.81,2.94,3.29,3.29,0,0,1-5.08,0,4.77,4.77,0,0,1-.79-2.94,4.88,4.88,0,0,1,.79-3,2.93,2.93,0,0,1,2.53-1.21,3,3,0,0,1,2.55,1.2A4.84,4.84,0,0,1,97,196.64Zm-8.67,0a4.33,4.33,0,0,0-.56-2.34,2.32,2.32,0,0,0-3.84,0,4.5,4.5,0,0,0-.53,2.34A4.37,4.37,0,0,0,84,199a2.31,2.31,0,0,0,3.83,0A4.33,4.33,0,0,0,88.36,196.64Zm.86,0a4.89,4.89,0,0,1-.78,2.91A2.81,2.81,0,0,1,86,200.79a2.67,2.67,0,0,1-2.5-1.58v4.56h-.83v-11.1h.83v1.43A2.7,2.7,0,0,1,86,192.47a2.75,2.75,0,0,1,2.44,1.27A4.86,4.86,0,0,1,89.22,196.64Zm-8.5,4h-.83v-1.28a2.63,2.63,0,0,1-2.44,1.48c-1.63,0-2.45-.92-2.45-2.8v-5.32h.83v5.1a2.85,2.85,0,0,0,.36,1.63,1.62,1.62,0,0,0,1.41.59,2.05,2.05,0,0,0,1.68-.76,2.83,2.83,0,0,0,.57-1.89v-4.67h.87Zm-6.86-7.17c-1.53,0-2.31.93-2.31,2.77v4.4h-.84v-7.92h.82v1.39a2.32,2.32,0,0,1,2.33-1.59Zm-5,7.17h-.74l-.1-2a3.64,3.64,0,0,1-1.46,1.68,3.76,3.76,0,0,1-2,.56,3.94,3.94,0,0,1-3.45-1.73,8.25,8.25,0,0,1,0-8.11,4,4,0,0,1,3.48-1.69,4.46,4.46,0,0,1,2.74.82,3.9,3.9,0,0,1,1.44,2.64h-1a2.9,2.9,0,0,0-1.14-1.94,3.4,3.4,0,0,0-2.07-.63,3.15,3.15,0,0,0-2.81,1.44,6.12,6.12,0,0,0-.82,3.39,6.36,6.36,0,0,0,.81,3.36A3,3,0,0,0,64.46,200a3.21,3.21,0,0,0,2.65-1.15,4.61,4.61,0,0,0,.86-3h-3.3V195h4.19Z"/><path class="cls-1" d="M220.39,213.48v-.92a3.63,3.63,0,0,1-.92.32,3.14,3.14,0,0,0-.94.31.84.84,0,0,0-.45.76,1,1,0,0,0,.25.68.79.79,0,0,0,.64.26,1.45,1.45,0,0,0,1-.37,1.34,1.34,0,0,0,.42-1m2.66,2.88h-2.46a5.26,5.26,0,0,1-.14-.84,3.06,3.06,0,0,1-2.37,1.1,2.39,2.39,0,0,1-1.67-.61,2.43,2.43,0,0,1-.65-1.76A2.32,2.32,0,0,1,217,212a7,7,0,0,1,2.22-.6c.82-.14,1.2-.34,1.2-.64v-.2c0-.47-.32-.72-1-.72a1.06,1.06,0,0,0-1.2.92H216c.21-1.81,1.38-2.71,3.48-2.71a3.24,3.24,0,0,1,2.58.84,4.51,4.51,0,0,1,.65,2.81v3.05c0,.73.12,1.14.35,1.27Zm-8.23-2.54a2.42,2.42,0,0,1-1.16,2.21,4.44,4.44,0,0,1-2.4.59,4.55,4.55,0,0,1-2.39-.58,2.49,2.49,0,0,1-1.27-2.16H210c.05.72.49,1.09,1.29,1.09s1.13-.28,1.13-.82c0-.29-.41-.57-1.19-.81a10.44,10.44,0,0,1-2.2-.8,2.1,2.1,0,0,1-1.18-1.9,2.33,2.33,0,0,1,1-2.08,3.91,3.91,0,0,1,2.2-.56c2.19,0,3.34.78,3.48,2.39h-2.34a1,1,0,0,0-1.08-.83c-.6,0-.9.25-.9.71s.39.63,1.18.85a9.72,9.72,0,0,1,2.19.74A2.07,2.07,0,0,1,214.82,213.82Zm-8.53,2.54h-2.43V212.3a7.06,7.06,0,0,0-.08-1.45.9.9,0,0,0-.95-.76c-.81,0-1.22.64-1.22,1.95v4.32h-2.43v-8.1h2.38v1.12a2.42,2.42,0,0,1,2.25-1.3,2.21,2.21,0,0,1,2,.8,3.66,3.66,0,0,1,.52,2.24Zm-10.7-4.89a1.79,1.79,0,0,0-.36-1.2,1.19,1.19,0,0,0-1-.48c-.83,0-1.3.56-1.39,1.68Zm2.35,1a3.25,3.25,0,0,1,0,.48h-5c0,1.16.43,1.73,1.33,1.73a1.13,1.13,0,0,0,1.22-.87h2.35a3.33,3.33,0,0,1-1.37,2.08,3.6,3.6,0,0,1-2.3.7,3.4,3.4,0,0,1-2.75-1.17,4.56,4.56,0,0,1-1-3.07,4.84,4.84,0,0,1,1-3.13,3.77,3.77,0,0,1,5.61,0A5,5,0,0,1,197.94,212.48Zm-8.1-2.38h-1.2v6.26H186.2V210.1h-1.06v-1.62h1.06a4,4,0,0,1,0-.54,2.63,2.63,0,0,1,.65-2,2.79,2.79,0,0,1,1.94-.57c.27,0,.63,0,1.07,0v1.76a1.84,1.84,0,0,0-.36,0c-.4,0-.65.13-.75.38a3,3,0,0,0-.09,1h1.2Zm-7.61,1.37a1.84,1.84,0,0,0-.35-1.2,1.22,1.22,0,0,0-1-.48c-.84,0-1.29.56-1.38,1.68Zm2.35,1a3.25,3.25,0,0,1,0,.48h-5c0,1.16.42,1.73,1.31,1.73a1.17,1.17,0,0,0,1.25-.87h2.33a3.39,3.39,0,0,1-1.35,2.08,3.68,3.68,0,0,1-2.32.7,3.36,3.36,0,0,1-2.73-1.17,4.51,4.51,0,0,1-1-3.07,4.78,4.78,0,0,1,1-3.13,3.37,3.37,0,0,1,2.76-1.23,3.41,3.41,0,0,1,2.85,1.27A5,5,0,0,1,184.58,212.48Zm-11.16-1.58a4.53,4.53,0,0,0-.46-2.27,2,2,0,0,0-1.85-.91H169.7v6.34h1.41a2,2,0,0,0,1.85-.92A4.41,4.41,0,0,0,173.42,210.9Zm2.61,0q0,5.46-4.94,5.46h-4V205.43h4.3a4.2,4.2,0,0,1,3.5,1.49A6.37,6.37,0,0,1,176,210.9Zm-17.13,2.58v-.92a3.26,3.26,0,0,1-.9.32,3.34,3.34,0,0,0-.95.31.86.86,0,0,0-.46.76,1,1,0,0,0,.26.68.83.83,0,0,0,.64.26,1.52,1.52,0,0,0,1-.37A1.39,1.39,0,0,0,158.9,213.48Zm2.69,2.88H159.1a6.85,6.85,0,0,1-.11-.84,3.13,3.13,0,0,1-2.37,1.1,2.41,2.41,0,0,1-1.69-.61,2.38,2.38,0,0,1-.64-1.76A2.3,2.3,0,0,1,155.5,212a7.15,7.15,0,0,1,2.21-.6c.8-.14,1.19-.34,1.19-.64v-.2c0-.47-.32-.72-1-.72a1.06,1.06,0,0,0-1.21.92H154.5c.23-1.81,1.39-2.71,3.5-2.71a3.2,3.2,0,0,1,2.57.84,4.5,4.5,0,0,1,.66,2.81v3.05c0,.73.12,1.14.36,1.27Zm-8.63,0h-2.42V205.43H153Zm-10.15-4.89a2,2,0,0,0-.34-1.2,1.19,1.19,0,0,0-1-.48q-1.24,0-1.38,1.68Zm2.36,1c0,.2,0,.36,0,.48h-5c0,1.16.42,1.73,1.32,1.73a1.12,1.12,0,0,0,1.23-.87h2.36a3.45,3.45,0,0,1-1.36,2.08,3.7,3.7,0,0,1-2.3.7,3.42,3.42,0,0,1-2.76-1.17,4.62,4.62,0,0,1-1-3.07,4.84,4.84,0,0,1,1-3.13,3.76,3.76,0,0,1,5.6,0A5,5,0,0,1,145.17,212.48Zm-11.2-.24c0-1.41-.48-2.14-1.44-2.14a1.22,1.22,0,0,0-1.12.72,3,3,0,0,0-.28,1.42c0,1.48.46,2.22,1.42,2.22S134,213.72,134,212.24Zm2.39,4.14h-2.43v-1.09a2.44,2.44,0,0,1-2.2,1.29,2.72,2.72,0,0,1-2.38-1.31,5.5,5.5,0,0,1-.75-2.91,5.64,5.64,0,0,1,.74-2.93,2.66,2.66,0,0,1,2.35-1.41,2.42,2.42,0,0,1,2.24,1.28v-3.87h2.43Z"/><path class="cls-1" d="M66.54,223.38v2.42l-2.25,0v-2.4m6.74,0v2.42H68.77v-2.42m6.74,0v2.43l-2.24,0v-2.42m6.73,0v2.43l-2.24,0v-2.42m6.74,0v2.42H82.25v-2.43m6.72,0v2.41H86.74v-2.41m6.73,0v2.42H91.23v-2.41m6.73,0v2.41H95.7v-2.41m6.75,0v2.41H100.2v-2.42m6.74,0v2.43l-2.25,0V223.5m6.74,0v2.41h-2.24v-2.42m6.72,0V226h-2.24v-2.43m6.74,0V226l-2.25,0v-2.41m6.73,0V226h-2.23v-2.41m6.72,0V226h-2.24v-2.42m6.72,0V226h-2.25v-2.42m6.76,0V226h-2.26V223.6m6.75,0V226H140.6v-2.42m6.75,0v2.42H145.1v-2.41m6.72,0v2.42h-2.23v-2.42m6.73,0v2.41h-2.24v-2.41m6.73,0v2.42l-2.26,0v-2.42m6.75,0v2.42h-2.25v-2.42m6.73,0v2.42h-2.23v-2.42m6.73,0v2.41H172v-2.42m6.73,0v2.43h-2.23v-2.43m6.72,0v2.42H181v-2.43m6.74,0v2.42h-2.26v-2.41m6.74,0v2.41H190v-2.4m6.75,0v2.44l-2.26,0v-2.41m6.73,0v2.42H199v-2.42m6.75,0v2.42h-2.25v-2.42m6.73,0v2.42H208v-2.42m6.72,0v2.42h-2.25v-2.42m6.73,0v2.4h-2.25v-2.42m6.75,0v2.42l-2.24,0v-2.4M62,223.36v2.41H59.81v-2.42Z"/></svg>