<svg id="Capa_1" data-name="Capa 1" xmlns="http://www.w3.org/2000/svg" viewBox="0 0 283.46 283.46"><defs><style>.cls-1{fill:#fff;}.cls-2{fill:#008fd4;}</style></defs><path class="cls-1" d="M183.71,27.06a19.82,19.82,0,0,1,19.82,19.82V190.07a19.82,19.82,0,0,1-19.82,19.82h-84a19.82,19.82,0,0,1-19.82-19.82V46.88A19.82,19.82,0,0,1,99.75,27.06h84m-84,179.84h84a16.86,16.86,0,0,0,16.83-16.83V138.38a111.12,111.12,0,0,1-117.61-.09v51.78A16.84,16.84,0,0,0,99.75,206.9m0-3a13.84,13.84,0,0,1-13.82-13.83V143.55a114.12,114.12,0,0,0,111.61.09v46.43a13.84,13.84,0,0,1-13.83,13.83Z"/><path class="cls-2" d="M99.75,211.39a21.35,21.35,0,0,1-21.32-21.32V46.88A21.35,21.35,0,0,1,99.75,25.56h84A21.34,21.34,0,0,1,205,46.88V190.07a21.34,21.34,0,0,1-21.32,21.32ZM84.43,190.07A15.34,15.34,0,0,0,99.75,205.4h84A15.35,15.35,0,0,0,199,190.07V141A112.62,112.62,0,0,1,84.43,141Z"/><path class="cls-1" d="M200.54,138.38v51.69a16.85,16.85,0,0,1-16.83,16.82h-84a16.83,16.83,0,0,1-16.82-16.82V138.29a111.12,111.12,0,0,0,117.61.09"/><rect class="cls-2" x="103.28" y="171.2" width="2.69" height="14.16"/><path class="cls-2" d="M108.72,184.42l.6-2.19a10.13,10.13,0,0,0,1.75.7,6.14,6.14,0,0,0,1.79.3,3.7,3.7,0,0,0,1.89-.39,1.28,1.28,0,0,0,.65-1.15,1.25,1.25,0,0,0-.51-.95,10.67,10.67,0,0,0-1.57-1l-.63-.38c-.93-.55-1.66-1-2.21-1.43a6.64,6.64,0,0,1-1.42-1.43,3,3,0,0,1-.59-1.84,3.41,3.41,0,0,1,.58-1.95,3.8,3.8,0,0,1,1.68-1.35,6.27,6.27,0,0,1,2.61-.49,9.38,9.38,0,0,1,4,1.06l-.9,2.16a13.55,13.55,0,0,0-1.55-.64,4.92,4.92,0,0,0-1.51-.23,2.94,2.94,0,0,0-1.53.36,1.18,1.18,0,0,0-.59,1.08,1.3,1.3,0,0,0,.46,1,12.1,12.1,0,0,0,1.54,1l.66.37.61.35c.81.48,1.47.89,2,1.24A5,5,0,0,1,117.7,180a3.19,3.19,0,0,1,.49,1.78,3.41,3.41,0,0,1-.62,2,4,4,0,0,1-1.81,1.38,7.43,7.43,0,0,1-2.86.5,7.8,7.8,0,0,1-2.17-.39,8.26,8.26,0,0,1-2-.82"/><path class="cls-2" d="M126.37,170.87a7,7,0,0,1,3.73,1,6.29,6.29,0,0,1,2.4,2.63,8.9,8.9,0,0,1-.05,7.57,6.52,6.52,0,0,1-2.45,2.62,7.21,7.21,0,0,1-3.63,1,7,7,0,0,1-3.72-1,6.43,6.43,0,0,1-2.39-2.62,8.23,8.23,0,0,1-.82-3.72,8.34,8.34,0,0,1,.86-3.83,6.5,6.5,0,0,1,2.45-2.64,7,7,0,0,1,3.62-1m-4.12,7.45a6.46,6.46,0,0,0,.5,2.63,4.06,4.06,0,0,0,1.42,1.79,3.73,3.73,0,0,0,2.18.64,4,4,0,0,0,2.11-.57,4,4,0,0,0,1.5-1.75,6.69,6.69,0,0,0,.55-2.86,6.36,6.36,0,0,0-.5-2.61,4.12,4.12,0,0,0-1.43-1.79,3.75,3.75,0,0,0-2.17-.64,3.66,3.66,0,0,0-2.07.63,4.48,4.48,0,0,0-1.52,1.81,6.18,6.18,0,0,0-.57,2.72"/><path class="cls-2" d="M146.55,173.94a4.53,4.53,0,0,1,1.91,1.87,6.23,6.23,0,0,1,.68,3,6.55,6.55,0,0,1-1.27,4,9.2,9.2,0,0,1-3.14,2.71,10.55,10.55,0,0,1-3.7,1.23l-.38-2.23q3.87-1,5.25-3.08a4.77,4.77,0,0,1-2.09.48,4.68,4.68,0,0,1-2.33-.58,4.37,4.37,0,0,1-1.63-1.56,4.07,4.07,0,0,1-.59-2.17,4.34,4.34,0,0,1,.58-2.25,4.13,4.13,0,0,1,1.6-1.53,4.87,4.87,0,0,1,2.31-.55,5.87,5.87,0,0,1,2.8.64m-4.26,5.22a2.1,2.1,0,0,0,1.59.66,4.54,4.54,0,0,0,2.75-.85,3.9,3.9,0,0,0-.78-2.59,2.54,2.54,0,0,0-2-.85,2.24,2.24,0,0,0-1.55.58,1.89,1.89,0,0,0-.62,1.42,2.28,2.28,0,0,0,.62,1.63"/><path class="cls-2" d="M150.19,179.42a6.64,6.64,0,0,1,.74-3.14,5.6,5.6,0,0,1,2.07-2.19,5.81,5.81,0,0,1,3-.79,5.73,5.73,0,0,1,3,.78,5.41,5.41,0,0,1,2.06,2.18,6.59,6.59,0,0,1,.74,3.12,6.83,6.83,0,0,1-.75,3.22,5.69,5.69,0,0,1-10.08,0,6.85,6.85,0,0,1-.74-3.19m2.47-.06a4.76,4.76,0,0,0,.43,2,3.4,3.4,0,0,0,1.19,1.42,3,3,0,0,0,1.71.51,3.09,3.09,0,0,0,1.72-.5,3.42,3.42,0,0,0,1.19-1.38,4.48,4.48,0,0,0,.42-2,4.44,4.44,0,0,0-.43-2,3.55,3.55,0,0,0-1.2-1.39,3.18,3.18,0,0,0-3.41,0,3.36,3.36,0,0,0-1.19,1.34,4.36,4.36,0,0,0-.43,1.94"/><path class="cls-2" d="M162.8,179.42a6.53,6.53,0,0,1,.75-3.14,5.6,5.6,0,0,1,2.07-2.19,5.78,5.78,0,0,1,3-.79,5.69,5.69,0,0,1,3,.78,5.35,5.35,0,0,1,2.06,2.18,6.48,6.48,0,0,1,.74,3.12,6.94,6.94,0,0,1-.74,3.22,5.69,5.69,0,0,1-10.08,0,6.73,6.73,0,0,1-.75-3.19m2.48-.06a4.76,4.76,0,0,0,.42,2,3.47,3.47,0,0,0,1.19,1.42,3.16,3.16,0,0,0,3.43,0,3.34,3.34,0,0,0,1.19-1.38,4.49,4.49,0,0,0,.43-2,4.44,4.44,0,0,0-.44-2,3.47,3.47,0,0,0-1.2-1.39,3,3,0,0,0-1.71-.5,3.13,3.13,0,0,0-1.7.49,3.43,3.43,0,0,0-1.19,1.34,4.35,4.35,0,0,0-.42,1.94"/><polygon class="cls-2" points="178.5 185.36 178.5 176.57 176.12 177.49 175.1 175.47 179.39 173.57 181.2 173.57 181.2 185.36 178.5 185.36"/><path class="cls-1" d="M141.74,82.61a9.55,9.55,0,1,1,9.55-9.54,9.56,9.56,0,0,1-9.55,9.54m0-15.55a6,6,0,1,0,6,6,6,6,0,0,0-6-6"/><path class="cls-1" d="M124.25,88.1a23.06,23.06,0,0,1-1.92-27.48l-2.83-2.13a26.57,26.57,0,0,0,2.24,32.11Z"/><path class="cls-1" d="M121.74,55.53,124.25,58a22.61,22.61,0,0,1,2.49-2.5L124.24,53a28.09,28.09,0,0,0-2.5,2.5"/><path class="cls-1" d="M141.82,46.4a26.54,26.54,0,0,0-14.63,4.39l2.13,2.82a23.11,23.11,0,0,1,28.41,2.68l3.09-1.91a26.43,26.43,0,0,0-19-8"/><path class="cls-1" d="M152.44,83A14.52,14.52,0,1,1,150,61.06l3.22-2a18.08,18.08,0,1,0,2.1,26Z"/><path class="cls-1" d="M154.67,92.28a23.05,23.05,0,0,1-27.92-1.68l-2.51,2.5a26.59,26.59,0,0,0,32.62,2Z"/><path class="cls-1" d="M163.2,57.05l-10.34,6.4a16.15,16.15,0,0,1,3.48,9.63,14.39,14.39,0,0,1-1.82,7l2.88,2.08a18,18,0,0,0,.36-17.61l4.31-2.66a23.13,23.13,0,0,1-4.63,28.18l2.2,2.78a26.59,26.59,0,0,0,8.83-19.78,27.66,27.66,0,0,0-5.27-16"/><path class="cls-1" d="M122.79,113a7.46,7.46,0,1,0,7.48,7.46,7.48,7.48,0,0,0-7.48-7.46m0,11.85a4.4,4.4,0,1,1,4.41-4.39,4.4,4.4,0,0,1-4.41,4.39"/><path class="cls-1" d="M97.75,127.42H94.63V114.67h3.12Zm-1.56-14.37a1.9,1.9,0,1,1,1.9-1.89,1.87,1.87,0,0,1-1.9,1.89"/><path class="cls-1" d="M140.27,112.93a7.48,7.48,0,0,0-7.49,7.46v7.16h3.3v-7.4a4.18,4.18,0,0,1,8.36-.08v7.48h3.3V120.4a7.49,7.49,0,0,0-7.48-7.47"/><path class="cls-1" d="M157.8,125.07h0s-.49,0-.69,0c-1.34,0-2-.34-2-2.24v-7.29h2.79v-2.43h-2.78v-2.86h-3.3v2.86H150v2.42h1.9v6.86a7.67,7.67,0,0,0,.7,3.59,3.81,3.81,0,0,0,3.64,1.9,9.09,9.09,0,0,0,1.61-.16Z"/><path class="cls-1" d="M108.17,127.91a7.5,7.5,0,1,1,5.47-12.64l-2,2.47a4.53,4.53,0,0,0-3.46-1.69,4.37,4.37,0,1,0,0,8.73,4.49,4.49,0,0,0,3.5-1.72l2,2.47a7.59,7.59,0,0,1-5.51,2.38"/><path class="cls-1" d="M183.8,127.91a7.5,7.5,0,1,1,5.48-12.64l-2,2.47a4.56,4.56,0,0,0-3.47-1.69,4.37,4.37,0,1,0,0,8.73,4.47,4.47,0,0,0,3.5-1.72l2,2.47a7.59,7.59,0,0,1-5.51,2.38"/><path class="cls-1" d="M167,112.86c-4.38,0-7,3.63-7,7.58a7.15,7.15,0,0,0,7.47,7.48,6.88,6.88,0,0,0,6.12-3.31l-2.26-1.69a4.46,4.46,0,0,1-3.81,2,4,4,0,0,1-4.28-3.66h10.67s0-.69,0-.93c0-3.23-1.6-7.51-6.93-7.51m-3.65,6a3.62,3.62,0,0,1,3.68-3.15,3.39,3.39,0,0,1,3.57,3.16Z"/><path d="M99.88,252.56l1.58.49a6.68,6.68,0,0,1-1.84,3.65,4.52,4.52,0,0,1-3.19,1.21,4.9,4.9,0,0,1-2.84-.81,5.74,5.74,0,0,1-1.92-2.59,10.86,10.86,0,0,1-.75-4.22,9.81,9.81,0,0,1,.75-4.06,5.81,5.81,0,0,1,2-2.52,5.1,5.1,0,0,1,2.86-.84,4.37,4.37,0,0,1,3,1.07,5.84,5.84,0,0,1,1.73,3.15l-1.54.45q-.8-3-3.19-3a3.61,3.61,0,0,0-2.07.61,4.16,4.16,0,0,0-1.39,1.9,8.75,8.75,0,0,0-.52,3.27,7.82,7.82,0,0,0,1,4.48,3.25,3.25,0,0,0,2.8,1.49,3.07,3.07,0,0,0,2.22-.91A5,5,0,0,0,99.88,252.56Z"/><path d="M103,250.58a8.84,8.84,0,0,1,1.64-5.72,5.06,5.06,0,0,1,4.07-2,5,5,0,0,1,2.88.89,6,6,0,0,1,2,2.59,9.86,9.86,0,0,1,.76,4.05,8.85,8.85,0,0,1-1.46,5.27,5,5,0,0,1-4.24,2.24,5,5,0,0,1-4.24-2.3A8.58,8.58,0,0,1,103,250.58Zm1.63,0a6.53,6.53,0,0,0,1.18,4.17,3.56,3.56,0,0,0,5.79,0,7,7,0,0,0,1.18-4.4,8.71,8.71,0,0,0-.61-3.36,4.21,4.21,0,0,0-1.4-1.81,3.45,3.45,0,0,0-2.05-.68,3.58,3.58,0,0,0-2.94,1.49A7.5,7.5,0,0,0,104.62,250.61Z"/><path d="M115.63,253.3v-1.8h4.49v1.8Z"/><path d="M121.4,253l1.49-.16a4.37,4.37,0,0,0,.54,1.87,3,3,0,0,0,1.21,1.08,3.77,3.77,0,0,0,1.76.4,3.24,3.24,0,0,0,2.19-.68,2.28,2.28,0,0,0,.78-1.79,2.15,2.15,0,0,0-.29-1.12,2,2,0,0,0-.85-.79,17.17,17.17,0,0,0-2.46-.87,8.65,8.65,0,0,1-2.4-1,3.45,3.45,0,0,1-1.11-1.29,3.74,3.74,0,0,1-.4-1.76A3.86,3.86,0,0,1,123,244a4.19,4.19,0,0,1,3.07-1.12,4.91,4.91,0,0,1,2.33.52A3.76,3.76,0,0,1,130,244.9a5.06,5.06,0,0,1,.59,2.31l-1.52.14a3.09,3.09,0,0,0-.85-2.1,2.86,2.86,0,0,0-2-.69,3.07,3.07,0,0,0-2,.6,1.94,1.94,0,0,0-.7,1.55,1.8,1.8,0,0,0,.51,1.37,6.25,6.25,0,0,0,2.32,1,14.79,14.79,0,0,1,2.48.84,4,4,0,0,1,1.65,1.47,4,4,0,0,1,.55,2.16,4.49,4.49,0,0,1-.58,2.27,3.85,3.85,0,0,1-1.59,1.56,5.07,5.07,0,0,1-2.43.54,4.7,4.7,0,0,1-3.52-1.33A5.09,5.09,0,0,1,121.4,253Z"/><path d="M141.5,252.56l1.59.49a6.68,6.68,0,0,1-1.84,3.65,4.52,4.52,0,0,1-3.2,1.21,4.89,4.89,0,0,1-2.83-.81,5.74,5.74,0,0,1-1.92-2.59,10.86,10.86,0,0,1-.75-4.22,9.81,9.81,0,0,1,.75-4.06,5.81,5.81,0,0,1,2-2.52,5.1,5.1,0,0,1,2.86-.84,4.37,4.37,0,0,1,3,1.07,5.84,5.84,0,0,1,1.73,3.15l-1.54.45c-.53-2-1.6-3-3.19-3a3.58,3.58,0,0,0-2.07.61,4.09,4.09,0,0,0-1.39,1.9,8.75,8.75,0,0,0-.52,3.27,7.82,7.82,0,0,0,1,4.48,3.24,3.24,0,0,0,2.79,1.49,3.07,3.07,0,0,0,2.23-.91A5,5,0,0,0,141.5,252.56Z"/><path d="M152.15,256v1.71h-7.88a4.9,4.9,0,0,1,.63-2.33,12.89,12.89,0,0,1,2.42-3.05,17.15,17.15,0,0,0,2.68-3.16,4.19,4.19,0,0,0,.64-2.08,2.57,2.57,0,0,0-.65-1.81,2.14,2.14,0,0,0-1.6-.7,2.1,2.1,0,0,0-1.68.76,3.2,3.2,0,0,0-.65,2.17l-1.51-.19a4.88,4.88,0,0,1,1.18-3.15,3.64,3.64,0,0,1,2.71-1.06,3.27,3.27,0,0,1,2.76,1.23,4.51,4.51,0,0,1,.93,2.8,5.26,5.26,0,0,1-.73,2.66,19.71,19.71,0,0,1-2.79,3.4c-.87.89-1.43,1.5-1.69,1.82a5.9,5.9,0,0,0-.62,1Z"/><path d="M153.92,254.3l1.41-.16c.22,1.53.88,2.3,2,2.3a2,2,0,0,0,1.33-.5,3.86,3.86,0,0,0,1-1.78,9.57,9.57,0,0,0,.42-3v-.36a3.81,3.81,0,0,1-1.23,1.4,2.84,2.84,0,0,1-1.58.51,3.16,3.16,0,0,1-2.51-1.27A5.27,5.27,0,0,1,153.7,248a5.42,5.42,0,0,1,1.1-3.59,3.31,3.31,0,0,1,4.73-.58A4.67,4.67,0,0,1,161,246a12.49,12.49,0,0,1,.52,4.12,15,15,0,0,1-.56,4.65,5.16,5.16,0,0,1-1.53,2.42,3.42,3.42,0,0,1-2.17.76A3,3,0,0,1,155,257,4.32,4.32,0,0,1,153.92,254.3Zm6-6.42a3.84,3.84,0,0,0-.7-2.45,2,2,0,0,0-1.6-.9,2.1,2.1,0,0,0-1.68,1,4,4,0,0,0-.74,2.54,3.47,3.47,0,0,0,.7,2.28,2.16,2.16,0,0,0,1.69.85,2,2,0,0,0,1.65-.86A3.81,3.81,0,0,0,159.92,247.88Z"/><path d="M163.18,254.3l1.41-.16c.22,1.53.88,2.3,2,2.3a2.07,2.07,0,0,0,1.34-.5,3.86,3.86,0,0,0,1-1.78,9.57,9.57,0,0,0,.42-3v-.36a3.72,3.72,0,0,1-1.23,1.4,2.84,2.84,0,0,1-1.58.51,3.16,3.16,0,0,1-2.51-1.27A5.27,5.27,0,0,1,163,248a5.42,5.42,0,0,1,1.1-3.59,3.31,3.31,0,0,1,4.73-.58,4.67,4.67,0,0,1,1.49,2.16,12.45,12.45,0,0,1,.53,4.12,14.94,14.94,0,0,1-.57,4.65,5.16,5.16,0,0,1-1.53,2.42,3.42,3.42,0,0,1-2.17.76,3.06,3.06,0,0,1-2.27-.93A4.32,4.32,0,0,1,163.18,254.3Zm6-6.42a3.84,3.84,0,0,0-.7-2.45,2,2,0,0,0-1.6-.9,2.12,2.12,0,0,0-1.68,1,4,4,0,0,0-.74,2.54,3.47,3.47,0,0,0,.71,2.28,2.14,2.14,0,0,0,1.69.85,2,2,0,0,0,1.64-.86A3.81,3.81,0,0,0,169.18,247.88Z"/><path d="M179.94,256v1.71h-7.88a4.9,4.9,0,0,1,.63-2.33,13.07,13.07,0,0,1,2.41-3.05,17.31,17.31,0,0,0,2.69-3.16,4.27,4.27,0,0,0,.63-2.08,2.53,2.53,0,0,0-.65-1.81,2.11,2.11,0,0,0-1.6-.7,2.08,2.08,0,0,0-1.67.76,3.2,3.2,0,0,0-.66,2.17l-1.51-.19a4.89,4.89,0,0,1,1.19-3.15,3.6,3.6,0,0,1,2.7-1.06,3.24,3.24,0,0,1,2.76,1.23,4.46,4.46,0,0,1,.94,2.8,5.36,5.36,0,0,1-.73,2.66,19.71,19.71,0,0,1-2.79,3.4c-.87.89-1.44,1.5-1.69,1.82a5.31,5.31,0,0,0-.62,1Z"/><path d="M181.35,253.3v-1.8h4.49v1.8Z"/><path d="M192.54,257.66h-1.46V246.29a8,8,0,0,1-1.36,1.21,8.31,8.31,0,0,1-1.57.94v-1.73a8.82,8.82,0,0,0,2.14-1.69,6.53,6.53,0,0,0,1.3-2h.95Z"/></svg>