<svg id="Capa_1" data-name="Capa 1" xmlns="http://www.w3.org/2000/svg" viewBox="0 0 283.46 283.46"><defs><style>.cls-1{fill:#1d1d1b;}.cls-2{fill:#fff;}.cls-3{fill:#008fd4;}</style></defs><path class="cls-1" d="M84.17,253l1.48-.16a4.47,4.47,0,0,0,.54,1.87,3.1,3.1,0,0,0,1.21,1.08,3.78,3.78,0,0,0,1.77.4,3.17,3.17,0,0,0,2.18-.68,2.28,2.28,0,0,0,.78-1.79,2.14,2.14,0,0,0-.28-1.12,2.1,2.1,0,0,0-.85-.79,18,18,0,0,0-2.47-.87,8.62,8.62,0,0,1-2.4-1A3.54,3.54,0,0,1,85,248.63a3.86,3.86,0,0,1-.39-1.76A3.82,3.82,0,0,1,85.77,244a4.18,4.18,0,0,1,3.07-1.13,4.9,4.9,0,0,1,2.32.53,3.64,3.64,0,0,1,1.55,1.51,4.94,4.94,0,0,1,.59,2.31l-1.52.14a3.18,3.18,0,0,0-.84-2.11,2.91,2.91,0,0,0-2-.68,3.07,3.07,0,0,0-2,.6,2,2,0,0,0-.71,1.55,1.76,1.76,0,0,0,.52,1.37,6.09,6.09,0,0,0,2.32,1,15.13,15.13,0,0,1,2.48.84,4,4,0,0,1,1.64,1.47,4,4,0,0,1,.56,2.16,4.56,4.56,0,0,1-.59,2.28,4,4,0,0,1-1.59,1.56,5.18,5.18,0,0,1-2.42.53,4.73,4.73,0,0,1-3.53-1.33A5.07,5.07,0,0,1,84.17,253Z"/><path class="cls-1" d="M98.87,257.66V244.84H94.94v-1.72h9.45v1.72h-4v12.82Z"/><path class="cls-1" d="M104.31,253.3v-1.8h4.49v1.8Z"/><path class="cls-1" d="M119.08,252.57l1.58.48a6.75,6.75,0,0,1-1.84,3.66,4.55,4.55,0,0,1-3.19,1.2,4.84,4.84,0,0,1-2.83-.81,5.68,5.68,0,0,1-1.93-2.59,10.86,10.86,0,0,1-.75-4.22,9.89,9.89,0,0,1,.75-4.07,5.84,5.84,0,0,1,2-2.51,5.13,5.13,0,0,1,2.86-.85,4.38,4.38,0,0,1,3,1.08,5.78,5.78,0,0,1,1.74,3.15l-1.55.45q-.8-3-3.19-3a3.48,3.48,0,0,0-2.06.61,4.1,4.1,0,0,0-1.4,1.9,8.75,8.75,0,0,0-.52,3.27,7.82,7.82,0,0,0,1,4.48,3.27,3.27,0,0,0,2.8,1.49,3.05,3.05,0,0,0,2.22-.91A5,5,0,0,0,119.08,252.57Z"/><path class="cls-1" d="M122.66,257.66V243.12h8.62v1.72h-7v4.44h6.6V251h-6.6V256h7.32v1.71Z"/><path class="cls-1" d="M133.73,257.66V243.12H139a5.64,5.64,0,0,1,2.45.41,3.13,3.13,0,0,1,1.29,1.35,4.58,4.58,0,0,1,.5,2.2,3.68,3.68,0,0,1-3.35,4,4.24,4.24,0,0,1,1,.81,9.72,9.72,0,0,1,1.24,1.86l2.09,4h-2l-1.59-3a19,19,0,0,0-1.39-2.39,2.81,2.81,0,0,0-.91-.83,3,3,0,0,0-1.24-.21h-1.82v6.45Zm1.58-8.12h3.39a4.16,4.16,0,0,0,1.69-.27,2.1,2.1,0,0,0,.91-.84,2.54,2.54,0,0,0,.34-1.34,2.31,2.31,0,0,0-.65-1.73,2.63,2.63,0,0,0-1.91-.63h-3.77Z"/><path class="cls-1" d="M147.4,249.77a2.86,2.86,0,0,1-1.33-1.13,3.48,3.48,0,0,1-.45-1.84,3.81,3.81,0,0,1,1-2.7,3.4,3.4,0,0,1,4.91,0,3.86,3.86,0,0,1,1,2.74,3.43,3.43,0,0,1-.44,1.78,2.9,2.9,0,0,1-1.32,1.13,3.33,3.33,0,0,1,1.66,1.38,5.06,5.06,0,0,1-.54,5.53,3.8,3.8,0,0,1-5.6,0,4.56,4.56,0,0,1-1.12-3.22,4.4,4.4,0,0,1,.6-2.4A3,3,0,0,1,147.4,249.77Zm-.77,3.7a3.22,3.22,0,0,0,.72,2.16,2.22,2.22,0,0,0,1.72.81,2.2,2.2,0,0,0,1.71-.79,3.54,3.54,0,0,0,0-4.28,2.22,2.22,0,0,0-1.73-.82,2.17,2.17,0,0,0-1.7.81A3.18,3.18,0,0,0,146.63,253.47Zm.49-6.72a2.44,2.44,0,0,0,.57,1.7,1.83,1.83,0,0,0,2.75,0,2.34,2.34,0,0,0,.56-1.61,2.39,2.39,0,0,0-.58-1.67,1.79,1.79,0,0,0-1.37-.65,1.75,1.75,0,0,0-1.36.64A2.27,2.27,0,0,0,147.12,246.75Z"/><path class="cls-1" d="M156.66,249.77a2.86,2.86,0,0,1-1.33-1.13,3.58,3.58,0,0,1-.44-1.84,3.81,3.81,0,0,1,1-2.7,3.4,3.4,0,0,1,4.91,0,3.86,3.86,0,0,1,1,2.74,3.43,3.43,0,0,1-.44,1.78,2.93,2.93,0,0,1-1.31,1.13,3.35,3.35,0,0,1,1.65,1.38,4.44,4.44,0,0,1,.59,2.36,4.49,4.49,0,0,1-1.13,3.17,3.79,3.79,0,0,1-5.59,0,4.57,4.57,0,0,1-1.13-3.22,4.4,4.4,0,0,1,.6-2.4A3,3,0,0,1,156.66,249.77Zm-.76,3.7a3.17,3.17,0,0,0,.72,2.16,2.23,2.23,0,0,0,3.42,0,3.54,3.54,0,0,0,0-4.28,2.21,2.21,0,0,0-1.73-.82,2.15,2.15,0,0,0-1.69.81A3.12,3.12,0,0,0,155.9,253.47Zm.48-6.72a2.44,2.44,0,0,0,.57,1.7,1.83,1.83,0,0,0,2.75,0,2.29,2.29,0,0,0,.56-1.61,2.39,2.39,0,0,0-.58-1.67,1.78,1.78,0,0,0-1.37-.65,1.75,1.75,0,0,0-1.36.64A2.27,2.27,0,0,0,156.38,246.75Z"/><path class="cls-1" d="M163.76,245v-1.72h7.71v1.39a21.9,21.9,0,0,0-3,5.84,24.78,24.78,0,0,0-1.5,7.12h-1.5a20.88,20.88,0,0,1,.58-4.25,24.69,24.69,0,0,1,1.51-4.64,20.58,20.58,0,0,1,2.06-3.74Z"/><path class="cls-1" d="M172.92,250.49a12.35,12.35,0,0,1,1-5.54,3.14,3.14,0,0,1,2.91-1.89,3,3,0,0,1,2.69,1.53q1.19,1.84,1.19,5.9a12.38,12.38,0,0,1-1,5.53,3.14,3.14,0,0,1-2.92,1.89,3.25,3.25,0,0,1-2.79-1.67C173.29,255.13,172.92,253.22,172.92,250.49Zm1.5,0a11.07,11.07,0,0,0,.68,4.75,2,2,0,0,0,1.75,1.2,1.94,1.94,0,0,0,1.68-1.22,11.06,11.06,0,0,0,.67-4.73c0-2.37-.23-4-.68-4.76a2,2,0,0,0-1.76-1.2,2,2,0,0,0-1.67,1.22A11.31,11.31,0,0,0,174.42,250.49Z"/><path class="cls-1" d="M182.29,245v-1.72H190v1.39a21.61,21.61,0,0,0-3,5.84,24.8,24.8,0,0,0-1.51,7.12H184a21.61,21.61,0,0,1,.58-4.25,26.23,26.23,0,0,1,1.51-4.64,20.58,20.58,0,0,1,2.07-3.74Z"/><path class="cls-1" d="M191.67,254.3l1.41-.16c.22,1.54.89,2.3,2,2.3a2,2,0,0,0,1.34-.5,3.72,3.72,0,0,0,1-1.78,9.57,9.57,0,0,0,.42-3v-.36a3.81,3.81,0,0,1-1.23,1.4,2.84,2.84,0,0,1-1.58.51,3.16,3.16,0,0,1-2.51-1.27,5.27,5.27,0,0,1-1.06-3.49,5.42,5.42,0,0,1,1.1-3.59,3.31,3.31,0,0,1,4.73-.58,4.67,4.67,0,0,1,1.49,2.16,12.43,12.43,0,0,1,.53,4.11,15,15,0,0,1-.57,4.66,5.16,5.16,0,0,1-1.53,2.42,3.42,3.42,0,0,1-2.17.76,3.06,3.06,0,0,1-2.27-.93A4.29,4.29,0,0,1,191.67,254.3Zm6-6.42a3.84,3.84,0,0,0-.7-2.45,2,2,0,0,0-1.59-.9,2.11,2.11,0,0,0-1.69,1A4,4,0,0,0,193,248a3.47,3.47,0,0,0,.7,2.28,2.17,2.17,0,0,0,1.69.85,2,2,0,0,0,1.65-.86A3.83,3.83,0,0,0,197.67,247.88Z"/><path class="cls-2" d="M183.71,27.05a19.82,19.82,0,0,1,19.82,19.83V190.07a19.82,19.82,0,0,1-19.82,19.82h-84a19.82,19.82,0,0,1-19.82-19.82V46.88A19.82,19.82,0,0,1,99.75,27.05h84m-84,179.85h84a16.86,16.86,0,0,0,16.83-16.83V138.38a111.12,111.12,0,0,1-117.61-.09v51.78A16.84,16.84,0,0,0,99.75,206.9m0-3a13.84,13.84,0,0,1-13.82-13.83V143.55a114.12,114.12,0,0,0,111.61.09v46.43a13.84,13.84,0,0,1-13.83,13.83Z"/><path class="cls-3" d="M99.75,211.39a21.35,21.35,0,0,1-21.32-21.32V46.88A21.35,21.35,0,0,1,99.75,25.55h84A21.35,21.35,0,0,1,205,46.88V190.07a21.34,21.34,0,0,1-21.32,21.32ZM84.43,190.07A15.34,15.34,0,0,0,99.75,205.4h84A15.35,15.35,0,0,0,199,190.07V141A112.62,112.62,0,0,1,84.43,141Z"/><path class="cls-2" d="M200.54,138.38v51.69a16.85,16.85,0,0,1-16.83,16.82h-84a16.83,16.83,0,0,1-16.82-16.82V138.29a111.12,111.12,0,0,0,117.61.09"/><path class="cls-2" d="M141.74,82.61a9.55,9.55,0,1,1,9.55-9.54,9.56,9.56,0,0,1-9.55,9.54m0-15.55a6,6,0,1,0,6,6,6,6,0,0,0-6-6"/><path class="cls-2" d="M124.25,88.1a23.06,23.06,0,0,1-1.92-27.48l-2.83-2.13a26.57,26.57,0,0,0,2.24,32.11Z"/><path class="cls-2" d="M121.74,55.53,124.25,58a22.61,22.61,0,0,1,2.49-2.5L124.24,53a28.09,28.09,0,0,0-2.5,2.5"/><path class="cls-2" d="M141.82,46.4a26.46,26.46,0,0,0-14.63,4.39l2.13,2.82a23.11,23.11,0,0,1,28.41,2.68l3.09-1.91a26.43,26.43,0,0,0-19-8"/><path class="cls-2" d="M152.44,83A14.52,14.52,0,1,1,150,61.06l3.22-2a18.08,18.08,0,1,0,2.1,26Z"/><path class="cls-2" d="M154.67,92.28a23.05,23.05,0,0,1-27.92-1.68l-2.51,2.5a26.59,26.59,0,0,0,32.62,2Z"/><path class="cls-2" d="M163.2,57.05l-10.34,6.4a16.15,16.15,0,0,1,3.48,9.63,14.39,14.39,0,0,1-1.82,7l2.88,2.08a18,18,0,0,0,.36-17.61l4.31-2.66a23.13,23.13,0,0,1-4.63,28.18l2.2,2.78a26.59,26.59,0,0,0,8.83-19.78,27.66,27.66,0,0,0-5.27-16"/><path class="cls-2" d="M122.79,113a7.46,7.46,0,1,0,7.48,7.46,7.47,7.47,0,0,0-7.48-7.46m0,11.85a4.4,4.4,0,1,1,4.41-4.39,4.4,4.4,0,0,1-4.41,4.39"/><path class="cls-2" d="M97.75,127.42H94.63V114.67h3.12Zm-1.56-14.37a1.9,1.9,0,1,1,1.9-1.89,1.87,1.87,0,0,1-1.9,1.89"/><path class="cls-2" d="M140.27,112.93a7.48,7.48,0,0,0-7.49,7.46v7.16h3.3v-7.4a4.18,4.18,0,0,1,8.36-.08v7.48h3.3V120.4a7.49,7.49,0,0,0-7.48-7.47"/><path class="cls-2" d="M157.8,125.07h0s-.49,0-.69,0c-1.34,0-2-.34-2-2.24v-7.3h2.79v-2.44h-2.78v-2.86h-3.3v2.86H150v2.42h1.9v6.86a7.67,7.67,0,0,0,.7,3.59,3.81,3.81,0,0,0,3.64,1.9,9.09,9.09,0,0,0,1.61-.16Z"/><path class="cls-2" d="M108.17,127.91a7.5,7.5,0,1,1,5.47-12.64l-2,2.47a4.53,4.53,0,0,0-3.46-1.69,4.37,4.37,0,1,0,0,8.73,4.49,4.49,0,0,0,3.5-1.72l2,2.47a7.59,7.59,0,0,1-5.51,2.38"/><path class="cls-2" d="M183.8,127.91a7.5,7.5,0,1,1,5.48-12.64l-2,2.47a4.56,4.56,0,0,0-3.47-1.69,4.37,4.37,0,1,0,0,8.73,4.47,4.47,0,0,0,3.5-1.72l2,2.47a7.59,7.59,0,0,1-5.51,2.38"/><path class="cls-2" d="M167,112.86c-4.38,0-7,3.63-7,7.58a7.15,7.15,0,0,0,7.47,7.48,6.88,6.88,0,0,0,6.12-3.31l-2.26-1.69a4.46,4.46,0,0,1-3.81,2,4,4,0,0,1-4.28-3.66h10.67s0-.69,0-.93c0-3.23-1.6-7.51-6.93-7.51m-3.65,6a3.62,3.62,0,0,1,3.68-3.15,3.39,3.39,0,0,1,3.57,3.16Z"/><path class="cls-3" d="M97.05,184.7V170.54h2.69V184.7Z"/><path class="cls-3" d="M103.09,181.58c.29.14.64.28,1,.44a9.58,9.58,0,0,0,1.25.38,5.18,5.18,0,0,0,1.26.16,5.1,5.1,0,0,0,1.42-.17,1.59,1.59,0,0,0,.84-.51,1.28,1.28,0,0,0,.29-.84,1.15,1.15,0,0,0-.41-.86,6.11,6.11,0,0,0-1-.74l-1.27-.74c-.5-.3-1-.61-1.49-.93a10.33,10.33,0,0,1-1.37-1.05,4.83,4.83,0,0,1-1-1.23,3.06,3.06,0,0,1-.37-1.5,3.39,3.39,0,0,1,.57-1.93,3.94,3.94,0,0,1,1.67-1.36,6.33,6.33,0,0,1,2.63-.5,6.87,6.87,0,0,1,2.13.34,13.58,13.58,0,0,1,1.87.72l-.91,2.17c-.28-.14-.58-.27-.9-.4a6.3,6.3,0,0,0-1-.34,4.57,4.57,0,0,0-1.14-.13,3.05,3.05,0,0,0-1.52.35A1.18,1.18,0,0,0,105,174a1.28,1.28,0,0,0,.37.92,4.19,4.19,0,0,0,1,.74q.61.34,1.29.78l1.51.89a9.47,9.47,0,0,1,1.38,1,4.21,4.21,0,0,1,1,1.2,3.16,3.16,0,0,1,.38,1.58,3.3,3.3,0,0,1-.63,2,4.26,4.26,0,0,1-1.79,1.39,7.2,7.2,0,0,1-2.88.52,5.08,5.08,0,0,1-1-.12c-.38-.08-.77-.17-1.17-.28a10,10,0,0,1-1.13-.38,4.7,4.7,0,0,1-.87-.43Z"/><path class="cls-3" d="M120.16,185a6.92,6.92,0,0,1-3.76-1,6.33,6.33,0,0,1-2.37-2.65,8.32,8.32,0,0,1-.81-3.69,8.19,8.19,0,0,1,.87-3.85,6.73,6.73,0,0,1,2.44-2.63,7.09,7.09,0,0,1,3.63-1,6.91,6.91,0,0,1,3.78,1,6.38,6.38,0,0,1,2.35,2.64,8.88,8.88,0,0,1-.07,7.56A6.58,6.58,0,0,1,123.8,184,7.1,7.1,0,0,1,120.16,185Zm0-2.27a3.89,3.89,0,0,0,2.07-.58,4,4,0,0,0,1.5-1.72,7.41,7.41,0,0,0,.08-5.5,4.17,4.17,0,0,0-1.41-1.78,3.7,3.7,0,0,0-2.2-.66,3.62,3.62,0,0,0-2.06.65,4.66,4.66,0,0,0-1.54,1.79,6.1,6.1,0,0,0-.57,2.73,6.6,6.6,0,0,0,.5,2.63,4.12,4.12,0,0,0,1.43,1.79A3.76,3.76,0,0,0,120.16,182.73Z"/><path class="cls-3" d="M143.52,183.48H141.6v2.66h-2.73v-2.66H133.1l-.36-2.23,6.84-8.44h2v8.46h2.19Zm-7.86-2.21h3.21v-4.13Z"/><path class="cls-3" d="M145.62,180.41l.37-7.5h7.61l-.27,2.19h-5l-.13,2.48a2.84,2.84,0,0,1,.73-.24,4.36,4.36,0,0,1,.81-.07,5.07,5.07,0,0,1,2.59.6,4,4,0,0,1,1.54,1.61,4.54,4.54,0,0,1,.52,2.16,4.7,4.7,0,0,1-.62,2.41A4.37,4.37,0,0,1,152,185.7a5.91,5.91,0,0,1-2.73.59,7.3,7.3,0,0,1-1.58-.18,9.64,9.64,0,0,1-1.55-.48,12.48,12.48,0,0,1-1.37-.65l1.34-1.9a8.11,8.11,0,0,0,1.56.71,5.66,5.66,0,0,0,1.67.23,2.74,2.74,0,0,0,1.85-.64,2.15,2.15,0,0,0,.75-1.74,2.18,2.18,0,0,0-.59-1.61,2,2,0,0,0-1.49-.6,1.91,1.91,0,0,0-1.19.34,1.67,1.67,0,0,0-.6.64Z"/><path class="cls-3" d="M156.14,175.6a5.57,5.57,0,0,1,5.07-3,5.58,5.58,0,0,1,3,.79,5.68,5.68,0,0,1,2.05,2.16,6.47,6.47,0,0,1,.74,3.11,6.9,6.9,0,0,1-.74,3.23,5.58,5.58,0,0,1-5.06,3,5.56,5.56,0,0,1-3-.81,5.68,5.68,0,0,1-2.05-2.21,6.65,6.65,0,0,1-.75-3.19A6.51,6.51,0,0,1,156.14,175.6Zm2.17,5.15a3.55,3.55,0,0,0,1.19,1.4,3.14,3.14,0,0,0,3.43,0,3.5,3.5,0,0,0,1.18-1.37,4.35,4.35,0,0,0,.43-2,4.42,4.42,0,0,0-.43-2,3.34,3.34,0,0,0-1.19-1.38,3.09,3.09,0,0,0-1.74-.5,3,3,0,0,0-1.69.49,3.42,3.42,0,0,0-1.18,1.34,4.17,4.17,0,0,0-.44,1.94A4.64,4.64,0,0,0,158.31,180.75Z"/><path class="cls-3" d="M168.77,175.6a5.88,5.88,0,0,1,8-2.17,5.58,5.58,0,0,1,2,2.16,6.36,6.36,0,0,1,.74,3.11,6.78,6.78,0,0,1-.74,3.23,5.77,5.77,0,0,1-8,2.24,5.61,5.61,0,0,1-2-2.21,6.65,6.65,0,0,1-.75-3.19A6.51,6.51,0,0,1,168.77,175.6Zm2.17,5.15a3.53,3.53,0,0,0,1.18,1.4,3,3,0,0,0,1.73.51,3,3,0,0,0,1.71-.51,3.58,3.58,0,0,0,1.18-1.37,4.49,4.49,0,0,0,.43-2,4.56,4.56,0,0,0-.43-2,3.42,3.42,0,0,0-1.19-1.38,3.14,3.14,0,0,0-1.74-.5,3.08,3.08,0,0,0-1.7.49,3.48,3.48,0,0,0-1.17,1.34,4.05,4.05,0,0,0-.44,1.94A4.51,4.51,0,0,0,170.94,180.75Z"/><path class="cls-3" d="M183.73,184.7v-8.79l-2.38.92-1-2,4.29-1.9h1.8V184.7Z"/></svg>