<svg id="Capa_1" data-name="Capa 1" xmlns="http://www.w3.org/2000/svg" viewBox="0 0 283.46 283.46"><defs><style>.cls-1{fill:#fff;}.cls-2{fill:#008fd4;}</style></defs><path class="cls-1" d="M183.71,26.19A19.82,19.82,0,0,1,203.53,46V189.21A19.82,19.82,0,0,1,183.71,209h-84a19.82,19.82,0,0,1-19.82-19.82V46A19.82,19.82,0,0,1,99.75,26.19h84M99.75,206h84a16.86,16.86,0,0,0,16.83-16.83V137.52a111.12,111.12,0,0,1-117.61-.09v51.78A16.84,16.84,0,0,0,99.75,206m0-3a13.84,13.84,0,0,1-13.82-13.83V142.7a114.16,114.16,0,0,0,111.61.08v46.43A13.84,13.84,0,0,1,183.71,203Z"/><path class="cls-2" d="M99.75,210.53a21.35,21.35,0,0,1-21.32-21.32V46A21.35,21.35,0,0,1,99.75,24.7h84A21.34,21.34,0,0,1,205,46V189.21a21.34,21.34,0,0,1-21.32,21.32ZM84.43,189.21a15.34,15.34,0,0,0,15.32,15.33h84A15.35,15.35,0,0,0,199,189.21v-49a112.62,112.62,0,0,1-114.61-.08Z"/><path class="cls-1" d="M200.54,137.52v51.69A16.85,16.85,0,0,1,183.71,206h-84a16.83,16.83,0,0,1-16.82-16.82V137.43a111.12,111.12,0,0,0,117.61.09"/><path class="cls-1" d="M141.74,81.75a9.55,9.55,0,1,1,9.55-9.54,9.56,9.56,0,0,1-9.55,9.54m0-15.55a6,6,0,1,0,6,6,6,6,0,0,0-6-6"/><path class="cls-1" d="M124.25,87.24a23.06,23.06,0,0,1-1.92-27.48l-2.83-2.13a26.57,26.57,0,0,0,2.24,32.11Z"/><path class="cls-1" d="M121.74,54.67l2.51,2.51a22.61,22.61,0,0,1,2.49-2.5l-2.5-2.51a28.09,28.09,0,0,0-2.5,2.5"/><path class="cls-1" d="M141.82,45.54a26.54,26.54,0,0,0-14.63,4.39l2.13,2.82a23.11,23.11,0,0,1,28.41,2.68l3.09-1.91a26.43,26.43,0,0,0-19-8"/><path class="cls-1" d="M152.44,82.1A14.52,14.52,0,1,1,150,60.2l3.22-2a18.08,18.08,0,1,0,2.1,26Z"/><path class="cls-1" d="M154.67,91.42a23.05,23.05,0,0,1-27.92-1.68l-2.51,2.5a26.59,26.59,0,0,0,32.62,2Z"/><path class="cls-1" d="M163.19,56.19l-10.33,6.4a16.15,16.15,0,0,1,3.48,9.63,14.39,14.39,0,0,1-1.82,7l2.88,2.08a18,18,0,0,0,.36-17.61l4.31-2.66a23.13,23.13,0,0,1-4.63,28.18l2.2,2.78a26.59,26.59,0,0,0,8.83-19.78,27.63,27.63,0,0,0-5.28-16"/><path class="cls-1" d="M122.79,112.11a7.46,7.46,0,1,0,7.48,7.46,7.48,7.48,0,0,0-7.48-7.46m0,11.85a4.4,4.4,0,1,1,4.42-4.39,4.39,4.39,0,0,1-4.42,4.39"/><path class="cls-1" d="M97.75,126.56H94.63V113.81h3.12Zm-1.56-14.37a1.9,1.9,0,1,1,1.9-1.89,1.87,1.87,0,0,1-1.9,1.89"/><path class="cls-1" d="M140.27,112.07a7.48,7.48,0,0,0-7.49,7.46v7.16h3.3v-7.4a4.18,4.18,0,0,1,8.36-.08v7.48h3.31v-7.16a7.47,7.47,0,0,0-7.47-7.47"/><path class="cls-1" d="M157.8,124.21h0s-.49,0-.69,0c-1.34,0-2-.34-2-2.24v-7.29h2.79v-2.43h-2.78v-2.86h-3.3v2.86H150v2.42h1.89v6.86a7.67,7.67,0,0,0,.7,3.59,3.81,3.81,0,0,0,3.64,1.9,9.09,9.09,0,0,0,1.61-.16Z"/><path class="cls-1" d="M108.17,127.05a7.5,7.5,0,1,1,0-15,7.44,7.44,0,0,1,5.46,2.35l-2,2.47a4.53,4.53,0,0,0-3.46-1.68,4.36,4.36,0,1,0,0,8.72,4.49,4.49,0,0,0,3.5-1.72l2,2.47a7.59,7.59,0,0,1-5.51,2.38"/><path class="cls-1" d="M183.8,127.05a7.5,7.5,0,1,1,5.48-12.64l-2,2.47a4.57,4.57,0,0,0-3.47-1.68,4.36,4.36,0,1,0,0,8.72,4.47,4.47,0,0,0,3.5-1.72l2,2.47a7.59,7.59,0,0,1-5.51,2.38"/><path class="cls-1" d="M167,112c-4.38,0-7,3.63-7,7.58a7.15,7.15,0,0,0,7.47,7.48,6.88,6.88,0,0,0,6.12-3.31l-2.26-1.69a4.46,4.46,0,0,1-3.81,2,4,4,0,0,1-4.28-3.66h10.66s0-.69,0-.93c0-3.22-1.6-7.51-6.93-7.51m-3.65,6a3.62,3.62,0,0,1,3.68-3.15,3.39,3.39,0,0,1,3.57,3.16Z"/><rect class="cls-2" x="103.1" y="164.35" width="2.69" height="14.16"/><path class="cls-2" d="M108.53,177.57l.6-2.19a11.39,11.39,0,0,0,1.75.7,6.14,6.14,0,0,0,1.79.3,3.74,3.74,0,0,0,1.9-.39,1.28,1.28,0,0,0,.64-1.15,1.24,1.24,0,0,0-.51-1,10.57,10.57,0,0,0-1.57-1l-.63-.37c-.92-.56-1.66-1-2.21-1.44a6.42,6.42,0,0,1-1.42-1.43,3.08,3.08,0,0,1-.59-1.84,3.36,3.36,0,0,1,.58-1.94,3.89,3.89,0,0,1,1.68-1.36,6.47,6.47,0,0,1,2.61-.49,9.37,9.37,0,0,1,4,1.07l-.9,2.16a11.4,11.4,0,0,0-1.55-.64,4.6,4.6,0,0,0-1.51-.23,2.94,2.94,0,0,0-1.53.36,1.18,1.18,0,0,0-.59,1.07,1.28,1.28,0,0,0,.47,1,10.3,10.3,0,0,0,1.53,1l.66.38.61.35a21.66,21.66,0,0,1,2,1.24,4.55,4.55,0,0,1,1.22,1.29,3.19,3.19,0,0,1,.49,1.78,3.42,3.42,0,0,1-.61,2,4.08,4.08,0,0,1-1.81,1.37,7.33,7.33,0,0,1-2.87.5,8.18,8.18,0,0,1-2.17-.38,8.68,8.68,0,0,1-2-.82"/><path class="cls-2" d="M126.18,164a7.07,7.07,0,0,1,3.73,1,6.31,6.31,0,0,1,2.4,2.64,8.88,8.88,0,0,1-.05,7.56,6.59,6.59,0,0,1-2.44,2.63,7.14,7.14,0,0,1-3.64,1,7,7,0,0,1-3.71-1,6.35,6.35,0,0,1-2.4-2.63,8.19,8.19,0,0,1-.82-3.71,8.34,8.34,0,0,1,.86-3.83,6.53,6.53,0,0,1,2.45-2.65,7.13,7.13,0,0,1,3.62-1m-4.12,7.46a6.63,6.63,0,0,0,.5,2.63,4,4,0,0,0,1.43,1.79,3.75,3.75,0,0,0,2.17.64,3.92,3.92,0,0,0,2.11-.58,3.83,3.83,0,0,0,1.5-1.75,6.63,6.63,0,0,0,.55-2.86,6.32,6.32,0,0,0-.5-2.6,4.12,4.12,0,0,0-1.43-1.79,3.75,3.75,0,0,0-2.17-.65,3.59,3.59,0,0,0-2.07.64,4.48,4.48,0,0,0-1.52,1.81,6.15,6.15,0,0,0-.57,2.72"/><polygon class="cls-2" points="147.79 163.81 141.57 178.59 138.76 178.5 144.96 163.72 147.79 163.81"/><rect class="cls-2" x="154.45" y="164.35" width="2.69" height="14.16"/><polygon class="cls-2" points="160.68 178.5 160.68 164.35 169.13 164.35 169.54 166.47 163.36 166.47 163.36 170.28 167.98 170.28 168.42 172.43 163.36 172.43 163.36 176.4 170.15 176.4 170.59 178.5 160.68 178.5"/><path class="cls-2" d="M182.3,165l-.83,1.94-.52-.15a11.59,11.59,0,0,0-1.29-.34,6.41,6.41,0,0,0-1.18-.1,3.46,3.46,0,0,0-2,.63,4.18,4.18,0,0,0-1.4,1.79,6.78,6.78,0,0,0-.51,2.73A7,7,0,0,0,175,174a4.13,4.13,0,0,0,1.3,1.83,3.16,3.16,0,0,0,2,.68,8.06,8.06,0,0,0,3.1-.65l1,2a7.38,7.38,0,0,1-1.93.66,9.28,9.28,0,0,1-2,.25,6.71,6.71,0,0,1-3.67-.95,6,6,0,0,1-2.29-2.62,8.76,8.76,0,0,1-.77-3.73,8.49,8.49,0,0,1,.84-3.85A6.33,6.33,0,0,1,175,165a6.75,6.75,0,0,1,3.59-.94,8.58,8.58,0,0,1,1.83.23,6.93,6.93,0,0,1,1.91.68"/><path class="cls-2" d="M120.4,185.44a5.09,5.09,0,0,1,2.26.47,3.53,3.53,0,0,1,1.48,1.32,3.42,3.42,0,0,1,.52,1.87,4.15,4.15,0,0,1-.64,2.35,12,12,0,0,1-2.25,2.33l-2,1.65h5.27l.25,2.06h-9.2v-1.81l4.2-3.58a9.67,9.67,0,0,0,1.58-1.61,2.15,2.15,0,0,0,.5-1.29,1.31,1.31,0,0,0-.61-1.17,3,3,0,0,0-1.65-.41,6.83,6.83,0,0,0-3.27,1.06l-.48-2.16a7.69,7.69,0,0,1,4-1.08"/><polygon class="cls-2" points="128.58 198.2 132.2 187.89 126.27 187.89 125.93 185.71 134.38 185.71 135.17 186.79 131.09 198.93 128.58 198.2"/><path class="cls-2" d="M136.11,191.56a6.55,6.55,0,0,1,.75-3.15,5.57,5.57,0,0,1,2.07-2.18,6,6,0,0,1,6,0,5.39,5.39,0,0,1,2.06,2.17,6.59,6.59,0,0,1,.74,3.12,6.8,6.8,0,0,1-.75,3.22,5.68,5.68,0,0,1-10.08,0,6.67,6.67,0,0,1-.75-3.18m2.48-.07a4.61,4.61,0,0,0,.43,2,3.32,3.32,0,0,0,1.18,1.42,3,3,0,0,0,1.72.51,3.09,3.09,0,0,0,1.72-.5,3.26,3.26,0,0,0,1.18-1.38,4.35,4.35,0,0,0,.43-2,4.44,4.44,0,0,0-.44-2,3.43,3.43,0,0,0-1.19-1.38,3,3,0,0,0-1.72-.5,3.07,3.07,0,0,0-1.7.49,3.21,3.21,0,0,0-1.18,1.34,4.18,4.18,0,0,0-.43,1.93"/><path class="cls-2" d="M148.73,191.56a6.55,6.55,0,0,1,.75-3.15,5.57,5.57,0,0,1,2.07-2.18,5.65,5.65,0,0,1,3-.79,5.73,5.73,0,0,1,3,.78,5.39,5.39,0,0,1,2.06,2.17,6.48,6.48,0,0,1,.74,3.12,6.8,6.8,0,0,1-.75,3.22,5.67,5.67,0,0,1-10.07,0,6.67,6.67,0,0,1-.75-3.18m2.47-.07a4.76,4.76,0,0,0,.43,2,3.34,3.34,0,0,0,1.19,1.42,3,3,0,0,0,1.71.51,3.07,3.07,0,0,0,1.72-.5,3.35,3.35,0,0,0,1.19-1.38,4.49,4.49,0,0,0,.43-2,4.44,4.44,0,0,0-.44-2,3.37,3.37,0,0,0-1.2-1.38,3,3,0,0,0-1.72-.5,3,3,0,0,0-1.69.49,3.23,3.23,0,0,0-1.19,1.34,4.31,4.31,0,0,0-.43,1.93"/><polygon class="cls-2" points="164.42 197.49 164.42 188.71 162.05 189.62 161.03 187.6 165.32 185.71 167.13 185.71 167.13 197.49 164.42 197.49"/><path d="M80.21,251.71l1.59.48A6.75,6.75,0,0,1,80,255.85a4.58,4.58,0,0,1-3.2,1.2,4.86,4.86,0,0,1-2.83-.81A5.74,5.74,0,0,1,72,253.65a10.86,10.86,0,0,1-.75-4.22,9.81,9.81,0,0,1,.75-4.06,5.74,5.74,0,0,1,2-2.52A5.08,5.08,0,0,1,76.9,242a4.33,4.33,0,0,1,3,1.07,5.82,5.82,0,0,1,1.74,3.15l-1.54.45c-.53-2-1.6-3-3.19-3a3.56,3.56,0,0,0-2.07.61,4.09,4.09,0,0,0-1.39,1.9,8.74,8.74,0,0,0-.53,3.27,7.79,7.79,0,0,0,1.06,4.48,3.25,3.25,0,0,0,2.79,1.5,3.1,3.1,0,0,0,2.23-.92A5,5,0,0,0,80.21,251.71Z"/><path d="M83.33,249.72A8.84,8.84,0,0,1,85,244,5.08,5.08,0,0,1,89,242a5,5,0,0,1,2.88.89,6,6,0,0,1,2,2.59,9.86,9.86,0,0,1,.76,4,8.85,8.85,0,0,1-1.46,5.27A5,5,0,0,1,89,257.05a5,5,0,0,1-4.24-2.3A8.49,8.49,0,0,1,83.33,249.72Zm1.62,0a6.53,6.53,0,0,0,1.19,4.17,3.55,3.55,0,0,0,5.79,0,7,7,0,0,0,1.18-4.41,8.9,8.9,0,0,0-.61-3.36,4.21,4.21,0,0,0-1.4-1.81,3.45,3.45,0,0,0-2-.68,3.58,3.58,0,0,0-2.94,1.49A7.5,7.5,0,0,0,85,249.75Z"/><path d="M96,252.44v-1.8h4.5v1.8Z"/><path d="M101.74,252.12l1.49-.16a4.33,4.33,0,0,0,.54,1.87,3,3,0,0,0,1.21,1.08,3.77,3.77,0,0,0,1.76.41,3.2,3.2,0,0,0,2.19-.69,2.28,2.28,0,0,0,.78-1.79,2.24,2.24,0,0,0-.28-1.12,2.2,2.2,0,0,0-.86-.79,17.17,17.17,0,0,0-2.46-.87,8.36,8.36,0,0,1-2.4-1,3.45,3.45,0,0,1-1.11-1.29,3.74,3.74,0,0,1-.4-1.76,3.86,3.86,0,0,1,1.14-2.88,4.2,4.2,0,0,1,3.08-1.12,4.9,4.9,0,0,1,2.32.52,3.76,3.76,0,0,1,1.55,1.51,4.94,4.94,0,0,1,.59,2.31l-1.52.14a3.09,3.09,0,0,0-.85-2.1,2.85,2.85,0,0,0-2-.69,3.08,3.08,0,0,0-2,.6,1.94,1.94,0,0,0-.7,1.55,1.8,1.8,0,0,0,.51,1.37,6.25,6.25,0,0,0,2.32,1,14.46,14.46,0,0,1,2.48.84,3.82,3.82,0,0,1,2.21,3.63,4.56,4.56,0,0,1-.59,2.28,4,4,0,0,1-1.59,1.56,5.19,5.19,0,0,1-2.43.53,4.7,4.7,0,0,1-3.52-1.33A5.06,5.06,0,0,1,101.74,252.12Z"/><path d="M113.69,256.8V242.26h1.57V256.8Z"/><path d="M117.26,252.44v-1.8h4.49v1.8Z"/><path d="M132,251.71l1.59.48a6.75,6.75,0,0,1-1.84,3.66,4.58,4.58,0,0,1-3.2,1.2,4.86,4.86,0,0,1-2.83-.81,5.74,5.74,0,0,1-1.92-2.59,10.86,10.86,0,0,1-.75-4.22,9.81,9.81,0,0,1,.75-4.06,5.74,5.74,0,0,1,2-2.52,5.08,5.08,0,0,1,2.86-.84,4.33,4.33,0,0,1,3,1.07,5.82,5.82,0,0,1,1.74,3.15l-1.55.45c-.52-2-1.59-3-3.18-3a3.56,3.56,0,0,0-2.07.61,4.09,4.09,0,0,0-1.39,1.9,8.74,8.74,0,0,0-.53,3.27,7.71,7.71,0,0,0,1.06,4.48,3.25,3.25,0,0,0,2.79,1.5,3.1,3.1,0,0,0,2.23-.92A5,5,0,0,0,132,251.71Z"/><path d="M135.61,256.8V242.26h8.62V244h-7v4.44h6.6v1.72h-6.6v5h7.32v1.71Z"/><path d="M146.68,256.8V242.26H152a5.56,5.56,0,0,1,2.44.41,3.09,3.09,0,0,1,1.3,1.35,4.7,4.7,0,0,1,.5,2.2,3.7,3.7,0,0,1-3.35,4,4.24,4.24,0,0,1,1,.81,10.56,10.56,0,0,1,1.24,1.86l2.08,4h-2l-1.59-3a20.35,20.35,0,0,0-1.39-2.39,2.73,2.73,0,0,0-.92-.83,2.9,2.9,0,0,0-1.23-.21h-1.82v6.45Zm1.58-8.12h3.39a4.16,4.16,0,0,0,1.69-.27,2.1,2.1,0,0,0,.91-.84,2.64,2.64,0,0,0,.34-1.34,2.31,2.31,0,0,0-.65-1.73,2.63,2.63,0,0,0-1.91-.63h-3.77Z"/><path d="M158.09,253l1.53-.16a3.66,3.66,0,0,0,.81,2.06,1.92,1.92,0,0,0,1.46.68,2.24,2.24,0,0,0,1.8-1,4.16,4.16,0,0,0,.75-2.62,3.61,3.61,0,0,0-.73-2.42,2.29,2.29,0,0,0-1.83-.86,2.33,2.33,0,0,0-1.24.37,2.66,2.66,0,0,0-.92,1l-1.38-.22,1.16-7.47h5.93v1.71h-4.76l-.64,3.91a3.42,3.42,0,0,1,2.25-.92,3.37,3.37,0,0,1,2.61,1.28,5.11,5.11,0,0,1,1.1,3.44,6.13,6.13,0,0,1-1.1,3.66,3.51,3.51,0,0,1-3,1.52A3.55,3.55,0,0,1,159.3,256,4.62,4.62,0,0,1,158.09,253Z"/><path d="M167.35,249.63a12.24,12.24,0,0,1,1-5.54,3.12,3.12,0,0,1,2.91-1.89,3,3,0,0,1,2.68,1.53c.8,1.23,1.19,3.2,1.19,5.9a12.24,12.24,0,0,1-1,5.53,3.12,3.12,0,0,1-2.91,1.89,3.22,3.22,0,0,1-2.79-1.66C167.71,254.27,167.35,252.36,167.35,249.63Zm1.5,0c0,2.36.22,3.94.68,4.75a2,2,0,0,0,1.74,1.2,1.94,1.94,0,0,0,1.68-1.22,11,11,0,0,0,.68-4.73c0-2.37-.23-4-.68-4.76a2,2,0,0,0-1.77-1.2,1.94,1.94,0,0,0-1.66,1.22A11.15,11.15,0,0,0,168.85,249.63Z"/><path d="M176.71,244.17v-1.72h7.71v1.39a22.05,22.05,0,0,0-3,5.84,24.78,24.78,0,0,0-1.5,7.12h-1.5a21,21,0,0,1,.58-4.25,25.34,25.34,0,0,1,1.51-4.63,19.79,19.79,0,0,1,2.06-3.75Z"/><path d="M186,244.17v-1.72h7.71v1.39a21.76,21.76,0,0,0-3,5.84,24.47,24.47,0,0,0-1.51,7.12h-1.5a21,21,0,0,1,.58-4.25,26.13,26.13,0,0,1,1.51-4.63,20.36,20.36,0,0,1,2.07-3.75Z"/><path d="M195.14,249.63a12.24,12.24,0,0,1,1-5.54A3.12,3.12,0,0,1,199,242.2a3,3,0,0,1,2.68,1.53c.8,1.23,1.19,3.2,1.19,5.9a12.24,12.24,0,0,1-1,5.53,3.12,3.12,0,0,1-2.91,1.89,3.25,3.25,0,0,1-2.8-1.66C195.5,254.27,195.14,252.36,195.14,249.63Zm1.5,0c0,2.36.22,3.94.68,4.75a2,2,0,0,0,1.74,1.2,1.94,1.94,0,0,0,1.68-1.22,11,11,0,0,0,.68-4.73c0-2.37-.23-4-.68-4.76a2,2,0,0,0-1.77-1.2,1.94,1.94,0,0,0-1.66,1.22A11.15,11.15,0,0,0,196.64,249.63Z"/><path d="M204.4,253l1.46-.24c.3,1.91,1.08,2.86,2.32,2.86a2.22,2.22,0,0,0,1.73-.85,3.23,3.23,0,0,0,.74-2.2,3,3,0,0,0-.68-2,2.09,2.09,0,0,0-1.65-.78,3.55,3.55,0,0,0-1,.2l.17-1.57.22,0a2.42,2.42,0,0,0,1.77-.66,2.36,2.36,0,0,0,.67-1.77,2.32,2.32,0,0,0-.56-1.64,1.82,1.82,0,0,0-1.38-.62,1.85,1.85,0,0,0-1.43.65,3.5,3.5,0,0,0-.74,2l-1.46-.32a4.75,4.75,0,0,1,1.25-2.81,3.35,3.35,0,0,1,4.81.12,3.77,3.77,0,0,1,1,2.69,3.5,3.5,0,0,1-.43,1.76,3.05,3.05,0,0,1-1.2,1.19,2.67,2.67,0,0,1,1.18.66,3.25,3.25,0,0,1,.75,1.22,4.81,4.81,0,0,1,.29,1.7,4.66,4.66,0,0,1-1.18,3.28,3.72,3.72,0,0,1-2.83,1.27,3.45,3.45,0,0,1-2.59-1.11A4.68,4.68,0,0,1,204.4,253Z"/></svg>