<svg width="283.46" height="283.46" xmlns="http://www.w3.org/2000/svg" data-name="Capa 1">

 <g>
  <title>Layer 1</title>
  <path id="svg_1" fill="#ffffff" d="m178.45,253.8l-1,0l0,-6.43l1,0l0,6.43zm0,-7.44l-1,0l0,-1.16l1,0l0,1.16zm-3.29,4.24a4,4 0 0 0 -0.38,-1.8a1.35,1.35 0 0 0 -1.24,-0.84a1.54,1.54 0 0 0 -1,0.44a1.45,1.45 0 0 0 -0.55,1.14l0,1.16a3.37,3.37 0 0 0 0.4,1.79a1.42,1.42 0 0 0 1.26,0.61a1.24,1.24 0 0 0 1.14,-0.78a3.51,3.51 0 0 0 0.37,-1.72zm1,-0.17a4.38,4.38 0 0 1 -0.61,2.37a2,2 0 0 1 -1.73,1.08a2.35,2.35 0 0 1 -0.91,-0.15a2.11,2.11 0 0 1 -1.11,-0.93l-0.27,1l-0.53,0l0,-8.6l0.93,0l0,3.24a2.92,2.92 0 0 1 0.77,-0.91a2,2 0 0 1 1.08,-0.36a2.09,2.09 0 0 1 1.77,1a3.86,3.86 0 0 1 0.63,2.26l-0.02,0zm-6.58,3.37l-1,0l0,-4.35a1.23,1.23 0 0 0 -0.34,-0.94a1.07,1.07 0 0 0 -0.82,-0.35a1.16,1.16 0 0 0 -0.95,0.46a2.23,2.23 0 0 0 -0.48,1.52l0,3.66l-0.91,0l0,-4.16a1.41,1.41 0 0 0 -0.38,-1.06a1.06,1.06 0 0 0 -0.86,-0.37a1.22,1.22 0 0 0 -1,0.44a1.94,1.94 0 0 0 -0.46,1.4l0,3.75l-1,0l0,-6.43l0.93,0l0,1.28a2.14,2.14 0 0 1 0.77,-1a1.72,1.72 0 0 1 1,-0.38a1.51,1.51 0 0 1 1,0.4a2.26,2.26 0 0 1 0.68,1.08a2.19,2.19 0 0 1 0.81,-1.08a2.11,2.11 0 0 1 1.17,-0.4a1.65,1.65 0 0 1 1.25,0.56a2.7,2.7 0 0 1 0.56,1.81l0.03,4.16zm-10.45,-3.37a2.9,2.9 0 0 0 -0.33,-1.47a1.38,1.38 0 0 0 -2.49,-0.2a2.84,2.84 0 0 0 -0.49,1.67a3.27,3.27 0 0 0 0.6,2.14a1.4,1.4 0 0 0 1.06,0.53a1.35,1.35 0 0 0 1.34,-0.85a4.08,4.08 0 0 0 0.33,-1.82l-0.02,0zm1,0a5,5 0 0 1 -0.52,2.35a2.22,2.22 0 0 1 -2.06,1.22a2.41,2.41 0 0 1 -2.25,-1.34a4.42,4.42 0 0 1 -0.07,-4.1a2.38,2.38 0 0 1 2.21,-1.39a2.49,2.49 0 0 1 1.5,0.48a3.13,3.13 0 0 1 1.25,2.78l-0.06,0zm-6.76,3.37l-1,0l0,-8.6l1,0l0,8.6zm-3.32,-3.37a3.25,3.25 0 0 0 -0.33,-1.47a1.38,1.38 0 0 0 -1.32,-0.89a1.41,1.41 0 0 0 -1.18,0.69a2.91,2.91 0 0 0 -0.48,1.67a3.27,3.27 0 0 0 0.6,2.14a1.36,1.36 0 0 0 1.06,0.53a1.38,1.38 0 0 0 1.34,-0.85a4.39,4.39 0 0 0 0.37,-1.82l-0.06,0zm1,0a4.78,4.78 0 0 1 -0.51,2.35a2.18,2.18 0 0 1 -2.05,1.22a2.37,2.37 0 0 1 -2.23,-1.34a4.07,4.07 0 0 1 -0.56,-2.14a4.14,4.14 0 0 1 0.47,-2a2.38,2.38 0 0 1 2.22,-1.39a2.56,2.56 0 0 1 1.51,0.48a3.16,3.16 0 0 1 1.22,2.82l-0.07,0zm-6.07,0.62a3.63,3.63 0 0 1 -1.58,2.48a3.5,3.5 0 0 1 -1.74,0.35a2.58,2.58 0 0 1 -2.3,-1.4a5.84,5.84 0 0 1 -0.78,-3.07a5.43,5.43 0 0 1 0.86,-3a2.81,2.81 0 0 1 2.4,-1.39a3,3 0 0 1 2,0.74a2.77,2.77 0 0 1 1,1.93l-0.93,0.2a2.41,2.41 0 0 0 -1,-1.69a2.07,2.07 0 0 0 -1.11,-0.3a1.78,1.78 0 0 0 -1.5,1.1a5,5 0 0 0 -0.5,2.33a5.06,5.06 0 0 0 0.59,2.57a2,2 0 0 0 1.77,1.06a1.46,1.46 0 0 0 1.08,-0.43a2.91,2.91 0 0 0 0.76,-1.53l0.98,0.05zm-11.85,-0.53a7.56,7.56 0 0 0 -2.07,0.21c-0.78,0.22 -1.18,0.66 -1.18,1.31a1,1 0 0 0 0.35,0.74a1.2,1.2 0 0 0 0.88,0.32a1.94,1.94 0 0 0 1.29,-0.41a2.73,2.73 0 0 0 0.8,-2.17l-0.07,0zm1,3.28l-0.92,0l-0.19,-1.09a1.9,1.9 0 0 1 -0.89,0.92a2.33,2.33 0 0 1 -1.09,0.24a2.16,2.16 0 0 1 -1.73,-0.69a1.79,1.79 0 0 1 -0.46,-1.17a1.82,1.82 0 0 1 1,-1.77a5.77,5.77 0 0 1 2.55,-0.45l0.4,0a1.17,1.17 0 0 1 0.3,0.05a1.81,1.81 0 0 0 -0.6,-1.61a2.26,2.26 0 0 0 -1.24,-0.27a1.38,1.38 0 0 0 -0.94,0.41a1.49,1.49 0 0 0 -0.47,0.79l-0.9,-0.2a2.38,2.38 0 0 1 0.85,-1.3a3.09,3.09 0 0 1 1.84,-0.49a2.46,2.46 0 0 1 1.74,0.55a2,2 0 0 1 0.56,1.52l0,3.56a2.79,2.79 0 0 0 0.05,0.47c0.14,0.17 0.18,0.35 0.23,0.53l-0.09,0zm-5.8,-5.64l-0.26,0a1.52,1.52 0 0 0 -1.34,0.79a2.47,2.47 0 0 0 -0.44,1.4l0,3.47l-0.93,0l0,-6.43l0.85,0l0,1.49a3.77,3.77 0 0 1 0.46,-1.05a1.4,1.4 0 0 1 1.22,-0.7a3.2,3.2 0 0 1 0.44,0.06l0,0.97zm-5.19,2.36a7.56,7.56 0 0 0 -2.07,0.21c-0.78,0.22 -1.17,0.66 -1.17,1.31a1,1 0 0 0 0.33,0.74a1.24,1.24 0 0 0 0.88,0.32a1.88,1.88 0 0 0 1.29,-0.41a2.7,2.7 0 0 0 0.83,-2.17l-0.09,0zm1,3.28l-0.93,0l-0.19,-1.09a1.72,1.72 0 0 1 -0.88,0.92a2.34,2.34 0 0 1 -1.1,0.24a2.15,2.15 0 0 1 -1.72,-0.69a1.77,1.77 0 0 1 -0.32,-1.18a1.86,1.86 0 0 1 1,-1.77a5.58,5.58 0 0 1 2.53,-0.45l0.41,0a1.17,1.17 0 0 1 0.3,0.05a1.84,1.84 0 0 0 -0.6,-1.61a2.25,2.25 0 0 0 -1.25,-0.27a1.43,1.43 0 0 0 -0.94,0.41a1.4,1.4 0 0 0 -0.45,0.79l-0.92,-0.2a2.25,2.25 0 0 1 0.86,-1.3a3.07,3.07 0 0 1 1.84,-0.49a2.4,2.4 0 0 1 1.72,0.55a2,2 0 0 1 0.58,1.52l0,3.56a4.26,4.26 0 0 0 0,0.47c0.07,0.18 0.11,0.36 0.17,0.54l-0.11,0zm-7.38,-3.28a3.55,3.55 0 0 0 -0.4,-1.78a1.17,1.17 0 0 0 -1.07,-0.67a1.43,1.43 0 0 0 -1,0.46a1.65,1.65 0 0 0 -0.59,1.2l0,1.4a2,2 0 0 0 0.5,1.35a1.25,1.25 0 0 0 1,0.51a1.32,1.32 0 0 0 1.06,-0.4a3.29,3.29 0 0 0 0.61,-2.07l-0.11,0zm1.07,0.07a4.37,4.37 0 0 1 -0.55,2.31a2,2 0 0 1 -1.78,1.06a1.94,1.94 0 0 1 -1,-0.26a2.09,2.09 0 0 1 -0.79,-0.8l0,3l-0.93,0l0,-8.5l0.83,0l0,1.19a2.36,2.36 0 0 1 0.89,-1.13a2.09,2.09 0 0 1 1.08,-0.28a1.89,1.89 0 0 1 1.69,1.08a4.76,4.76 0 0 1 0.67,2.33l-0.11,0zm106.17,-10.68l-0.94,1.76l-0.55,0l0.75,-1.66l-0.67,0l0,-1.49l1.41,0l0,1.39zm-2.87,-1.91a1.9,1.9 0 0 1 -0.68,1.45a2.46,2.46 0 0 1 -1.64,0.59a3.78,3.78 0 0 1 -2,-0.47a1.91,1.91 0 0 1 -0.88,-1.42l0.82,-0.19a1.66,1.66 0 0 0 0.83,1a3,3 0 0 0 1.21,0.18a1.47,1.47 0 0 0 0.92,-0.32a0.94,0.94 0 0 0 0.43,-0.68c0,-0.42 -0.32,-0.71 -1,-0.89l-2,-0.54a1.57,1.57 0 0 1 -1,-1.51a2,2 0 0 1 0.45,-1.26a2.09,2.09 0 0 1 1.71,-0.72a3,3 0 0 1 1.63,0.39a2.49,2.49 0 0 1 0.86,1.19l-0.79,0.2a2,2 0 0 0 -0.67,-0.78a1.48,1.48 0 0 0 -0.62,-0.2a2,2 0 0 0 -1.13,0.3a0.76,0.76 0 0 0 -0.44,0.68c0,0.52 0.32,0.83 1,1l1.93,0.39a1.52,1.52 0 0 1 1.06,1.61zm-7,-1.32a8.26,8.26 0 0 0 -2.07,0.18c-0.8,0.24 -1.16,0.67 -1.16,1.31a0.93,0.93 0 0 0 0.32,0.74a1.16,1.16 0 0 0 0.87,0.31a2,2 0 0 0 1.3,-0.39a2.7,2.7 0 0 0 0.7,-2.18l0.04,0.03zm1,3.26l-0.92,0l-0.21,-1.14a2.05,2.05 0 0 1 -0.9,1a2.65,2.65 0 0 1 -1.1,0.2a2.14,2.14 0 0 1 -1.72,-0.7a1.78,1.78 0 0 1 -0.48,-1.16a1.83,1.83 0 0 1 1.06,-1.77a5.42,5.42 0 0 1 2.52,-0.44l0.4,0a1,1 0 0 1 0.31,0a1.76,1.76 0 0 0 -0.6,-1.59a2.09,2.09 0 0 0 -1.25,-0.3a1.35,1.35 0 0 0 -0.94,0.42a1.25,1.25 0 0 0 -0.44,0.78l-0.86,-0.24a2.14,2.14 0 0 1 0.84,-1.28a3.14,3.14 0 0 1 1.84,-0.49a2.46,2.46 0 0 1 1.73,0.54a2,2 0 0 1 0.56,1.53l0,3.58a2,2 0 0 0 0.06,0.44c-0.03,0.22 0.03,0.39 0.07,0.59l0.03,0.03zm-7.64,-2.49l0,-1.68a1.64,1.64 0 0 0 -0.48,-1.19a1.6,1.6 0 0 0 -1.09,-0.49a1.32,1.32 0 0 0 -1.2,0.81a4.07,4.07 0 0 0 -0.39,1.86a3.63,3.63 0 0 0 0.39,1.71a1.18,1.18 0 0 0 1.11,0.76a1.48,1.48 0 0 0 1.1,-0.46a2.12,2.12 0 0 0 0.53,-1.35l0.03,0.03zm0.93,2.49l-0.84,0l0,-1.14a2.4,2.4 0 0 1 -0.82,0.86a2.29,2.29 0 0 1 -1.2,0.35a1.89,1.89 0 0 1 -1.65,-1a4.66,4.66 0 0 1 -0.55,-2.28a4.2,4.2 0 0 1 0.63,-2.34a2.07,2.07 0 0 1 1.84,-1.09a1.73,1.73 0 0 1 0.9,0.24a2.17,2.17 0 0 1 0.76,0.75l0,-3l0.93,0l0,8.65zm-6.83,-3.26a8.39,8.39 0 0 0 -2.09,0.18c-0.78,0.24 -1.16,0.67 -1.16,1.31a0.91,0.91 0 0 0 0.33,0.74a1.19,1.19 0 0 0 0.88,0.31a1.92,1.92 0 0 0 1.28,-0.39a2.7,2.7 0 0 0 0.73,-2.18l0.03,0.03zm1,3.26l-0.91,0l-0.2,-1.11a2,2 0 0 1 -0.89,1a2.62,2.62 0 0 1 -1.11,0.22a2.07,2.07 0 0 1 -1.7,-0.7a1.69,1.69 0 0 1 -0.48,-1.16a1.83,1.83 0 0 1 1,-1.77a5.44,5.44 0 0 1 2.53,-0.44l0.39,0a1.16,1.16 0 0 1 0.33,0a1.79,1.79 0 0 0 -0.62,-1.59a2.08,2.08 0 0 0 -1.24,-0.3a1.39,1.39 0 0 0 -0.95,0.42a1.25,1.25 0 0 0 -0.44,0.78l-0.92,-0.22a2.34,2.34 0 0 1 0.84,-1.28a3.19,3.19 0 0 1 1.85,-0.49a2.44,2.44 0 0 1 1.73,0.54a2,2 0 0 1 0.58,1.53l0,3.58a1.83,1.83 0 0 0 0,0.44c0.08,0.15 0.13,0.32 0.18,0.52l0.03,0.03zm-6.55,0l-1,0l0,-4.37a1.24,1.24 0 0 0 -0.34,-0.92a1.1,1.1 0 0 0 -0.83,-0.36a1.24,1.24 0 0 0 -1,0.48a2.33,2.33 0 0 0 -0.46,1.51l0,3.66l-0.91,0l0,-4.17a1.48,1.48 0 0 0 -0.36,-1.06a1.22,1.22 0 0 0 -0.89,-0.37a1.27,1.27 0 0 0 -1,0.43a2.05,2.05 0 0 0 -0.47,1.41l0,3.76l-1,0l0,-6.44l0.94,0l0,1.29a2.61,2.61 0 0 1 0.76,-1a1.81,1.81 0 0 1 1,-0.37a1.75,1.75 0 0 1 1,0.38a2.24,2.24 0 0 1 0.66,1.09a2.13,2.13 0 0 1 2,-1.47a1.59,1.59 0 0 1 1.25,0.57a2.64,2.64 0 0 1 0.55,1.79l0.1,4.16zm-8.87,-5.65l-0.23,0a1.53,1.53 0 0 0 -1.35,0.79a2.31,2.31 0 0 0 -0.44,1.37l0,3.5l-0.93,0l0,-6.44l0.78,0l0,1.49a4.12,4.12 0 0 1 0.47,-1a1.4,1.4 0 0 1 1.21,-0.72a2.07,2.07 0 0 1 0.44,0.06l0.05,0.95zm-5.9,2.26l-1.27,-3.97l-1.2,3.94l2.47,0.03zm2.11,3.39l-1,0l-0.8,-2.49l-3,0l-0.75,2.49l-0.83,0l2.58,-8.61l1.13,0l2.67,8.61zm-10.56,-1.94a1.91,1.91 0 0 1 -0.66,1.45a2.46,2.46 0 0 1 -1.66,0.59a3.78,3.78 0 0 1 -2,-0.47a2,2 0 0 1 -0.88,-1.42l0.84,-0.19a1.71,1.71 0 0 0 0.81,1a3.11,3.11 0 0 0 1.22,0.18a1.51,1.51 0 0 0 0.92,-0.32a0.94,0.94 0 0 0 0.43,-0.68c0,-0.42 -0.32,-0.71 -1,-0.89l-1.94,-0.54a1.56,1.56 0 0 1 -1,-1.51a2,2 0 0 1 0.44,-1.26a2.13,2.13 0 0 1 1.73,-0.72a2.86,2.86 0 0 1 1.61,0.39a2.46,2.46 0 0 1 0.88,1.19l-0.81,0.28a2,2 0 0 0 -0.69,-0.78a1.4,1.4 0 0 0 -0.62,-0.2a2,2 0 0 0 -1.13,0.3a0.8,0.8 0 0 0 -0.44,0.68c0,0.52 0.33,0.83 1,1l2,0.39a1.51,1.51 0 0 1 0.95,1.53zm-7,-1.32a8.3,8.3 0 0 0 -2.08,0.18c-0.76,0.24 -1.16,0.67 -1.16,1.31a1,1 0 0 0 0.34,0.74a1.17,1.17 0 0 0 0.88,0.31a1.94,1.94 0 0 0 1.28,-0.39a2.63,2.63 0 0 0 0.7,-2.18l0.04,0.03zm1,3.26l-0.92,0l-0.2,-1.11a2,2 0 0 1 -0.9,1a2.5,2.5 0 0 1 -1.11,0.22a2.11,2.11 0 0 1 -1.71,-0.7a1.73,1.73 0 0 1 -0.48,-1.16a1.89,1.89 0 0 1 1,-1.77a5.59,5.59 0 0 1 2.55,-0.44l0.39,0a0.89,0.89 0 0 1 0.3,0a1.76,1.76 0 0 0 -0.6,-1.59a2,2 0 0 0 -1.23,-0.3a1.35,1.35 0 0 0 -0.95,0.42a1.28,1.28 0 0 0 -0.46,0.78l-0.9,-0.22a2.25,2.25 0 0 1 0.85,-1.28a3.09,3.09 0 0 1 1.84,-0.49a2.41,2.41 0 0 1 1.72,0.54a2,2 0 0 1 0.57,1.53l0,3.58a2,2 0 0 0 0.06,0.44a4.45,4.45 0 0 0 0.18,0.52l0,0.03zm-6,0l-4.42,0l0,-0.94l3.14,-4.64l-3,0l0,-0.89l4.24,0l0,0.69l-3.19,4.84l3.22,0l0.01,0.94zm-4.7,-5.65l-0.24,0a1.52,1.52 0 0 0 -1.35,0.79a2.31,2.31 0 0 0 -0.44,1.37l0,3.5l-0.93,0l0,-6.44l0.84,0l0,1.49a4.08,4.08 0 0 1 0.48,-1a1.4,1.4 0 0 1 1.2,-0.72a2.07,2.07 0 0 1 0.45,0.06l-0.01,0.95zm-5.33,1.79a2,2 0 0 0 -0.51,-1.43a1.42,1.42 0 0 0 -1.08,-0.47a1.52,1.52 0 0 0 -1.11,0.47a2.23,2.23 0 0 0 -0.65,1.43l3.35,0zm1,0.68l-4.33,0a2.81,2.81 0 0 0 0.58,1.87a1.59,1.59 0 0 0 1.27,0.64a1.61,1.61 0 0 0 0.91,-0.31a1.9,1.9 0 0 0 0.65,-0.91l0.83,0.2a2.77,2.77 0 0 1 -1.34,1.64a3,3 0 0 1 -1.32,0.24a2.27,2.27 0 0 1 -1.93,-1a3.64,3.64 0 0 1 -0.7,-2.24a4.15,4.15 0 0 1 0.67,-2.34a2.13,2.13 0 0 1 1.85,-1.11a2.56,2.56 0 0 1 2.12,0.92a3.68,3.68 0 0 1 0.71,2.37l0.03,0.03zm-6.45,3.18l-0.91,0l0,-1.19a2,2 0 0 1 -0.72,1a2.08,2.08 0 0 1 -1.19,0.36a1.79,1.79 0 0 1 -1.37,-0.57a2.69,2.69 0 0 1 -0.6,-1.88l0,-4.15l0.93,0l0,3.75a2.59,2.59 0 0 0 0.36,1.52a0.94,0.94 0 0 0 0.84,0.46a1.46,1.46 0 0 0 1.13,-0.6a2.15,2.15 0 0 0 0.52,-1.45l0,-3.68l1,0l0.01,6.43zm-5.07,-7.71l-4,0l0,2.65l3.23,0l0,0.89l-3.23,0l0,4.17l-1,0l0,-8.64l5,0l0,0.93zm-10,5.77a1.91,1.91 0 0 1 -0.66,1.45a2.46,2.46 0 0 1 -1.61,0.55a3.77,3.77 0 0 1 -2,-0.47a1.91,1.91 0 0 1 -0.88,-1.42l0.82,-0.19a1.73,1.73 0 0 0 0.83,1a3,3 0 0 0 1.21,0.18a1.49,1.49 0 0 0 0.92,-0.32a1,1 0 0 0 0.44,-0.68c0,-0.42 -0.33,-0.71 -1,-0.89l-1.94,-0.54a1.61,1.61 0 0 1 -1.06,-1.51a1.9,1.9 0 0 1 0.47,-1.26a2.08,2.08 0 0 1 1.72,-0.72a2.93,2.93 0 0 1 1.61,0.39a2.46,2.46 0 0 1 0.88,1.19l-0.83,0.28a1.74,1.74 0 0 0 -0.69,-0.78a1.25,1.25 0 0 0 -0.6,-0.2a2,2 0 0 0 -1.13,0.3a0.79,0.79 0 0 0 -0.43,0.68c0,0.52 0.32,0.83 1,1l2,0.39a1.51,1.51 0 0 1 0.92,1.57l0.01,0zm-7,-1.32a8.26,8.26 0 0 0 -2.07,0.18c-0.78,0.24 -1.17,0.67 -1.17,1.31a1,1 0 0 0 0.33,0.74a1.19,1.19 0 0 0 0.88,0.31a1.93,1.93 0 0 0 1.29,-0.39a2.66,2.66 0 0 0 0.7,-2.18l0.04,0.03zm1,3.26l-0.93,0l-0.19,-1.11a1.84,1.84 0 0 1 -0.88,1a2.6,2.6 0 0 1 -1.1,0.22a2.12,2.12 0 0 1 -1.72,-0.7a1.69,1.69 0 0 1 -0.48,-1.16a1.86,1.86 0 0 1 1,-1.77a5.47,5.47 0 0 1 2.53,-0.44l0.41,0a0.89,0.89 0 0 1 0.3,0a1.78,1.78 0 0 0 -0.6,-1.59a2.07,2.07 0 0 0 -1.25,-0.3a1.4,1.4 0 0 0 -0.94,0.42a1.31,1.31 0 0 0 -0.45,0.78l-0.92,-0.22a2.26,2.26 0 0 1 0.86,-1.28a3.14,3.14 0 0 1 1.84,-0.49a2.45,2.45 0 0 1 1.72,0.54a2,2 0 0 1 0.58,1.53l0,3.58a4.2,4.2 0 0 0 0,0.44c0.1,0.15 0.14,0.32 0.2,0.52l0.02,0.03zm-5.81,-5.65l-0.24,0a1.57,1.57 0 0 0 -1.36,0.79a2.38,2.38 0 0 0 -0.44,1.37l0,3.5l-0.91,0l0,-6.44l0.84,0l0,1.49a3.85,3.85 0 0 1 0.45,-1a1.44,1.44 0 0 1 1.21,-0.72a2.07,2.07 0 0 1 0.45,0.06l0,0.95zm-3.7,5.75a5.19,5.19 0 0 1 -1,0.13a1.51,1.51 0 0 1 -1.33,-0.6a2.74,2.74 0 0 1 -0.37,-1.61l0,-3.67l-1,0l0,-0.79l1,0l0,-1.7l1,0l0,1.67l1.29,0l0,0.79l-1.29,0l0,3.46a2.92,2.92 0 0 0 0.15,1.1a0.76,0.76 0 0 0 0.74,0.42a2.74,2.74 0 0 0 0.78,-0.14l0.03,0.94zm-4.24,-2a2,2 0 0 1 -0.66,1.45a2.52,2.52 0 0 1 -1.65,0.59a3.71,3.71 0 0 1 -2,-0.47a1.92,1.92 0 0 1 -0.89,-1.42l0.83,-0.19a1.66,1.66 0 0 0 0.83,1a2.91,2.91 0 0 0 1.2,0.18a1.49,1.49 0 0 0 0.92,-0.32a1,1 0 0 0 0.43,-0.68c0,-0.42 -0.33,-0.71 -1,-0.89l-2,-0.54a1.58,1.58 0 0 1 -1,-1.51a2.1,2.1 0 0 1 0.44,-1.26a2.2,2.2 0 0 1 1.72,-0.72a2.89,2.89 0 0 1 1.63,0.39a2.22,2.22 0 0 1 0.87,1.19l-0.82,0.28a2,2 0 0 0 -0.67,-0.78a1.32,1.32 0 0 0 -0.62,-0.2a1.9,1.9 0 0 0 -1.12,0.3a0.79,0.79 0 0 0 -0.45,0.68c0,0.52 0.33,0.83 1,1l2,0.39a1.52,1.52 0 0 1 0.99,1.49l0.02,0.04zm-7.2,-1.92a2,2 0 0 0 -0.49,-1.43a1.41,1.41 0 0 0 -1.08,-0.47a1.6,1.6 0 0 0 -1.14,0.47a2.2,2.2 0 0 0 -0.62,1.43l3.33,0zm1,0.68l-4.32,0a2.71,2.71 0 0 0 0.58,1.87a1.57,1.57 0 0 0 1.25,0.64a1.59,1.59 0 0 0 0.92,-0.31a1.78,1.78 0 0 0 0.65,-0.91l0.85,0.2a2.53,2.53 0 0 1 -2.69,1.88a2.3,2.3 0 0 1 -1.93,-1a3.76,3.76 0 0 1 -0.68,-2.24a4.14,4.14 0 0 1 0.66,-2.34a2.16,2.16 0 0 1 1.87,-1.11a2.5,2.5 0 0 1 2.09,0.92a3.69,3.69 0 0 1 0.72,2.33l0.03,0.07zm-6.46,3.18l-0.9,0l0,-1.19a1.93,1.93 0 0 1 -0.71,1a2.14,2.14 0 0 1 -1.2,0.36a1.77,1.77 0 0 1 -1.36,-0.57a2.64,2.64 0 0 1 -0.61,-1.88l0,-4.15l0.92,0l0,3.75a2.84,2.84 0 0 0 0.36,1.52a1,1 0 0 0 0.86,0.46a1.43,1.43 0 0 0 1.13,-0.6a2.11,2.11 0 0 0 0.53,-1.45l0,-3.68l1,0l-0.02,6.43zm-6.17,0l-0.92,0l0,-4.46a1.08,1.08 0 0 0 -0.35,-0.9a1.29,1.29 0 0 0 -0.85,-0.32a1.54,1.54 0 0 0 -1.18,0.54a2.51,2.51 0 0 0 -0.56,1.75l0,3.39l-0.92,0l0,-6.44l0.92,0l0,1.08a3,3 0 0 1 0.9,-1a2,2 0 0 1 1.08,-0.32a1.72,1.72 0 0 1 1.33,0.61a2.43,2.43 0 0 1 0.55,1.66l0,4.41zm-9.06,-5.65l-0.25,0a1.55,1.55 0 0 0 -1.38,0.67a2.39,2.39 0 0 0 -0.45,1.37l0,3.5l-0.93,0l0,-6.44l0.85,0l0,1.57a3.75,3.75 0 0 1 0.48,-1a1.37,1.37 0 0 1 1.19,-0.72a2.07,2.07 0 0 1 0.45,0.06l0.04,0.99zm-5.28,2.26a3.48,3.48 0 0 0 -0.35,-1.59a1.42,1.42 0 0 0 -1.31,-0.88a1.4,1.4 0 0 0 -1.18,0.7a2.8,2.8 0 0 0 -0.49,1.66a3.22,3.22 0 0 0 0.59,2.14a1.39,1.39 0 0 0 1.08,0.54a1.35,1.35 0 0 0 1.33,-0.85a4.27,4.27 0 0 0 0.3,-1.79l0.03,0.07zm1,0a4.73,4.73 0 0 1 -0.51,2.35a2.19,2.19 0 0 1 -2.07,1.23a2.39,2.39 0 0 1 -2.23,-1.34a4.17,4.17 0 0 1 -0.55,-2.11a4.42,4.42 0 0 1 0.47,-2a2.34,2.34 0 0 1 2.23,-1.39a2.52,2.52 0 0 1 1.49,0.48a3.17,3.17 0 0 1 1.17,2.71l0,0.07zm-7,-2.59a1.73,1.73 0 0 0 -0.43,-1.18a1.67,1.67 0 0 0 -1.32,-0.55l-1.69,0l0,3.34l1.86,0a1.39,1.39 0 0 0 1.14,-0.47a1.58,1.58 0 0 0 0.43,-1.21l0.01,0.07zm1,-0.09a2.73,2.73 0 0 1 -0.63,1.78a2.36,2.36 0 0 1 -1.86,0.79l-2,0l0,3.5l-1.04,0l0,-8.68l3.07,0a2.34,2.34 0 0 1 1.86,0.78a2.6,2.6 0 0 1 0.63,1.76l-0.03,0.07z" class="cls-1"/>
  <path id="svg_2" fill="#ffffff" d="m224,253.8l-1.31,0l0,-1.49l1.31,0l0,1.49zm-3.81,-3.28a7.54,7.54 0 0 0 -2.08,0.21c-0.77,0.22 -1.16,0.66 -1.16,1.31a1,1 0 0 0 0.33,0.74a1.3,1.3 0 0 0 0.89,0.32a1.89,1.89 0 0 0 1.28,-0.41a2.73,2.73 0 0 0 0.73,-2.17l0.01,0zm1,3.28l-0.93,0l-0.19,-1.09a1.86,1.86 0 0 1 -0.89,0.92a2.34,2.34 0 0 1 -1.12,0.24a2.15,2.15 0 0 1 -1.71,-0.69a1.84,1.84 0 0 1 -0.46,-1.17a1.87,1.87 0 0 1 1,-1.77a5.63,5.63 0 0 1 2.54,-0.45l0.41,0a1.16,1.16 0 0 1 0.29,0.05a1.86,1.86 0 0 0 -0.6,-1.61a2.28,2.28 0 0 0 -1.24,-0.27a1.38,1.38 0 0 0 -0.94,0.41a1.42,1.42 0 0 0 -0.46,0.79l-0.9,-0.2a2.16,2.16 0 0 1 0.86,-1.3a3,3 0 0 1 1.82,-0.49a2.38,2.38 0 0 1 1.73,0.55a2,2 0 0 1 0.58,1.52l0,3.56c0,0.14 0,0.3 0,0.47s0.17,0.35 0.23,0.53l-0.02,0zm-5.83,-5.64l-0.23,0a1.55,1.55 0 0 0 -1.35,0.79a2.47,2.47 0 0 0 -0.44,1.4l0,3.47l-0.93,0l0,-6.43l0.84,0l0,1.49a4.87,4.87 0 0 1 0.47,-1.05a1.39,1.39 0 0 1 1.2,-0.7a2.69,2.69 0 0 1 0.44,0.06l0,0.97zm-5.32,1.78a2.11,2.11 0 0 0 -0.49,-1.43a1.5,1.5 0 0 0 -1.09,-0.47a1.65,1.65 0 0 0 -1.14,0.47a2.36,2.36 0 0 0 -0.62,1.43l3.34,0zm1,0.68l-4.34,0a2.86,2.86 0 0 0 0.56,1.87a1.59,1.59 0 0 0 1.29,0.64a1.57,1.57 0 0 0 0.9,-0.3a2,2 0 0 0 0.64,-0.92l0.84,0.2a2.83,2.83 0 0 1 -1.34,1.64a2.9,2.9 0 0 1 -1.32,0.25a2.33,2.33 0 0 1 -1.94,-1a3.84,3.84 0 0 1 -0.68,-2.25a4.12,4.12 0 0 1 0.67,-2.34a2.14,2.14 0 0 1 1.85,-1.12a2.6,2.6 0 0 1 2.11,0.92a3.74,3.74 0 0 1 0.78,2.41l-0.02,0zm-5.64,3.26a4.11,4.11 0 0 1 -1,0.16a1.56,1.56 0 0 1 -1.34,-0.6a2.82,2.82 0 0 1 -0.37,-1.61l0,-3.67l-1,0l0,-0.79l1,0l0,-1.69l1,0l0,1.69l1.3,0l0,0.79l-1.3,0l0,3.47a2.91,2.91 0 0 0 0.15,1.08a0.76,0.76 0 0 0 0.75,0.42a2.14,2.14 0 0 0 0.77,-0.14l0.04,0.89zm-4.4,-0.08l-0.9,0l0,-4.45a1.17,1.17 0 0 0 -0.36,-0.91a1.21,1.21 0 0 0 -0.87,-0.33a1.52,1.52 0 0 0 -1.16,0.57a2.49,2.49 0 0 0 -0.58,1.75l0,3.37l-0.92,0l0,-6.43l0.92,0l0,1.07a2.71,2.71 0 0 1 0.92,-0.95a2,2 0 0 1 1.06,-0.34a1.76,1.76 0 0 1 1.35,0.62a2.49,2.49 0 0 1 0.54,1.68l0,4.35zm-7.18,-3.86a2,2 0 0 0 -0.49,-1.43a1.44,1.44 0 0 0 -1.08,-0.47a1.67,1.67 0 0 0 -1.14,0.47a2.42,2.42 0 0 0 -0.62,1.43l3.33,0zm1,0.68l-4.32,0a2.92,2.92 0 0 0 0.57,1.87a1.59,1.59 0 0 0 1.27,0.64a1.46,1.46 0 0 0 0.9,-0.3a1.86,1.86 0 0 0 0.66,-0.92l0.84,0.2a2.9,2.9 0 0 1 -1.34,1.64a3,3 0 0 1 -1.4,0.25a2.28,2.28 0 0 1 -1.92,-1a3.64,3.64 0 0 1 -0.69,-2.25a4.11,4.11 0 0 1 0.66,-2.34a2.15,2.15 0 0 1 1.86,-1.12a2.58,2.58 0 0 1 2.1,0.92a3.79,3.79 0 0 1 0.78,2.41l0.03,0zm-10.63,-0.1a7.61,7.61 0 0 0 -2.07,0.21c-0.78,0.22 -1.15,0.66 -1.15,1.31a0.91,0.91 0 0 0 0.34,0.74a1.15,1.15 0 0 0 0.86,0.32a2,2 0 0 0 1.3,-0.41a2.73,2.73 0 0 0 0.69,-2.17l0.03,0zm1,3.28l-0.93,0l-0.17,-1.09a1.89,1.89 0 0 1 -0.91,0.92a2.25,2.25 0 0 1 -1.09,0.24a2.19,2.19 0 0 1 -1.74,-0.69a2,2 0 0 1 -0.46,-1.17a1.83,1.83 0 0 1 1.05,-1.77a5.53,5.53 0 0 1 2.52,-0.45l0.41,0a1.08,1.08 0 0 1 0.29,0.05a1.81,1.81 0 0 0 -0.59,-1.61a2.3,2.3 0 0 0 -1.25,-0.27a1.41,1.41 0 0 0 -0.94,0.41a1.33,1.33 0 0 0 -0.44,0.79l-0.94,-0.16a2.32,2.32 0 0 1 0.84,-1.3a3.07,3.07 0 0 1 1.84,-0.49a2.38,2.38 0 0 1 1.73,0.55a2,2 0 0 1 0.57,1.52l0,3.56a2,2 0 0 0 0.05,0.47c0.07,0.13 0.11,0.31 0.16,0.49z" class="cls-1"/>
  <rect id="svg_3" fill="#d31d20" height="76.51" width="82.25" y="27.6" x="59.48" class="cls-2"/>
  <rect id="svg_4" fill="#67b5e5" height="76.52" width="82.25" y="104.1" x="59.48" class="cls-3"/>
  <rect id="svg_5" fill="#1f4b9a" height="76.51" width="82.25" y="27.6" x="141.73" class="cls-4"/>
  <rect id="svg_6" fill="#3e9239" height="76.52" width="82.25" y="104.1" x="141.73" class="cls-5"/>
  <polygon id="svg_7" fill="#fff" points="95.62 91.17 67.33 89.73 67.88 77.31 96.06 80.95 88.66 52.52 99.3 49.51 105.7 77.96 128.54 62.59 133.87 71.84 111.02 87.21 131.61 105.7 124.57 114.98 104.17 95.05 94.86 124.25 84.45 119.53 95.62 91.17" class="cls-6"/>
  <polygon id="svg_8" fill="#fff" points="131.14 145.34 109.39 164.97 102.04 155.39 125.1 137.5 101.91 121.93 107.88 111.91 130.34 128.25 137.61 100.21 147.29 103.14 140.04 131.19 166.76 129.77 167.38 141.77 139.87 141.99 151.21 170.31 140.6 174.44 131.14 145.34" class="cls-6"/>
  <polygon id="svg_9" fill="#fff" points="151.96 78.22 129.24 96.49 122.38 86.49 146.33 70.01 124 53.07 130.47 43.43 152.05 61.11 160.75 33.55 170.26 37.05 161.58 64.62 188.31 64.81 188.31 76.83 160.87 75.38 170.73 104.34 159.91 107.82 151.96 78.22" class="cls-6"/>
  <polygon id="svg_10" fill="#fff" points="179.89 123.51 151.56 124.27 151.3 111.84 179.65 113.28 170.4 85.5 180.8 81.67 189.07 109.56 210.82 92.44 216.74 101.26 194.97 118.38 216.73 135.19 210.34 145.03 188.66 126.71 181.31 156.57 170.63 152.68 179.89 123.51" class="cls-6"/>
  <path id="svg_11" fill="#ffffff" d="m223.05,200.59l-0.83,0l0,-10.94l0.83,0l0,10.94zm-3.73,-3.06l0,-1.09a5.37,5.37 0 0 1 -1.27,0.25a9.36,9.36 0 0 0 -1.29,0.13a2.17,2.17 0 0 0 -1.1,0.52a1.51,1.51 0 0 0 -0.53,1.13a1.35,1.35 0 0 0 0.51,1.14a1.8,1.8 0 0 0 1.13,0.38a2.71,2.71 0 0 0 1.82,-0.62a2.28,2.28 0 0 0 0.73,-1.84zm1.68,3.06a5.2,5.2 0 0 1 -0.61,0.07c-0.7,0 -1,-0.41 -1,-1.21a3.47,3.47 0 0 1 -2.68,1.33a2.51,2.51 0 0 1 -1.69,-0.57a2.19,2.19 0 0 1 -0.72,-1.73a2.06,2.06 0 0 1 0.64,-1.63a2.82,2.82 0 0 1 1.47,-0.59l1.59,-0.26a2.29,2.29 0 0 0 0.91,-0.24c0.24,-0.11 0.36,-0.38 0.36,-0.79a1.7,1.7 0 0 0 -0.47,-1.36a2.18,2.18 0 0 0 -1.33,-0.36c-1.32,0 -2,0.59 -2.08,1.76l-0.8,0a2.44,2.44 0 0 1 0.88,-2a3.12,3.12 0 0 1 2,-0.61c1.77,0 2.66,0.8 2.66,2.39l0,4.29a1.27,1.27 0 0 0 0.1,0.59a0.42,0.42 0 0 0 0.37,0.15l0.4,0l0,0.77zm-8.34,0l-0.84,0l0,-7.92l0.84,0l0,7.92zm0,-9.59l-0.84,0l0,-1.35l0.84,0l0,1.35zm-2.07,2.42c-1.55,0 -2.31,0.93 -2.31,2.77l0,4.4l-0.84,0l0,-7.92l0.8,0l0,1.39a2.35,2.35 0 0 1 2.35,-1.59l0,0.95zm-6,4.11l0,-1.09a5.27,5.27 0 0 1 -1.27,0.25a9,9 0 0 0 -1.29,0.13a2.09,2.09 0 0 0 -1.1,0.52a1.51,1.51 0 0 0 -0.53,1.13a1.42,1.42 0 0 0 0.5,1.14a1.86,1.86 0 0 0 1.14,0.38a2.69,2.69 0 0 0 1.82,-0.62a2.41,2.41 0 0 0 0.76,-1.84l-0.03,0zm1.66,3.06a4.82,4.82 0 0 1 -0.6,0.07c-0.69,0 -1,-0.41 -1,-1.21a3.47,3.47 0 0 1 -2.68,1.33a2.52,2.52 0 0 1 -1.71,-0.57a2.18,2.18 0 0 1 -0.71,-1.73a2.06,2.06 0 0 1 0.64,-1.63a2.86,2.86 0 0 1 1.49,-0.59l1.66,-0.23a2.17,2.17 0 0 0 0.9,-0.24a0.8,0.8 0 0 0 0.37,-0.79a1.77,1.77 0 0 0 -0.47,-1.36a2.13,2.13 0 0 0 -1.33,-0.36c-1.33,0 -2,0.59 -2.07,1.76l-0.8,0a2.4,2.4 0 0 1 0.86,-2a3.13,3.13 0 0 1 2,-0.61c1.77,0 2.64,0.8 2.64,2.39l0,4.29a1.27,1.27 0 0 0 0.1,0.59a0.49,0.49 0 0 0 0.39,0.15l0.34,0l-0.02,0.74zm-7.95,-2.06a1.94,1.94 0 0 1 -0.9,1.74a3.36,3.36 0 0 1 -1.89,0.52a2.81,2.81 0 0 1 -1.95,-0.67a2.63,2.63 0 0 1 -0.86,-2l0.87,0a1.82,1.82 0 0 0 0.55,1.36a2,2 0 0 0 1.36,0.52a2.5,2.5 0 0 0 1.3,-0.31a1.28,1.28 0 0 0 0.66,-1.17c0,-0.6 -0.41,-1 -1.2,-1.29l-2.2,-0.66a1.84,1.84 0 0 1 -1.17,-1.8a2.12,2.12 0 0 1 0.77,-1.72a2.67,2.67 0 0 1 1.71,-0.57a2.87,2.87 0 0 1 1.93,0.65a2.5,2.5 0 0 1 0.82,1.87l-0.86,0a1.7,1.7 0 0 0 -0.59,-1.3a2.05,2.05 0 0 0 -1.31,-0.41a1.9,1.9 0 0 0 -1.1,0.32a1.18,1.18 0 0 0 -0.52,1c0,0.65 0.4,1.11 1.18,1.36l2.21,0.64a1.91,1.91 0 0 1 1.22,1.92l-0.03,0zm-7.66,-2.46a3.48,3.48 0 0 0 -0.6,-1.93a1.9,1.9 0 0 0 -1.65,-0.86a2,2 0 0 0 -1.67,0.82a3.51,3.51 0 0 0 -0.65,2l4.57,-0.03zm0.86,0.75l-5.4,0l0,0a3.87,3.87 0 0 0 0.58,2.17a2,2 0 0 0 1.78,1a2.13,2.13 0 0 0 1.42,-0.49a2.06,2.06 0 0 0 0.71,-1.36l0.83,0a2.83,2.83 0 0 1 -1,2a3,3 0 0 1 -2,0.67a2.72,2.72 0 0 1 -2.42,-1.24a5,5 0 0 1 -0.74,-2.88a5.21,5.21 0 0 1 0.74,-2.93a2.76,2.76 0 0 1 2.46,-1.27c2.05,-0.02 3.07,1.44 3.07,4.33l-0.03,0zm-7.07,-3.4c-1.54,0 -2.32,0.93 -2.32,2.77l0,4.4l-0.83,0l0,-7.92l0.81,0l0,1.39a2.33,2.33 0 0 1 2.34,-1.59l0,0.95zm-5.43,3.22a4.33,4.33 0 0 0 -0.55,-2.34a2.32,2.32 0 0 0 -3.84,0a4.51,4.51 0 0 0 -0.52,2.34a4.57,4.57 0 0 0 0.53,2.33a2.15,2.15 0 0 0 1.91,1a2.13,2.13 0 0 0 1.92,-1a4.25,4.25 0 0 0 0.55,-2.33zm0.88,0a4.9,4.9 0 0 1 -0.79,2.91a2.83,2.83 0 0 1 -2.49,1.24a2.68,2.68 0 0 1 -2.5,-1.58l0,4.56l-0.81,0l0,-11.1l0.81,0l0,1.43a2.73,2.73 0 0 1 2.56,-1.63a2.79,2.79 0 0 1 2.46,1.27a5.08,5.08 0 0 1 0.71,2.9l0.05,0zm-8.47,4l-0.85,0l0,-5.44a2.42,2.42 0 0 0 -0.32,-1.4a1.45,1.45 0 0 0 -1.21,-0.47a2,2 0 0 0 -1.53,0.66a2.31,2.31 0 0 0 -0.59,1.69l0,5l-0.91,0l0,-5.35c0,-1.3 -0.5,-2 -1.51,-2a1.92,1.92 0 0 0 -1.55,0.69a2.45,2.45 0 0 0 -0.6,1.73l0,4.89l-0.84,0l0,-7.92l0.78,0l0,1.28a2.45,2.45 0 0 1 2.32,-1.52a1.91,1.91 0 0 1 2.07,1.57a2.45,2.45 0 0 1 2.35,-1.57c1.55,0 2.34,0.87 2.34,2.6l0.05,5.56zm-11.39,0l-6.76,0l0,-10.99l6.59,0l0,0.89l-5.67,0l0,4l5.2,0l0,0.9l-5.2,0l0,4.27l5.82,0l0.02,0.93zm-11.71,-7.92l-3.21,9.45a3.21,3.21 0 0 1 -0.71,1.25a1.77,1.77 0 0 1 -1.26,0.46a1.67,1.67 0 0 1 -0.57,-0.08l0,-0.84l0.56,0.11a1.28,1.28 0 0 0 1.11,-0.86c0.16,-0.5 0.32,-1 0.5,-1.48l-2.83,-8l0.9,0l2.34,6.74l2.3,-6.74l0.87,-0.01zm-11.17,7.92l-0.83,0l0,-10.99l0.83,0l0,10.99zm-3.73,-3.06l0,-1.09a5.07,5.07 0 0 1 -1.27,0.25a9.16,9.16 0 0 0 -1.29,0.13a2,2 0 0 0 -1.08,0.52a1.5,1.5 0 0 0 -0.55,1.13a1.41,1.41 0 0 0 0.52,1.14a1.83,1.83 0 0 0 1.14,0.38a2.61,2.61 0 0 0 1.79,-0.62a2.26,2.26 0 0 0 0.69,-1.89l0.05,0.05zm1.67,3.06a4.76,4.76 0 0 1 -0.61,0.07c-0.7,0 -1,-0.41 -1,-1.21a3.45,3.45 0 0 1 -2.67,1.33a2.59,2.59 0 0 1 -1.72,-0.57a2.2,2.2 0 0 1 -0.69,-1.73a2,2 0 0 1 0.64,-1.63a2.82,2.82 0 0 1 1.48,-0.59l1.65,-0.23a2,2 0 0 0 0.9,-0.24c0.24,-0.11 0.37,-0.38 0.37,-0.79a1.77,1.77 0 0 0 -0.46,-1.36a2.18,2.18 0 0 0 -1.35,-0.36c-1.31,0 -2,0.59 -2.05,1.76l-0.82,0a2.41,2.41 0 0 1 0.88,-2a3.15,3.15 0 0 1 2,-0.61c1.79,0 2.68,0.8 2.68,2.39l0,4.29a1.34,1.34 0 0 0 0.08,0.59a0.49,0.49 0 0 0 0.39,0.15l0.22,0l0.08,0.74zm-8.34,0l-0.83,0l0,-7.92l0.83,0l0,7.92zm0,-9.59l-0.83,0l0,-1.35l0.83,0l0,1.35zm-2.32,6.84a3.07,3.07 0 0 1 -0.93,2.15a2.87,2.87 0 0 1 -2.08,0.79a2.78,2.78 0 0 1 -2.42,-1.23a4.83,4.83 0 0 1 -0.77,-2.86a5.1,5.1 0 0 1 0.77,-2.94a2.75,2.75 0 0 1 2.46,-1.28a2.81,2.81 0 0 1 2,0.75a2.74,2.74 0 0 1 0.88,2l-0.81,0a2.17,2.17 0 0 0 -0.68,-1.39a2,2 0 0 0 -1.39,-0.53a2,2 0 0 0 -1.83,1.05a5.1,5.1 0 0 0 0,4.57a2,2 0 0 0 1.85,1.09a1.94,1.94 0 0 0 1.42,-0.59a2.71,2.71 0 0 0 0.69,-1.56l0.84,-0.02zm-8.2,-1.2a4.53,4.53 0 0 0 -0.53,-2.34a2.23,2.23 0 0 0 -2,-1a2.18,2.18 0 0 0 -1.92,1a5.15,5.15 0 0 0 0,4.67a2.18,2.18 0 0 0 1.92,1a2.23,2.23 0 0 0 2,-1a4.54,4.54 0 0 0 0.48,-2.38l0.05,0.05zm0.88,0a4.84,4.84 0 0 1 -0.8,2.94a3.31,3.31 0 0 1 -5.1,0a4.91,4.91 0 0 1 -0.78,-2.94a5,5 0 0 1 0.78,-3a3,3 0 0 1 2.54,-1.21a3,3 0 0 1 2.56,1.2a5,5 0 0 1 0.75,2.96l0.05,0.05zm-7.9,1.06a2.94,2.94 0 0 1 -1,2.43a3.69,3.69 0 0 1 -2.42,0.75a4,4 0 0 1 -2.78,-0.93a3.52,3.52 0 0 1 -1,-2.74l0.95,0a2.67,2.67 0 0 0 0.8,2.05a3,3 0 0 0 2,0.66a2.85,2.85 0 0 0 1.74,-0.49a2,2 0 0 0 0.77,-1.68a2.15,2.15 0 0 0 -1.57,-2.1c-1,-0.29 -1.93,-0.58 -2.9,-0.89a2.56,2.56 0 0 1 -1.57,-2.55a2.7,2.7 0 0 1 1,-2.23a3.66,3.66 0 0 1 2.28,-0.7a3.52,3.52 0 0 1 2.43,0.82a3.42,3.42 0 0 1 1,2.5l-1,0a2.47,2.47 0 0 0 -0.7,-1.86a2.53,2.53 0 0 0 -1.77,-0.57a2.62,2.62 0 0 0 -1.62,0.47a1.92,1.92 0 0 0 -0.69,1.6c0,0.87 0.52,1.48 1.57,1.84s1.92,0.65 2.89,0.94a2.67,2.67 0 0 1 1.54,2.63l0.05,0.05zm-13,-1.06a4.33,4.33 0 0 0 -0.55,-2.34a2.17,2.17 0 0 0 -1.93,-1a2.14,2.14 0 0 0 -1.91,1a5.15,5.15 0 0 0 0,4.67a2.14,2.14 0 0 0 1.91,1a2.17,2.17 0 0 0 1.93,-1a4.34,4.34 0 0 0 0.5,-2.38l0.05,0.05zm0.88,0a4.71,4.71 0 0 1 -0.81,2.94a3.29,3.29 0 0 1 -5.08,0a4.77,4.77 0 0 1 -0.79,-2.94a4.88,4.88 0 0 1 0.79,-3a2.93,2.93 0 0 1 2.53,-1.21a3,3 0 0 1 2.55,1.2a4.84,4.84 0 0 1 0.73,2.96l0.08,0.05zm-8.67,0a4.33,4.33 0 0 0 -0.56,-2.34a2.32,2.32 0 0 0 -3.84,0a4.5,4.5 0 0 0 -0.53,2.34a4.37,4.37 0 0 0 0.52,2.31a2.31,2.31 0 0 0 3.83,0a4.33,4.33 0 0 0 0.53,-2.36l0.05,0.05zm0.86,0a4.89,4.89 0 0 1 -0.78,2.91a2.81,2.81 0 0 1 -2.49,1.19a2.67,2.67 0 0 1 -2.5,-1.58l0,4.56l-0.83,0l0,-11.1l0.83,0l0,1.43a2.7,2.7 0 0 1 2.5,-1.63a2.75,2.75 0 0 1 2.44,1.27a4.86,4.86 0 0 1 0.78,2.9l0.05,0.05zm-8.5,4l-0.83,0l0,-1.28a2.63,2.63 0 0 1 -2.44,1.48c-1.63,0 -2.45,-0.92 -2.45,-2.8l0,-5.32l0.83,0l0,5.1a2.85,2.85 0 0 0 0.36,1.63a1.62,1.62 0 0 0 1.41,0.59a2.05,2.05 0 0 0 1.68,-0.76a2.83,2.83 0 0 0 0.57,-1.89l0,-4.67l0.87,0l0,7.92zm-6.86,-7.17c-1.53,0 -2.31,0.93 -2.31,2.77l0,4.4l-0.84,0l0,-7.92l0.82,0l0,1.39a2.32,2.32 0 0 1 2.33,-1.59l0,0.95zm-5,7.17l-0.74,0l-0.1,-2a3.64,3.64 0 0 1 -1.46,1.68a3.76,3.76 0 0 1 -2,0.56a3.94,3.94 0 0 1 -3.45,-1.73a8.25,8.25 0 0 1 0,-8.11a4,4 0 0 1 3.48,-1.69a4.46,4.46 0 0 1 2.74,0.82a3.9,3.9 0 0 1 1.44,2.64l-1,0a2.9,2.9 0 0 0 -1.14,-1.94a3.4,3.4 0 0 0 -2.07,-0.63a3.15,3.15 0 0 0 -2.81,1.44a6.12,6.12 0 0 0 -0.82,3.39a6.36,6.36 0 0 0 0.81,3.36a3,3 0 0 0 2.67,1.52a3.21,3.21 0 0 0 2.65,-1.15a4.61,4.61 0 0 0 0.86,-3l-3.3,0l0,-0.85l4.19,0l0.05,5.69z" class="cls-1"/>
  <path id="svg_12" fill="#ffffff" d="m220.39,213.48l0,-0.92a3.63,3.63 0 0 1 -0.92,0.32a3.14,3.14 0 0 0 -0.94,0.31a0.84,0.84 0 0 0 -0.45,0.76a1,1 0 0 0 0.25,0.68a0.79,0.79 0 0 0 0.64,0.26a1.45,1.45 0 0 0 1,-0.37a1.34,1.34 0 0 0 0.42,-1m2.66,2.88l-2.46,0a5.26,5.26 0 0 1 -0.14,-0.84a3.06,3.06 0 0 1 -2.37,1.1a2.39,2.39 0 0 1 -1.67,-0.61a2.43,2.43 0 0 1 -0.65,-1.76a2.32,2.32 0 0 1 1.24,-2.29a7,7 0 0 1 2.22,-0.6c0.82,-0.14 1.2,-0.34 1.2,-0.64l0,-0.2c0,-0.47 -0.32,-0.72 -1,-0.72a1.06,1.06 0 0 0 -1.2,0.92l-2.22,0c0.21,-1.81 1.38,-2.71 3.48,-2.71a3.24,3.24 0 0 1 2.58,0.84a4.51,4.51 0 0 1 0.65,2.81l0,3.05c0,0.73 0.12,1.14 0.35,1.27l-0.01,0.38zm-8.23,-2.54a2.42,2.42 0 0 1 -1.16,2.21a4.44,4.44 0 0 1 -2.4,0.59a4.55,4.55 0 0 1 -2.39,-0.58a2.49,2.49 0 0 1 -1.27,-2.16l2.4,0c0.05,0.72 0.49,1.09 1.29,1.09s1.13,-0.28 1.13,-0.82c0,-0.29 -0.41,-0.57 -1.19,-0.81a10.44,10.44 0 0 1 -2.2,-0.8a2.1,2.1 0 0 1 -1.18,-1.9a2.33,2.33 0 0 1 1,-2.08a3.91,3.91 0 0 1 2.2,-0.56c2.19,0 3.34,0.78 3.48,2.39l-2.34,0a1,1 0 0 0 -1.08,-0.83c-0.6,0 -0.9,0.25 -0.9,0.71s0.39,0.63 1.18,0.85a9.72,9.72 0 0 1 2.19,0.74a2.07,2.07 0 0 1 1.24,1.92l0,0.04zm-8.53,2.54l-2.43,0l0,-4.1a7.06,7.06 0 0 0 -0.08,-1.45a0.9,0.9 0 0 0 -0.95,-0.76c-0.81,0 -1.22,0.64 -1.22,1.95l0,4.32l-2.43,0l0,-8.1l2.38,0l0,1.12a2.42,2.42 0 0 1 2.25,-1.3a2.21,2.21 0 0 1 2,0.8a3.66,3.66 0 0 1 0.52,2.24l-0.04,5.28zm-10.7,-4.89a1.79,1.79 0 0 0 -0.36,-1.2a1.19,1.19 0 0 0 -1,-0.48c-0.83,0 -1.3,0.56 -1.39,1.68l2.75,0zm2.35,1a3.25,3.25 0 0 1 0,0.48l-5,0c0,1.16 0.43,1.73 1.33,1.73a1.13,1.13 0 0 0 1.22,-0.87l2.35,0a3.33,3.33 0 0 1 -1.37,2.08a3.6,3.6 0 0 1 -2.3,0.7a3.4,3.4 0 0 1 -2.75,-1.17a4.56,4.56 0 0 1 -1,-3.07a4.84,4.84 0 0 1 1,-3.13a3.77,3.77 0 0 1 5.61,0a5,5 0 0 1 0.91,3.22l0,0.03zm-8.1,-2.38l-1.2,0l0,6.26l-2.44,0l0,-6.29l-1.06,0l0,-1.62l1.06,0a4,4 0 0 1 0,-0.54a2.63,2.63 0 0 1 0.65,-2a2.79,2.79 0 0 1 1.94,-0.57c0.27,0 0.63,0 1.07,0l0,1.76a1.84,1.84 0 0 0 -0.36,0c-0.4,0 -0.65,0.13 -0.75,0.38a3,3 0 0 0 -0.09,1l1.2,0l-0.02,1.62zm-7.61,1.37a1.84,1.84 0 0 0 -0.35,-1.2a1.22,1.22 0 0 0 -1,-0.48c-0.84,0 -1.29,0.56 -1.38,1.68l2.73,0zm2.35,1a3.25,3.25 0 0 1 0,0.48l-5,0c0,1.16 0.42,1.73 1.31,1.73a1.17,1.17 0 0 0 1.25,-0.87l2.33,0a3.39,3.39 0 0 1 -1.35,2.08a3.68,3.68 0 0 1 -2.32,0.7a3.36,3.36 0 0 1 -2.73,-1.17a4.51,4.51 0 0 1 -1,-3.07a4.78,4.78 0 0 1 1,-3.13a3.37,3.37 0 0 1 2.76,-1.23a3.41,3.41 0 0 1 2.85,1.27a5,5 0 0 1 0.9,3.19l0,0.02zm-11.16,-1.58a4.53,4.53 0 0 0 -0.46,-2.27a2,2 0 0 0 -1.85,-0.91l-1.41,0l0,6.34l1.41,0a2,2 0 0 0 1.85,-0.92a4.41,4.41 0 0 0 0.46,-2.26l0,0.02zm2.61,0q0,5.46 -4.94,5.46l-4,0l0,-10.95l4.3,0a4.2,4.2 0 0 1 3.5,1.49a6.37,6.37 0 0 1 1.11,3.98l0.03,0.02zm-17.13,2.58l0,-0.92a3.26,3.26 0 0 1 -0.9,0.32a3.34,3.34 0 0 0 -0.95,0.31a0.86,0.86 0 0 0 -0.46,0.76a1,1 0 0 0 0.26,0.68a0.83,0.83 0 0 0 0.64,0.26a1.52,1.52 0 0 0 1,-0.37a1.39,1.39 0 0 0 0.41,-1.06l0,0.02zm2.69,2.88l-2.49,0a6.85,6.85 0 0 1 -0.11,-0.84a3.13,3.13 0 0 1 -2.37,1.1a2.41,2.41 0 0 1 -1.69,-0.61a2.38,2.38 0 0 1 -0.64,-1.76a2.3,2.3 0 0 1 1.21,-2.27a7.15,7.15 0 0 1 2.21,-0.6c0.8,-0.14 1.19,-0.34 1.19,-0.64l0,-0.2c0,-0.47 -0.32,-0.72 -1,-0.72a1.06,1.06 0 0 0 -1.21,0.92l-2.19,0c0.23,-1.81 1.39,-2.71 3.5,-2.71a3.2,3.2 0 0 1 2.57,0.84a4.5,4.5 0 0 1 0.66,2.81l0,3.05c0,0.73 0.12,1.14 0.36,1.27l0,0.36zm-8.63,0l-2.42,0l0,-10.95l2.46,0l-0.04,10.95zm-10.15,-4.89a2,2 0 0 0 -0.34,-1.2a1.19,1.19 0 0 0 -1,-0.48q-1.24,0 -1.38,1.68l2.72,0zm2.36,1c0,0.2 0,0.36 0,0.48l-5,0c0,1.16 0.42,1.73 1.32,1.73a1.12,1.12 0 0 0 1.23,-0.87l2.36,0a3.45,3.45 0 0 1 -1.36,2.08a3.7,3.7 0 0 1 -2.3,0.7a3.42,3.42 0 0 1 -2.76,-1.17a4.62,4.62 0 0 1 -1,-3.07a4.84,4.84 0 0 1 1,-3.13a3.76,3.76 0 0 1 5.6,0a5,5 0 0 1 0.91,3.24l0,0.01zm-11.2,-0.24c0,-1.41 -0.48,-2.14 -1.44,-2.14a1.22,1.22 0 0 0 -1.12,0.72a3,3 0 0 0 -0.28,1.42c0,1.48 0.46,2.22 1.42,2.22s1.45,-0.75 1.45,-2.23l-0.03,0.01zm2.39,4.14l-2.43,0l0,-1.09a2.44,2.44 0 0 1 -2.2,1.29a2.72,2.72 0 0 1 -2.38,-1.31a5.5,5.5 0 0 1 -0.75,-2.91a5.64,5.64 0 0 1 0.74,-2.93a2.66,2.66 0 0 1 2.35,-1.41a2.42,2.42 0 0 1 2.24,1.28l0,-3.87l2.43,0l0,10.95z" class="cls-1"/>
  <path id="svg_13" fill="#ffffff" d="m66.54,223.38l0,2.42l-2.25,0l0,-2.4m6.74,0l0,2.42l-2.26,0l0,-2.42m6.74,0l0,2.43l-2.24,0l0,-2.42m6.73,0l0,2.43l-2.24,0l0,-2.42m6.74,0l0,2.42l-2.25,0l0,-2.43m6.72,0l0,2.41l-2.23,0l0,-2.41m6.73,0l0,2.42l-2.24,0l0,-2.41m6.73,0l0,2.41l-2.26,0l0,-2.41m6.75,0l0,2.41l-2.25,0l0,-2.42m6.74,0l0,2.43l-2.25,0l0,-2.34m6.74,0l0,2.41l-2.24,0l0,-2.42m6.72,0l0,2.51l-2.24,0l0,-2.43m6.74,0l0,2.43l-2.25,0l0,-2.41m6.73,0l0,2.41l-2.23,0l0,-2.41m6.72,0l0,2.41l-2.24,0l0,-2.42m6.72,0l0,2.42l-2.25,0l0,-2.42m6.76,0l0,2.42l-2.26,0l0,-2.4m6.75,0l0,2.4l-2.26,0l0,-2.42m6.75,0l0,2.42l-2.25,0l0,-2.41m6.72,0l0,2.42l-2.23,0l0,-2.42m6.73,0l0,2.41l-2.24,0l0,-2.41m6.73,0l0,2.42l-2.26,0l0,-2.42m6.75,0l0,2.42l-2.25,0l0,-2.42m6.73,0l0,2.42l-2.23,0l0,-2.42m6.73,0l0,2.41l-2.28,0l0,-2.42m6.73,0l0,2.43l-2.23,0l0,-2.43m6.72,0l0,2.42l-2.22,0l0,-2.43m6.74,0l0,2.42l-2.26,0l0,-2.41m6.74,0l0,2.41l-2.22,0l0,-2.4m6.75,0l0,2.44l-2.26,0l0,-2.41m6.73,0l0,2.42l-2.22,0l0,-2.42m6.75,0l0,2.42l-2.25,0l0,-2.42m6.73,0l0,2.42l-2.23,0l0,-2.42m6.72,0l0,2.42l-2.25,0l0,-2.42m6.73,0l0,2.4l-2.25,0l0,-2.42m6.75,0l0,2.42l-2.24,0l0,-2.4m-159.46,-0.26l0,2.41l-2.19,0l0,-2.42l2.19,0.01z" class="cls-1"/>
 </g>
</svg>