<svg id="Capa_1" data-name="Capa 1" xmlns="http://www.w3.org/2000/svg" viewBox="0 0 283.46 283.46"><defs><style>.cls-1,.cls-4{fill:#004f86;}.cls-1,.cls-2,.cls-5{fill-rule:evenodd;}.cls-2{fill:#fff;}.cls-3,.cls-5{fill:#9c9b9b;}</style></defs><path class="cls-1" d="M142.42,63.16c50.41-.4,75.69,46.94,74.92,70,0,.43.63.78.47.78h-23.4c-1.11-27.59-28-49.08-51.69-48.58a55.28,55.28,0,0,0-54.41,48.58H65.69c-.16,0-.37-.36-.3-.78,5.44-34.16,28.34-69.56,77-70"/><path class="cls-2" d="M192.09,108.27l1,1.88a5,5,0,0,0,.86,1.29,2.23,2.23,0,0,0,.86.56,3.1,3.1,0,0,0,1.44.07,5.9,5.9,0,0,0,1.82-.63,4.56,4.56,0,0,0,1.89-1.54,2.52,2.52,0,0,0,.44-1.61,5,5,0,0,0-.59-1.6l-1-1.86Zm-1.64-.64,8.82-4.49,1.55,3a7.82,7.82,0,0,1,.67,1.64,3.3,3.3,0,0,1,0,1.62,4.11,4.11,0,0,1-1,1.81,7.62,7.62,0,0,1-3.82,2.09,5.17,5.17,0,0,1-1.6,0,3.45,3.45,0,0,1-1.21-.4,3.66,3.66,0,0,1-1-.82,6.75,6.75,0,0,1-.87-1.34Zm-10.52-13,6.87-7.12,5.16,5-.82.84-4.2-4.06-2.11,2.18,3.94,3.8L188,96,184,92.22l-2.34,2.43,4.38,4.22-.82.84ZM170.66,88l5-8.57,1.13.65-4.95,8.58ZM155.6,81.84l2.9-9.47,6.39,1.95-.34,1.12-5.14-1.57-.89,2.93L163,78.16l-.35,1.12-4.44-1.36-1.31,4.3Zm-11.32-1.35.69-9.88,1.3.09-.69,9.88Zm-13.75,1-1.36-8.63-3.22.52-.18-1.16L133.52,71l.18,1.16-3.24.51,1.37,8.62Zm-19.92,1.61,2.49-1.33a4.27,4.27,0,0,0,1.15-.82,1.51,1.51,0,0,0,.4-.89,1.65,1.65,0,0,0-.19-.9,1.46,1.46,0,0,0-1-.79,2.45,2.45,0,0,0-1.63.36l-2.77,1.47Zm1.44,5.49-4.65-8.74,3.88-2.06a5.89,5.89,0,0,1,1.9-.71,2.23,2.23,0,0,1,1.41.32,2.82,2.82,0,0,1,1.07,1.12,2.52,2.52,0,0,1,.23,1.89,3.46,3.46,0,0,1-1.43,1.8,3.24,3.24,0,0,1,.93.06,7.11,7.11,0,0,1,1.58.66l2.78,1.57-1.45.77-2.13-1.2c-.61-.35-1.11-.6-1.47-.76a2.81,2.81,0,0,0-.9-.27,2,2,0,0,0-.65,0,5.8,5.8,0,0,0-.67.3l-1.34.72L113.21,88ZM99.11,99.42,92.23,92.3l5.15-5,.82.84L94,92.23l2.11,2.18L100,90.6l.81.84L96.9,95.25l2.34,2.42,4.38-4.22.81.84Zm-9,7.29.89-1a4.41,4.41,0,0,1,1.52,2.44,4.07,4.07,0,0,1-.43,2.72,4.77,4.77,0,0,1-1.76,2,4.2,4.2,0,0,1-2.38.5,6.83,6.83,0,0,1-2.6-.74,5.89,5.89,0,0,1-2.14-1.75,4.07,4.07,0,0,1-.79-2.3,4.85,4.85,0,0,1,.56-2.41,4.06,4.06,0,0,1,1.8-1.88,4,4,0,0,1,2.54-.29L87,105.3a3,3,0,0,0-1.86.17A2.68,2.68,0,0,0,84,106.72a3.24,3.24,0,0,0-.38,1.94,2.93,2.93,0,0,0,.82,1.63A5.86,5.86,0,0,0,86,111.43a6.18,6.18,0,0,0,2.13.68,2.71,2.71,0,0,0,1.77-.39A3.16,3.16,0,0,0,91,110.44a2.82,2.82,0,0,0,.28-2,3.22,3.22,0,0,0-1.21-1.78"/><path class="cls-1" d="M140.79,214.89c-50.41.4-75.69-46.94-74.92-69.95,0-.43-.63-.77-.47-.77H88.8c1.11,27.58,28.05,49.07,51.69,48.57a55.26,55.26,0,0,0,54.4-48.57h22.63c.17,0,.37.35.3.77-5.44,34.16-28.34,69.56-77,69.95"/><rect class="cls-3" x="65.41" y="137.57" width="22.92" height="3.3"/><rect class="cls-3" x="195.17" y="137.57" width="22.92" height="3.3"/><path class="cls-2" d="M201.53,172.21l-9.3-3.39.67-1.86,7.39.2,1.54.06-1.31-1-5.66-4.58.6-1.66,9.31,3.38-.44,1.19-7.79-2.83,6.81,5.54-.41,1.11-8.89-.19L202,171Zm-4.34,8-8.66-4.8,3.47-6.26,1,.57-2.83,5.11,2.65,1.47,2.65-4.79,1,.57-2.66,4.79,3,1.63,2.95-5.31,1,.56Zm-3.92,5.29-7-5.26-2,2.61-.94-.71,4.73-6.26.93.7-2,2.62,7,5.25Zm-10.7,6.54.8-1a2.56,2.56,0,0,0,1.15.58,2.27,2.27,0,0,0,1.25-.16,3.83,3.83,0,0,0,1.28-.87,3.47,3.47,0,0,0,.77-1.09,1.8,1.8,0,0,0,.18-1,1.36,1.36,0,0,0-.4-.8,1.33,1.33,0,0,0-.77-.39,2,2,0,0,0-1,.22,16,16,0,0,0-1.59.9,9.18,9.18,0,0,1-1.79.92,2.63,2.63,0,0,1-1.4.09,2.28,2.28,0,0,1-1.12-.62,2.49,2.49,0,0,1-.68-1.29,2.65,2.65,0,0,1,.17-1.58,4.72,4.72,0,0,1,1.05-1.52,5,5,0,0,1,1.63-1.13,2.8,2.8,0,0,1,1.65-.18,3,3,0,0,1,1.44.77l-.82,1a2.05,2.05,0,0,0-1.49-.52,2.67,2.67,0,0,0-1.56.88,2.77,2.77,0,0,0-.91,1.54,1.31,1.31,0,0,0,.35,1.12,1.13,1.13,0,0,0,.9.35,5,5,0,0,0,1.89-.9,14.12,14.12,0,0,1,2-1.1,3.06,3.06,0,0,1,1.62-.19,2.45,2.45,0,0,1,1.28.71,2.67,2.67,0,0,1,.74,1.37,3.1,3.1,0,0,1-.15,1.69,4.6,4.6,0,0,1-1.08,1.62,5.61,5.61,0,0,1-1.87,1.32,3.15,3.15,0,0,1-1.84.17,3.32,3.32,0,0,1-1.64-.87m-2.68,5.76-2.52-3.35-6.48-2.26,1.27-1,3.35,1.21c.63.23,1.23.47,1.82.73-.08-.59-.14-1.27-.19-2.05l-.22-3.47,1.21-.92.29,6.93,2.52,3.35Zm-12.28,3.37,1-.68a2.87,2.87,0,0,0,.93.89,2.23,2.23,0,0,0,1.24.21,3.83,3.83,0,0,0,1.48-.45,3.69,3.69,0,0,0,1.07-.82,1.9,1.9,0,0,0,.47-.94,1.46,1.46,0,0,0-.15-.88,1.29,1.29,0,0,0-.63-.59,1.83,1.83,0,0,0-1.05-.1,17.4,17.4,0,0,0-1.79.4,9.11,9.11,0,0,1-2,.35,2.69,2.69,0,0,1-1.37-.31,2.39,2.39,0,0,1-.88-.93,2.53,2.53,0,0,1-.28-1.44,2.67,2.67,0,0,1,.63-1.46,5.24,5.24,0,0,1,3.33-1.74,2.79,2.79,0,0,1,1.63.31,3,3,0,0,1,1.16,1.15l-1.06.67a2.06,2.06,0,0,0-1.27-.93,2.65,2.65,0,0,0-1.75.39,2.79,2.79,0,0,0-1.33,1.2,1.32,1.32,0,0,0,0,1.18,1.13,1.13,0,0,0,.76.59,5,5,0,0,0,2.07-.3,13.26,13.26,0,0,1,2.23-.47,3,3,0,0,1,1.6.29,2.43,2.43,0,0,1,1,1.05,2.66,2.66,0,0,1,.3,1.53,3,3,0,0,1-.64,1.57,4.75,4.75,0,0,1-1.5,1.24,5.66,5.66,0,0,1-2.17.71,3.24,3.24,0,0,1-1.82-.37,3.39,3.39,0,0,1-1.31-1.32M151.27,209l-1.37-8.63-3.22.51-.18-1.15,7.75-1.23.18,1.15-3.23.52,1.37,8.62Zm-12.48.8-.34-9.9,1.34,0,5.47,7.58-.27-7.77,1.25,0,.35,9.89-1.34.05L139.78,202l.27,7.77Zm-9.19-1.08,1.21-9.82,7.1.87-.14,1.16L132,200.2l-.36,3,5.43.67-.14,1.15-5.44-.66-.41,3.34,6,.74-.15,1.16Zm-11.2-2.91,2.56-9.56,1.91.51.44,7.38c0,.68.07,1.19.08,1.53l.92-1.39,4.07-6,1.71.45-2.56,9.57-1.23-.33,2.15-8-4.92,7.27-1.15-.31L121.8,198l-2.18,8.14Zm-9-4.07,4.34-8.9,6.43,3.14L119.7,197l-5.25-2.57-1.33,2.73,4.92,2.4-.51,1-4.92-2.4-1.48,3,5.46,2.67-.51,1.05Zm-3-6.46.64-1,3.48,2.35-2,3a7.22,7.22,0,0,1-2.3-.15,6,6,0,0,1-2-.86,5.51,5.51,0,0,1-1.85-2,4.06,4.06,0,0,1-.48-2.5,5.53,5.53,0,0,1,1-2.53,6.17,6.17,0,0,1,2-1.9,4,4,0,0,1,2.48-.57,5.64,5.64,0,0,1,2.51.95,5.3,5.3,0,0,1,1.41,1.38,3.24,3.24,0,0,1,.59,1.56,4.37,4.37,0,0,1-.29,1.77l-1.16-.4a3.67,3.67,0,0,0,.21-1.29,2.28,2.28,0,0,0-.4-1.1,3.51,3.51,0,0,0-1-1,3.92,3.92,0,0,0-1.44-.64,2.9,2.9,0,0,0-1.28,0,3.32,3.32,0,0,0-1.07.47,5,5,0,0,0-1.43,1.44,4.82,4.82,0,0,0-.86,2.09,2.94,2.94,0,0,0,.36,1.84,4.18,4.18,0,0,0,1.29,1.39,4.64,4.64,0,0,0,1.57.66,4.22,4.22,0,0,0,1.4.1l1-1.52Zm-9-7.32,2.5,2.25,1.06-2.73c.33-.83.61-1.5.85-2a12.26,12.26,0,0,1-1.66,1.05Zm-4.84,1.11,9.45-4.81,1,.94-3.62,10.07-1.11-1,1.15-3-3.08-2.77L93.64,190Zm-5.46-7L95,175.93l.82,1-2.92,8.89L99,181.08l.77,1-7.8,6.1-.83-1.06,2.93-8.89L87.93,183Zm-.24-8.48,1.63,2.94,1.9-2.24c.57-.67,1.06-1.21,1.45-1.61a11.82,11.82,0,0,1-1.91.45ZM82,173l10.51-1.47.68,1.23-6.69,8.35-.73-1.31,2.07-2.46-2-3.62-3.15.5Zm-3.69-9.8,9.31-3.39.67,1.85-5.79,4.6c-.54.43-.94.75-1.21.95.37,0,.93,0,1.67-.05l7.28-.13.61,1.66-9.31,3.39-.43-1.19,7.79-2.84-8.77.13-.41-1.11,6.94-5.57-7.92,2.88Z"/><rect class="cls-4" x="93.79" y="122.03" width="95.55" height="3.25"/><rect class="cls-3" x="93.94" y="156.22" width="95.21" height="2.53"/><rect class="cls-3" x="100.28" y="129.99" width="4.76" height="20.4"/><path class="cls-5" d="M133.16,130h4.53l10.78,12V130h4.94v20.4h-4.18L147.09,148l-2.93-3.33q-1.47-1.68-3.72-4.22l-2.31-2.61v12.59h-5Z"/><path class="cls-5" d="M177.55,129.89h.62v4.86h5.41v3.35h-5.41v5.37a11.24,11.24,0,0,0,.12,1.8,2.08,2.08,0,0,0,.62,1.2,2.12,2.12,0,0,0,1.52.49,3.8,3.8,0,0,0,1.25-.18c.35-.11,1-.36,1.9-.74v3.52l-1.48.49a11.59,11.59,0,0,1-1.26.33,9,9,0,0,1-1.58.12,5.52,5.52,0,0,1-4.31-1.58,6.47,6.47,0,0,1-1.43-4.49V138.1h-2.24v-.9Z"/><path class="cls-5" d="M163.49,137.2a3,3,0,0,0-2.27,1,4,4,0,0,0-1.09,2.42h6.74a4,4,0,0,0-1-2.41,3.1,3.1,0,0,0-2.34-1m-.3-3a8.34,8.34,0,0,1,3.9.82,6.51,6.51,0,0,1,2.46,2.17,8.79,8.79,0,0,1,1.26,2.88,13.34,13.34,0,0,1,.36,3.07h-11.1a4.48,4.48,0,0,0,1.51,3.2,5.44,5.44,0,0,0,3.58,1.08,9.36,9.36,0,0,0,5.74-2.14v3.13a12.06,12.06,0,0,1-7.28,2.07,9.87,9.87,0,0,1-4.48-1,7.15,7.15,0,0,1-3-2.83,8.29,8.29,0,0,1-1.08-4.27,8.43,8.43,0,0,1,1.08-4.28,7.44,7.44,0,0,1,3-2.9,8.52,8.52,0,0,1,4.12-1"/><polygon class="cls-1" points="128.24 137.95 128.83 139.56 130.38 139.56 129.14 140.49 129.64 142.01 128.24 141.09 126.87 142.01 127.37 140.49 126.1 139.56 127.69 139.56 128.24 137.95"/><polygon class="cls-1" points="127.2 142.47 127.77 144.03 129.31 144.03 128.07 144.97 128.57 146.46 127.2 145.56 125.8 146.46 126.32 144.97 125.06 144.03 126.62 144.03 127.2 142.47"/><polygon class="cls-1" points="123.67 145.91 124.28 147.52 125.8 147.52 124.53 148.45 125.05 149.95 123.67 149.06 122.28 149.95 122.78 148.45 121.53 147.52 123.08 147.52 123.67 145.91"/><polygon class="cls-1" points="120.59 141.75 121.12 143.31 122.72 143.31 121.45 144.24 121.92 145.74 120.59 144.84 119.15 145.74 119.66 144.24 118.43 143.31 119.97 143.31 120.59 141.75"/><polygon class="cls-1" points="126.49 149.77 127.02 151.4 128.62 151.4 127.36 152.37 127.83 153.87 126.49 152.95 125.06 153.87 125.57 152.37 124.35 151.4 125.88 151.4 126.49 149.77"/><polygon class="cls-1" points="118.68 147.51 119.29 149.17 120.82 149.17 119.59 150.06 120.06 151.62 118.68 150.7 117.33 151.62 117.8 150.06 116.55 149.17 118.1 149.17 118.68 147.51"/><polygon class="cls-1" points="114.11 145.93 114.65 147.59 116.21 147.59 114.98 148.52 115.47 150.02 114.11 149.13 112.68 150.02 113.2 148.52 111.98 147.59 113.5 147.59 114.11 145.93"/><polygon class="cls-1" points="110.64 142.54 111.25 144.16 112.78 144.16 111.57 145.09 112.07 146.6 110.64 145.68 109.3 146.6 109.75 145.09 108.51 144.16 110.11 144.16 110.64 142.54"/><polygon class="cls-1" points="109.58 137.88 110.16 139.51 111.71 139.51 110.5 140.42 110.95 141.93 109.58 141.06 108.18 141.93 108.66 140.42 107.44 139.51 109 139.51 109.58 137.88"/><polygon class="cls-1" points="110.86 133.29 111.42 134.87 113 134.87 111.73 135.84 112.24 137.34 110.86 136.47 109.47 137.34 109.94 135.84 108.72 134.87 110.28 134.87 110.86 133.29"/><polygon class="cls-1" points="114.08 129.77 114.66 131.37 116.22 131.37 114.99 132.31 115.43 133.81 114.08 132.9 112.71 133.81 113.16 132.31 111.94 131.37 113.51 131.37 114.08 129.77"/><polygon class="cls-1" points="118.89 128.64 119.51 130.21 121.03 130.21 119.81 131.19 120.28 132.68 118.89 131.77 117.54 132.68 118.01 131.19 116.76 130.21 118.31 130.21 118.89 128.64"/><polygon class="cls-1" points="123.91 129.62 124.46 131.22 126.02 131.22 124.78 132.17 125.28 133.67 123.91 132.76 122.51 133.67 123.01 132.17 121.78 131.22 123.33 131.22 123.91 129.62"/><polygon class="cls-1" points="126.79 133.22 127.37 134.79 128.94 134.79 127.69 135.77 128.14 137.26 126.79 136.34 125.42 137.26 125.87 135.77 124.65 134.79 126.17 134.79 126.79 133.22"/></svg>